<?xml version="1.0" encoding="UTF-8" standalone="no"?>
<!DOCTYPE svg PUBLIC "-//W3C//DTD SVG 1.1//EN" "http://www.w3.org/Graphics/SVG/1.1/DTD/svg11.dtd">
<svg xmlns="http://www.w3.org/2000/svg" version="1.1" viewBox="0.00 0.00 1777.00 1342.00">
<g stroke-width="2.00" fill="none" stroke-linecap="butt">
<path stroke="#80b0d7" vector-effect="non-scaling-stroke" d="
  M 1018.72 190.00
  Q 1020.12 190.47 1021.03 190.35
  Q 1024.00 189.95 1021.17 188.86
  Q 1015.36 186.63 1008.49 184.57
  Q 990.66 179.24 964.45 173.25
  C 946.55 169.16 928.82 166.83 910.50 165.26
  Q 901.78 164.51 895.06 164.48
  C 893.56 164.47 892.25 164.01 890.69 163.98
  C 871.71 163.66 850.15 163.26 830.01 164.95
  C 720.40 174.16 616.94 216.68 534.57 289.31
  C 529.94 293.39 524.15 299.05 518.82 303.81
  Q 511.24 310.58 493.87 330.05
  Q 438.23 392.40 406.06 470.80
  Q 373.96 549.04 368.30 637.04
  Q 368.18 639.01 368.23 640.96
  C 368.32 644.26 367.55 647.45 367.55 650.75
  Q 367.51 670.33 367.55 690.62
  Q 367.55 692.96 367.89 695.34
  C 368.42 699.03 368.17 702.81 368.42 706.57
  Q 372.14 761.81 385.83 814.54
  Q 385.99 815.15 386.30 814.61
  Q 391.30 805.83 396.74 797.48
  C 405.72 783.70 417.26 772.50 429.81 761.81
  Q 432.07 759.88 434.18 757.88
  A 1.49 1.46 -29.2 0 0 434.60 756.45
  Q 424.53 715.45 422.29 672.92
  C 422.02 667.63 422.21 662.30 421.68 657.07
  C 421.03 650.65 421.23 643.81 421.82 637.28
  C 422.21 632.99 421.99 628.60 422.21 624.21
  Q 424.23 584.78 433.17 545.63
  Q 448.65 477.83 482.31 418.17
  Q 517.62 355.58 569.80 306.03
  Q 643.59 235.95 739.09 201.25
  Q 798.67 179.59 863.89 174.59
  Q 873.26 173.87 884.36 173.69
  Q 903.71 173.37 918.19 174.04
  Q 954.28 175.70 992.42 183.82
  Q 1003.91 186.26 1016.49 189.35
  Q 1017.61 189.62 1018.72 190.00"
/>
<path stroke="#ffde80" vector-effect="non-scaling-stroke" d="
  M 998.41 339.96
  Q 1048.48 328.69 1100.77 318.85
  Q 1109.23 317.26 1114.61 314.53
  C 1119.49 312.06 1123.34 307.58 1122.23 301.94
  Q 1121.31 297.26 1117.78 292.62
  C 1115.11 289.11 1112.39 285.47 1109.26 282.31
  C 1093.18 266.06 1073.26 253.32 1052.62 243.57
  C 1024.71 230.40 992.62 222.32 961.09 218.39
  Q 931.16 214.66 900.67 215.18
  C 894.09 215.29 887.65 215.75 881.01 216.04
  Q 863.57 216.80 839.02 220.63
  Q 824.83 222.85 810.49 225.50
  Q 799.22 227.58 788.33 230.63
  Q 757.61 239.25 732.92 250.72
  C 706.04 263.21 680.11 279.45 657.73 298.86
  C 647.58 307.66 636.81 318.42 628.42 328.32
  Q 620.98 337.10 613.30 346.58
  Q 606.51 354.97 600.72 364.58
  C 597.16 370.49 593.30 376.52 590.39 382.55
  Q 587.12 389.31 583.73 396.50
  Q 576.40 412.04 572.68 426.70
  Q 571.58 431.03 570.54 438.46
  C 569.87 443.23 570.46 448.87 575.05 451.14
  C 578.46 452.83 581.46 453.93 585.31 452.76
  Q 587.56 452.08 589.95 451.30
  Q 616.58 442.71 637.05 436.37
  Q 815.30 381.20 998.41 339.96"
/>
<path stroke="#ff8089" vector-effect="non-scaling-stroke" d="
  M 1216.58 425.63
  C 1231.33 416.87 1242.06 402.64 1244.73 385.54
  Q 1245.34 381.61 1244.98 378.11
  C 1243.99 368.42 1241.45 359.86 1235.03 352.52
  Q 1222.20 337.89 1203.69 337.23
  C 1198.14 337.03 1192.39 337.09 1186.88 337.62
  Q 1159.68 340.22 1129.34 347.17
  A 2.30 2.29 -8.6 0 0 1127.56 349.58
  Q 1127.87 353.51 1127.41 356.96
  Q 1126.89 360.84 1126.89 364.77
  Q 1126.94 438.10 1126.91 510.01
  A 1.08 1.07 -88.6 0 0 1127.93 511.09
  Q 1130.20 511.22 1132.30 510.81
  Q 1140.58 509.21 1149.16 507.42
  C 1155.16 506.16 1163.56 503.59 1167.39 498.32
  C 1171.21 493.07 1172.32 487.13 1172.28 480.34
  Q 1172.19 461.64 1172.19 445.14
  Q 1172.19 443.62 1173.17 444.79
  Q 1188.18 462.98 1201.54 478.86
  Q 1208.44 487.06 1213.30 491.19
  Q 1221.57 498.21 1232.78 496.29
  C 1238.25 495.35 1242.12 492.33 1245.90 488.42
  Q 1247.67 486.58 1248.90 484.31
  C 1254.38 474.15 1251.19 464.66 1243.81 456.35
  Q 1234.45 445.82 1222.98 433.11
  Q 1219.66 429.43 1216.49 426.35
  Q 1216.07 425.94 1216.58 425.63"
/>
<path stroke="#ff8089" vector-effect="non-scaling-stroke" d="
  M 1063.45 395.85
  Q 1081.31 393.05 1098.06 389.64
  C 1105.59 388.11 1112.52 384.55 1115.33 377.31
  Q 1116.59 374.08 1116.51 369.52
  Q 1116.33 359.66 1116.45 351.57
  A 1.17 1.17 0.0 0 0 1115.07 350.40
  Q 1101.22 352.97 1086.83 355.08
  Q 1078.51 356.29 1043.85 363.88
  C 1035.50 365.71 1026.61 366.62 1018.75 370.09
  Q 1018.25 370.31 1018.32 370.85
  C 1019.24 377.57 1017.90 383.96 1017.93 390.52
  Q 1018.05 418.20 1017.89 441.15
  C 1017.86 444.19 1017.32 447.27 1017.32 450.39
  Q 1017.33 491.25 1017.35 533.11
  A 1.74 1.74 0.0 0 0 1019.36 534.83
  Q 1038.94 531.68 1056.38 527.25
  Q 1078.92 521.53 1102.22 515.27
  C 1108.39 513.61 1113.10 511.67 1115.40 505.02
  Q 1117.06 500.22 1117.46 496.63
  Q 1117.76 493.96 1118.14 490.97
  Q 1118.50 488.19 1118.20 485.68
  Q 1117.68 481.27 1117.69 476.67
  A 1.69 1.69 0.0 0 0 1115.68 475.01
  C 1098.05 478.46 1080.80 481.80 1063.79 486.85
  A 0.40 0.40 0.0 0 1 1063.28 486.46
  L 1063.28 455.81
  A 0.84 0.84 0.0 0 1 1063.98 454.98
  Q 1077.69 452.53 1090.40 450.23
  Q 1099.30 448.62 1105.99 444.20
  C 1109.55 441.84 1111.35 437.26 1111.57 433.04
  Q 1112.04 423.80 1111.73 413.33
  Q 1111.69 411.86 1110.24 412.13
  L 1065.74 420.62
  Q 1065.18 420.72 1064.72 421.04
  Q 1064.35 421.28 1063.95 421.26
  A 0.70 0.70 0.0 0 1 1063.28 420.56
  L 1063.27 398.53
  Q 1063.27 397.99 1062.98 397.53
  Q 1062.69 397.06 1062.75 396.57
  Q 1062.83 395.95 1063.45 395.85"
/>
<path stroke="#ff8089" vector-effect="non-scaling-stroke" d="
  M 962.90 488.02
  A 0.41 0.41 0.0 0 1 963.49 488.38
  C 963.56 495.16 964.25 502.38 961.93 508.88
  C 960.21 513.72 953.03 517.36 948.28 517.89
  C 940.19 518.81 933.12 518.66 926.63 513.03
  C 919.39 506.75 915.99 495.81 916.20 486.45
  C 916.35 480.05 915.76 473.72 916.95 467.50
  Q 918.13 461.31 920.34 455.14
  C 923.41 446.53 929.74 439.24 936.69 433.32
  C 948.28 423.45 966.30 424.64 980.69 426.12
  C 989.35 427.02 996.14 424.58 1002.18 418.27
  C 1006.13 414.16 1006.05 406.88 1005.25 401.59
  C 1003.51 390.14 992.14 383.31 981.23 382.05
  Q 968.05 380.53 954.48 381.38
  C 930.64 382.90 906.86 393.05 891.76 411.29
  Q 886.50 417.64 881.28 426.16
  C 877.64 432.12 874.86 439.21 872.49 445.91
  C 868.75 456.43 867.36 467.95 866.52 479.37
  Q 865.97 486.86 866.77 495.48
  Q 867.62 504.54 870.12 511.76
  Q 874.94 525.73 882.51 535.25
  Q 894.49 550.33 915.57 555.83
  C 924.03 558.04 933.30 558.13 941.74 557.40
  Q 949.23 556.75 962.16 553.13
  Q 973.83 549.86 983.57 544.59
  C 998.40 536.58 1006.68 521.18 1006.75 504.37
  Q 1006.87 473.35 1006.79 443.92
  Q 1006.78 442.37 1005.26 442.67
  Q 988.21 446.03 970.57 449.59
  C 965.71 450.57 960.99 452.02 956.04 452.93
  Q 948.14 454.38 940.71 456.13
  A 2.81 2.81 0.0 0 0 938.55 458.89
  Q 938.62 466.49 938.56 475.35
  Q 938.55 476.47 938.86 477.54
  C 939.39 479.36 939.21 481.01 939.94 482.88
  C 941.96 488.13 946.31 489.68 951.64 489.48
  Q 954.74 489.37 957.77 489.36
  Q 960.19 489.36 962.90 488.02"
/>
<path stroke="#ff8089" vector-effect="non-scaling-stroke" d="
  M 833.98 514.26
  C 837.19 510.91 840.71 507.80 843.67 504.33
  Q 852.99 493.38 857.78 479.59
  Q 859.59 474.39 860.15 467.48
  Q 860.67 461.08 860.36 454.89
  C 859.66 440.81 849.55 428.85 836.42 424.45
  C 828.41 421.76 817.66 420.79 809.37 422.71
  Q 784.61 428.44 754.32 438.43
  C 750.31 439.75 746.12 440.82 742.27 442.56
  A 1.02 1.00 -12.3 0 0 741.67 443.48
  L 741.67 611.54
  A 1.14 1.13 -7.0 0 0 743.08 612.63
  Q 757.02 609.16 769.53 603.08
  C 778.40 598.77 784.32 593.26 786.69 583.97
  Q 787.72 579.91 787.68 575.02
  Q 787.55 558.29 787.63 536.11
  A 0.18 0.18 0.0 0 1 787.94 535.98
  Q 794.59 542.44 800.91 549.36
  C 806.08 555.03 812.26 560.20 817.82 565.82
  C 821.79 569.84 826.27 573.79 830.53 577.54
  C 839.90 585.78 853.47 583.49 861.92 575.11
  C 865.76 571.30 866.79 567.08 867.92 562.27
  Q 868.44 560.03 868.09 558.47
  Q 867.76 557.01 867.71 555.46
  Q 867.49 548.59 862.90 543.98
  Q 848.93 529.97 833.99 515.10
  Q 833.57 514.69 833.98 514.26"
/>
<path stroke="#ff8089" vector-effect="non-scaling-stroke" d="
  M 728.70 468.05
  C 728.67 459.35 722.58 451.53 712.95 452.70
  Q 698.52 454.45 684.92 460.24
  A 1.61 1.61 0.0 0 0 683.94 461.66
  C 683.84 464.29 683.19 466.56 683.20 469.32
  Q 683.31 517.56 683.21 567.57
  Q 683.19 574.51 682.29 584.39
  C 681.31 595.13 674.95 603.25 663.53 603.01
  Q 654.52 602.82 652.99 594.14
  C 652.41 590.87 651.74 587.76 651.74 584.46
  Q 651.76 538.84 651.73 493.16
  Q 651.73 491.95 651.38 490.75
  C 650.67 488.26 650.30 485.94 648.78 483.77
  Q 643.19 475.85 633.18 477.92
  Q 619.14 480.82 606.71 486.89
  A 1.62 1.60 77.1 0 0 605.81 488.34
  Q 605.77 541.12 605.83 596.31
  Q 605.83 599.96 606.35 604.04
  Q 606.88 608.28 607.41 612.42
  Q 609.53 628.89 621.80 638.86
  C 629.08 644.77 638.04 646.60 647.19 646.92
  Q 659.65 647.34 671.65 643.48
  Q 678.93 641.14 685.41 638.43
  Q 692.20 635.60 701.31 629.33
  C 711.67 622.20 719.92 610.90 723.82 598.71
  Q 726.27 591.08 727.47 580.73
  Q 729.33 564.65 729.27 551.45
  Q 729.21 535.43 729.19 519.72
  C 729.19 518.89 728.86 518.06 728.81 517.22
  Q 728.29 509.16 728.73 500.87
  Q 729.18 492.44 729.20 485.56
  Q 729.22 478.07 729.18 470.16
  C 729.17 469.41 728.70 468.69 728.70 468.05"
/>
<path stroke="#ff8089" vector-effect="non-scaling-stroke" d="
  M 1231.09 626.72
  Q 1231.64 627.68 1232.47 628.77
  Q 1266.27 673.32 1297.03 713.29
  Q 1299.64 716.69 1302.77 720.55
  C 1309.92 729.36 1317.27 734.52 1329.15 737.03
  C 1332.78 737.80 1336.58 737.42 1340.27 737.54
  C 1347.17 737.77 1354.56 735.10 1359.26 730.58
  Q 1369.80 720.42 1369.80 705.60
  Q 1369.77 595.69 1369.79 493.35
  A 0.76 0.76 0.0 0 0 1369.00 492.59
  Q 1348.74 493.35 1330.56 496.98
  Q 1325.56 497.98 1319.32 501.50
  C 1308.65 507.54 1304.11 520.76 1304.13 532.35
  Q 1304.22 574.12 1304.19 611.61
  Q 1304.18 612.69 1303.53 611.83
  Q 1276.11 576.22 1249.83 541.61
  C 1242.76 532.29 1236.96 522.43 1226.41 516.55
  Q 1223.08 514.70 1219.88 514.41
  C 1213.68 513.87 1207.56 514.65 1201.23 515.92
  Q 1187.82 518.60 1174.42 520.65
  C 1170.95 521.19 1167.58 522.03 1164.17 522.92
  Q 1163.71 523.03 1163.71 523.51
  L 1163.71 763.78
  Q 1163.71 764.30 1164.23 764.34
  Q 1165.61 764.45 1167.79 764.10
  Q 1189.05 760.68 1204.42 756.09
  C 1216.24 752.57 1225.49 745.11 1229.29 733.06
  Q 1230.82 728.23 1230.75 714.77
  Q 1230.54 671.16 1230.69 626.83
  Q 1230.69 626.02 1231.09 626.72"
/>
<path stroke="#ff8089" vector-effect="non-scaling-stroke" d="
  M 573.62 588.56
  Q 572.37 588.36 573.40 587.62
  Q 596.52 571.07 595.85 541.65
  Q 595.81 539.96 595.49 538.29
  C 594.91 535.34 594.59 532.40 593.55 529.62
  Q 590.96 522.78 584.82 517.11
  Q 573.31 506.51 558.82 507.82
  Q 547.78 508.83 537.75 512.31
  C 529.48 515.19 521.36 517.67 513.29 520.96
  Q 495.30 528.30 477.74 535.92
  A 0.92 0.91 -11.8 0 0 477.18 536.76
  L 477.18 717.00
  Q 477.18 717.89 478.00 717.55
  Q 505.49 706.15 533.51 694.50
  C 544.03 690.13 554.12 685.39 563.92 680.16
  Q 573.95 674.81 580.39 669.24
  Q 591.91 659.30 599.48 643.78
  C 602.96 636.64 602.61 629.05 602.55 621.36
  C 602.53 618.63 601.75 615.87 601.00 613.28
  Q 594.86 591.98 573.62 588.56"
/>
<path stroke="#ff8089" vector-effect="non-scaling-stroke" d="
  M 1064.21 730.74
  Q 1063.89 730.81 1063.89 730.48
  L 1063.89 683.53
  A 0.41 0.41 0.0 0 1 1064.23 683.13
  Q 1081.66 679.97 1101.58 675.22
  Q 1110.51 673.09 1119.38 669.66
  Q 1132.95 664.42 1134.62 650.75
  C 1134.84 648.94 1134.61 647.05 1135.01 645.35
  Q 1135.46 643.41 1135.46 641.49
  Q 1135.47 630.02 1135.46 618.51
  A 0.65 0.64 81.2 0 0 1134.62 617.89
  Q 1130.93 619.06 1126.24 620.14
  Q 1093.76 627.58 1065.18 634.08
  A 1.04 1.00 16.4 0 0 1064.68 634.34
  Q 1064.24 634.77 1063.74 634.51
  Q 1063.28 634.26 1063.28 633.74
  L 1063.28 596.79
  Q 1063.28 596.32 1063.74 596.30
  C 1064.41 596.26 1064.83 596.37 1065.52 596.22
  Q 1084.29 592.19 1102.21 588.01
  Q 1116.83 584.60 1126.30 580.54
  C 1133.93 577.26 1138.64 572.45 1140.04 564.00
  Q 1140.64 560.38 1140.67 556.95
  Q 1140.78 543.40 1140.70 529.23
  A 0.53 0.53 0.0 0 0 1139.97 528.74
  Q 1138.62 529.28 1137.04 529.50
  Q 1125.53 531.13 1111.80 533.99
  Q 1061.50 544.49 1014.55 557.07
  Q 1006.60 559.20 997.96 561.73
  A 1.39 1.38 81.9 0 0 996.97 563.06
  L 996.97 802.25
  A 1.06 1.06 0.0 0 0 998.29 803.28
  Q 1046.07 791.29 1093.78 779.42
  C 1104.01 776.88 1114.93 775.38 1125.29 771.78
  C 1136.46 767.90 1141.64 760.09 1143.28 748.98
  Q 1144.02 743.95 1144.02 740.75
  Q 1144.05 727.05 1144.04 714.09
  A 1.15 1.15 0.0 0 0 1142.64 712.97
  L 1064.21 730.74"
/>
<path stroke="#ff8089" vector-effect="non-scaling-stroke" d="
  M 899.82 774.97
  L 899.81 728.45
  Q 899.81 727.87 900.38 727.74
  Q 921.71 722.80 944.60 716.09
  Q 953.74 713.42 959.55 709.78
  C 968.63 704.08 971.63 691.85 971.94 681.20
  Q 972.22 671.42 972.04 659.78
  A 0.51 0.51 0.0 0 0 971.40 659.30
  Q 953.49 664.20 934.46 669.24
  C 922.90 672.31 911.79 675.90 900.37 679.16
  A 0.44 0.43 82.0 0 1 899.82 678.74
  L 899.81 641.71
  Q 899.81 641.15 900.37 641.05
  Q 903.16 640.55 905.75 639.87
  Q 922.76 635.37 940.20 630.16
  C 953.40 626.21 970.67 624.35 975.73 608.70
  Q 977.71 602.55 977.80 597.69
  Q 978.04 583.38 977.93 568.48
  Q 977.92 567.05 976.53 567.39
  Q 963.59 570.60 952.68 573.44
  C 937.46 577.41 920.23 583.57 903.94 588.00
  Q 878.92 594.80 850.98 603.49
  Q 841.63 606.40 832.53 609.61
  Q 832.21 609.72 832.21 610.05
  Q 832.26 730.29 832.22 850.62
  Q 832.22 850.94 832.35 851.23
  Q 832.69 852.03 833.54 851.81
  Q 848.11 848.07 863.90 842.99
  Q 874.78 839.48 882.98 837.07
  C 897.00 832.93 910.47 828.63 924.79 824.85
  Q 936.98 821.63 948.40 817.68
  Q 956.97 814.72 963.84 811.36
  Q 976.14 805.37 979.39 791.39
  C 979.95 788.96 980.55 786.29 980.56 783.82
  Q 980.61 767.93 980.58 752.35
  A 0.59 0.59 0.0 0 0 979.62 751.89
  Q 978.91 752.48 977.94 752.69
  Q 977.33 752.83 976.72 753.01
  Q 936.16 764.91 900.37 775.38
  Q 899.82 775.54 899.82 774.97"
/>
<path stroke="#ff8089" vector-effect="non-scaling-stroke" d="
  M 682.78 663.09
  Q 678.19 664.07 673.66 665.76
  Q 658.73 671.34 644.22 677.26
  A 2.68 2.67 78.9 0 0 642.56 679.74
  Q 642.60 754.86 642.54 830.66
  Q 642.53 835.30 642.95 839.91
  Q 643.40 844.80 643.91 849.30
  Q 645.34 861.90 650.93 872.77
  C 657.33 885.25 670.78 894.44 684.15 897.33
  C 703.79 901.57 724.60 896.87 742.52 888.79
  Q 752.19 884.43 762.15 878.99
  C 783.79 867.17 799.95 848.15 806.85 824.51
  Q 812.53 805.03 812.54 784.40
  Q 812.55 711.79 812.58 644.36
  C 812.58 640.20 811.67 636.14 810.17 632.25
  Q 807.66 625.71 801.06 623.63
  C 798.52 622.83 793.78 623.11 791.13 623.70
  Q 784.61 625.13 777.17 627.79
  Q 763.70 632.60 750.97 637.09
  Q 749.55 637.59 749.55 639.10
  Q 749.54 658.26 749.57 676.26
  C 749.58 685.56 750.28 695.41 750.25 705.40
  Q 750.14 754.01 750.24 801.51
  C 750.24 805.56 748.90 809.44 748.06 813.37
  Q 744.26 831.14 727.02 835.36
  C 723.52 836.21 720.17 835.86 716.76 834.80
  Q 709.51 832.55 707.62 824.32
  Q 706.18 818.05 706.18 811.00
  Q 706.20 750.75 706.15 692.50
  Q 706.14 684.42 705.23 676.71
  Q 704.29 668.81 698.47 664.68
  Q 695.56 662.61 691.12 662.45
  Q 686.58 662.28 682.78 663.09"
/>
<path stroke="#ff8089" vector-effect="non-scaling-stroke" d="
  M 558.74 961.21
  A 0.39 0.38 -48.2 0 1 558.71 960.63
  C 560.85 958.54 563.32 956.90 565.38 954.73
  C 570.36 949.50 575.98 945.14 580.77 939.75
  C 591.63 927.53 600.98 915.05 608.03 900.94
  C 609.66 897.68 611.81 894.71 613.11 891.35
  Q 616.58 882.37 619.62 873.45
  C 626.60 853.00 628.25 830.09 627.28 808.27
  C 627.24 807.39 626.84 806.36 626.84 805.31
  Q 626.83 797.74 625.07 790.57
  Q 621.24 774.93 615.02 763.21
  Q 612.42 758.31 608.13 753.33
  Q 590.01 732.33 560.61 728.82
  Q 547.18 727.21 538.27 727.73
  Q 523.99 728.57 507.77 733.77
  C 502.37 735.51 496.87 736.71 491.55 738.67
  Q 477.33 743.93 465.16 751.08
  Q 452.74 758.38 439.07 768.80
  Q 423.04 781.02 411.53 796.57
  Q 400.46 811.52 393.76 825.21
  C 391.52 829.77 389.14 834.34 387.19 839.00
  Q 377.70 861.62 374.78 888.42
  C 373.87 896.79 374.04 905.31 374.23 913.60
  Q 374.46 923.80 377.61 936.65
  Q 380.30 947.62 386.94 959.44
  C 398.35 979.72 417.23 992.77 440.84 995.18
  Q 466.83 997.84 493.51 992.18
  Q 494.56 991.96 495.32 992.73
  Q 500.94 998.50 506.75 1004.36
  C 520.60 1018.33 537.29 1029.28 555.33 1035.74
  Q 571.31 1041.48 590.64 1044.90
  Q 599.74 1046.51 609.59 1046.63
  Q 636.01 1046.93 659.74 1039.86
  C 668.50 1037.25 676.63 1031.76 680.48 1023.30
  Q 685.46 1012.37 683.47 1000.82
  C 682.01 992.29 675.55 984.25 668.03 979.97
  C 660.32 975.57 649.28 978.31 640.93 980.09
  C 615.83 985.45 588.55 982.58 567.28 968.40
  C 564.16 966.31 561.68 963.53 558.74 961.21"
/>
<path stroke="#ff8089" vector-effect="non-scaling-stroke" d="
  M 1268.38 772.23
  A 0.35 0.35 0.0 0 1 1268.73 772.58
  L 1268.72 806.72
  A 0.35 0.35 0.0 0 0 1269.07 807.07
  L 1279.48 807.07
  A 0.35 0.35 0.0 0 0 1279.83 806.72
  L 1279.85 772.59
  A 0.35 0.35 0.0 0 1 1280.20 772.24
  L 1295.93 772.29
  A 0.35 0.35 0.0 0 0 1296.28 771.94
  L 1296.27 765.41
  A 0.35 0.35 0.0 0 0 1295.92 765.06
  L 1252.67 765.05
  A 0.35 0.35 0.0 0 0 1252.32 765.40
  L 1252.29 771.92
  A 0.35 0.35 0.0 0 0 1252.64 772.27
  L 1268.38 772.23"
/>
<path stroke="#ff8089" vector-effect="non-scaling-stroke" d="
  M 1313.43 776.19
  Q 1313.49 777.32 1313.76 778.15
  Q 1317.02 788.17 1320.69 799.29
  C 1321.46 801.61 1322.52 803.65 1322.70 806.04
  A 1.10 1.10 0.0 0 0 1323.80 807.07
  L 1332.86 807.06
  Q 1333.38 807.06 1333.75 806.72
  C 1334.54 806.00 1334.30 804.54 1334.69 803.47
  Q 1339.89 789.12 1343.57 775.18
  Q 1343.66 774.86 1343.99 774.82
  Q 1344.32 774.77 1344.31 775.12
  Q 1344.12 791.08 1344.24 806.60
  Q 1344.24 807.08 1344.72 807.08
  L 1352.20 807.07
  Q 1352.72 807.07 1352.72 806.55
  L 1352.72 765.75
  Q 1352.72 765.03 1352.00 765.03
  L 1340.19 765.05
  Q 1338.87 765.06 1338.48 766.31
  Q 1334.83 777.80 1330.46 790.89
  Q 1329.76 792.98 1329.34 795.16
  Q 1328.79 797.91 1327.91 795.25
  L 1318.37 766.40
  A 1.97 1.95 -8.9 0 0 1316.52 765.06
  L 1302.72 765.02
  A 0.51 0.51 0.0 0 0 1302.21 765.53
  L 1302.20 806.64
  A 0.45 0.44 90.0 0 0 1302.64 807.09
  L 1311.95 807.06
  Q 1312.71 807.06 1312.71 806.30
  L 1312.64 775.96
  Q 1312.64 775.85 1312.73 775.78
  Q 1312.84 775.70 1312.99 775.72
  Q 1313.41 775.76 1313.43 776.19"
/>
<path stroke="#ffde80" vector-effect="non-scaling-stroke" d="
  M 934.38 855.55
  Q 853.75 878.62 778.82 905.32
  Q 771.98 907.76 748.91 916.41
  Q 725.38 925.23 703.62 934.19
  Q 703.57 934.21 696.93 936.78
  C 691.81 938.76 686.21 941.44 681.64 944.42
  Q 677.63 947.05 676.29 951.92
  Q 672.79 964.62 682.55 973.37
  Q 695.50 984.97 709.98 992.17
  Q 726.95 1000.61 740.17 1005.21
  Q 755.37 1010.49 768.30 1013.68
  Q 776.73 1015.76 785.12 1017.72
  C 804.20 1022.20 823.44 1024.98 843.35 1026.68
  Q 844.80 1026.81 846.28 1026.79
  C 849.23 1026.76 851.88 1027.53 854.84 1027.53
  Q 870.91 1027.57 886.32 1027.55
  C 888.54 1027.54 890.51 1026.80 892.75 1026.84
  Q 895.42 1026.89 897.99 1026.63
  Q 965.30 1019.80 1026.83 993.81
  Q 1035.01 990.35 1044.37 985.84
  C 1073.62 971.73 1101.67 954.17 1125.38 932.90
  Q 1146.05 914.36 1159.83 897.09
  Q 1169.96 884.40 1183.70 863.59
  Q 1188.08 856.96 1192.45 848.12
  C 1197.16 838.58 1201.46 830.28 1205.04 820.52
  Q 1207.30 814.36 1208.64 807.62
  Q 1209.38 803.87 1207.98 800.98
  Q 1205.99 796.85 1202.25 795.47
  Q 1199.63 794.50 1195.23 795.14
  Q 1158.89 800.45 1122.34 808.26
  C 1118.52 809.07 1114.36 809.58 1110.46 810.42
  Q 1036.85 826.23 934.38 855.55"
/>
<path stroke="#80b0d7" vector-effect="non-scaling-stroke" d="
  M 1258.66 823.87
  Q 1237.69 882.79 1197.85 931.90
  Q 1188.40 943.56 1180.13 952.20
  C 1171.43 961.31 1162.56 970.28 1153.07 978.71
  C 1112.97 1014.36 1066.40 1041.30 1015.00 1060.16
  Q 992.16 1068.54 969.91 1073.63
  C 940.58 1080.33 912.00 1085.21 882.10 1086.88
  C 874.64 1087.30 867.08 1087.09 859.73 1087.69
  C 854.36 1088.12 848.92 1087.29 843.49 1087.24
  Q 831.76 1087.13 819.19 1086.03
  Q 743.27 1079.40 674.86 1048.32
  A 1.30 1.29 -42.4 0 0 673.88 1048.28
  Q 663.73 1051.86 651.81 1054.09
  C 641.05 1056.11 630.84 1057.86 620.06 1058.16
  Q 604.84 1058.58 589.94 1057.20
  C 580.97 1056.38 572.65 1054.51 564.32 1051.78
  Q 541.51 1044.32 523.00 1033.75
  Q 519.17 1031.56 522.21 1034.76
  Q 527.77 1040.62 533.60 1046.15
  Q 539.97 1052.21 546.05 1057.71
  C 627.22 1131.30 732.31 1173.38 841.51 1180.86
  Q 845.51 1181.13 849.67 1181.44
  C 856.94 1181.97 864.31 1181.70 871.47 1182.07
  C 880.83 1182.55 889.50 1181.55 898.85 1181.79
  C 901.89 1181.87 904.85 1181.23 907.84 1181.16
  Q 910.40 1181.09 913.10 1180.91
  Q 997.01 1175.14 1075.19 1142.93
  Q 1151.14 1111.63 1212.19 1057.33
  Q 1233.58 1038.30 1238.70 1032.27
  C 1242.94 1027.28 1247.75 1022.49 1252.15 1017.52
  Q 1290.98 973.61 1317.35 921.64
  Q 1329.82 897.06 1338.15 872.45
  Q 1338.99 869.96 1339.60 867.28
  Q 1340.06 865.29 1338.22 864.40
  Q 1316.04 853.67 1288.42 838.63
  Q 1274.38 830.98 1259.19 823.66
  A 0.39 0.38 22.4 0 0 1258.66 823.87"
/>
<path stroke="#ffde80" vector-effect="non-scaling-stroke" d="
  M 892.84 227.51
  Q 891.27 227.23 889.85 227.67
  Q 888.68 228.03 889.86 228.37
  C 893.05 229.28 897.25 228.90 900.53 228.87
  Q 902.50 228.86 904.78 229.18
  Q 906.96 229.48 909.15 229.65
  Q 918.58 230.40 932.69 233.38
  Q 963.02 239.79 988.99 253.84
  Q 1000.44 260.03 1008.33 270.39
  Q 1015.73 280.12 1013.81 292.03
  Q 1013.40 294.58 1012.25 296.78
  Q 1006.47 307.85 995.32 312.99
  Q 995.01 313.13 995.12 313.45
  L 995.22 313.71
  Q 995.24 313.77 995.30 313.76
  Q 1003.28 311.80 1013.11 309.74
  Q 1026.98 306.83 1039.62 300.63
  C 1044.74 298.12 1051.21 291.11 1050.06 284.69
  Q 1048.89 278.14 1044.20 272.31
  Q 1035.42 261.40 1023.27 254.92
  Q 1015.68 250.88 1007.98 247.24
  Q 990.94 239.20 972.59 234.71
  Q 950.15 229.22 928.80 227.17
  C 925.21 226.83 921.61 226.91 918.00 226.75
  Q 914.04 226.58 910.02 226.75
  Q 903.52 227.03 896.95 226.84
  C 895.46 226.79 894.37 227.79 892.84 227.51"
/>
<path stroke="#ffde80" vector-effect="non-scaling-stroke" d="
  M 729.27 264.19
  L 729.12 263.98
  A 0.21 0.21 0.0 0 0 728.84 263.91
  Q 713.92 272.82 702.40 280.78
  Q 688.20 290.60 674.74 303.42
  Q 642.63 334.01 621.02 375.62
  C 618.21 381.03 616.14 386.74 614.38 392.70
  Q 612.71 398.38 613.01 406.99
  Q 613.14 410.92 615.23 413.16
  C 618.64 416.81 624.20 415.58 627.05 411.88
  Q 629.46 408.77 630.41 405.41
  Q 633.72 393.88 637.87 382.46
  Q 639.29 378.55 641.04 374.77
  Q 642.78 371.01 644.55 367.04
  Q 651.34 351.75 660.07 338.98
  C 668.02 327.36 676.97 315.34 686.74 304.50
  C 692.72 297.87 698.62 291.21 705.07 285.15
  Q 711.03 279.55 717.11 274.11
  Q 722.31 269.46 729.25 264.28
  Q 729.30 264.24 729.27 264.19"
/>
<path stroke="#ff8089" vector-effect="non-scaling-stroke" d="
  M 1171.58 416.28
  Q 1171.58 416.53 1171.81 416.43
  C 1179.70 412.97 1188.37 408.26 1193.00 400.96
  Q 1196.66 395.21 1197.10 388.01
  C 1197.20 386.44 1196.59 384.99 1196.51 383.36
  Q 1196.20 377.19 1192.74 374.69
  C 1189.59 372.41 1185.29 371.58 1181.31 372.19
  C 1177.86 372.72 1175.65 372.88 1171.98 374.67
  Q 1171.58 374.86 1171.58 375.30
  L 1171.58 416.28"
/>
<path stroke="#ff8089" vector-effect="non-scaling-stroke" d="
  M 787.84 462.09
  Q 787.39 462.27 787.44 462.75
  C 787.89 468.01 786.90 472.90 786.91 478.17
  Q 786.92 493.52 786.89 507.90
  Q 786.89 508.52 787.45 508.25
  C 799.66 502.38 808.42 493.76 812.60 480.67
  C 814.59 474.44 815.18 465.55 808.54 461.89
  C 801.92 458.25 794.72 459.29 787.84 462.09"
/>
<path stroke="#ff8089" vector-effect="non-scaling-stroke" d="
  M 546.62 569.96
  C 549.74 562.86 551.14 547.89 539.34 547.17
  Q 531.22 546.67 524.86 550.27
  Q 524.41 550.53 524.41 551.05
  L 524.39 587.48
  A 0.44 0.44 0.0 0 0 525.01 587.88
  C 534.21 583.79 542.37 579.64 546.62 569.96"
/>
<path stroke="#ff8089" vector-effect="non-scaling-stroke" d="
  M 524.78 659.96
  Q 533.24 656.35 541.74 651.17
  C 547.28 647.79 550.80 642.67 552.22 636.60
  C 552.82 634.02 552.58 631.51 552.69 628.94
  Q 552.83 625.98 551.74 623.48
  Q 546.04 610.37 530.58 614.55
  Q 527.53 615.38 524.91 616.78
  Q 524.40 617.05 524.40 617.63
  L 524.39 659.71
  A 0.28 0.27 -11.9 0 0 524.78 659.96"
/>
<path stroke="#ff5e0a" vector-effect="non-scaling-stroke" d="
  M 833.39 849.37
  A 0.24 0.24 0.0 0 0 833.55 849.74
  Q 834.23 849.85 834.64 849.41
  A 0.31 0.31 0.0 0 0 834.43 848.89
  Q 833.74 848.84 833.39 849.37"
/>
<path stroke="#ff8089" vector-effect="non-scaling-stroke" d="
  M 468.75 924.89
  C 474.00 927.21 479.92 928.88 485.69 928.26
  C 499.43 926.80 513.00 919.87 523.32 910.84
  Q 530.33 904.71 533.82 900.00
  Q 547.83 881.16 550.92 859.15
  Q 552.52 847.80 552.35 833.41
  Q 552.30 828.59 551.38 823.90
  C 549.98 816.68 548.53 811.50 543.69 805.44
  Q 540.57 801.54 536.97 799.60
  Q 532.61 797.25 527.33 796.64
  Q 524.61 796.33 521.55 796.11
  C 519.88 795.99 518.51 796.48 516.89 796.42
  Q 515.07 796.34 513.30 796.71
  Q 495.39 800.40 480.83 812.34
  C 475.66 816.58 471.26 821.72 467.28 826.98
  Q 458.14 839.06 454.36 852.99
  Q 453.04 857.87 451.98 863.08
  C 449.97 872.97 450.28 883.79 451.24 893.71
  Q 451.95 901.17 454.28 907.45
  C 456.45 913.30 462.42 922.10 468.75 924.89"
/>
<path stroke="#ffde80" vector-effect="non-scaling-stroke" d="
  M 1161.80 844.72
  C 1163.09 841.84 1164.69 837.59 1164.15 834.42
  Q 1163.17 828.74 1158.61 825.59
  Q 1156.20 823.91 1153.33 824.13
  C 1146.11 824.68 1141.27 830.02 1138.48 836.46
  C 1136.14 841.85 1133.96 847.48 1131.31 852.78
  Q 1119.69 876.03 1105.21 897.46
  Q 1097.21 909.29 1087.61 919.86
  Q 1082.36 925.63 1077.38 931.13
  Q 1073.27 935.65 1056.56 950.05
  Q 1038.46 965.66 1018.76 977.78
  Q 1016.60 979.11 1018.98 978.25
  Q 1023.81 976.52 1028.60 974.26
  Q 1041.48 968.20 1054.78 960.48
  Q 1079.17 946.33 1100.24 926.53
  Q 1129.91 898.64 1151.98 862.88
  Q 1158.16 852.87 1161.80 844.72"
/>
</g>
<path fill="#ffffff" d="
  M 1777.00 0.00
  L 1777.00 1342.00
  L 0.00 1342.00
  L 0.00 0.00
  L 1777.00 0.00
  Z
  M 1018.72 190.00
  Q 1020.12 190.47 1021.03 190.35
  Q 1024.00 189.95 1021.17 188.86
  Q 1015.36 186.63 1008.49 184.57
  Q 990.66 179.24 964.45 173.25
  C 946.55 169.16 928.82 166.83 910.50 165.26
  Q 901.78 164.51 895.06 164.48
  C 893.56 164.47 892.25 164.01 890.69 163.98
  C 871.71 163.66 850.15 163.26 830.01 164.95
  C 720.40 174.16 616.94 216.68 534.57 289.31
  C 529.94 293.39 524.15 299.05 518.82 303.81
  Q 511.24 310.58 493.87 330.05
  Q 438.23 392.40 406.06 470.80
  Q 373.96 549.04 368.30 637.04
  Q 368.18 639.01 368.23 640.96
  C 368.32 644.26 367.55 647.45 367.55 650.75
  Q 367.51 670.33 367.55 690.62
  Q 367.55 692.96 367.89 695.34
  C 368.42 699.03 368.17 702.81 368.42 706.57
  Q 372.14 761.81 385.83 814.54
  Q 385.99 815.15 386.30 814.61
  Q 391.30 805.83 396.74 797.48
  C 405.72 783.70 417.26 772.50 429.81 761.81
  Q 432.07 759.88 434.18 757.88
  A 1.49 1.46 -29.2 0 0 434.60 756.45
  Q 424.53 715.45 422.29 672.92
  C 422.02 667.63 422.21 662.30 421.68 657.07
  C 421.03 650.65 421.23 643.81 421.82 637.28
  C 422.21 632.99 421.99 628.60 422.21 624.21
  Q 424.23 584.78 433.17 545.63
  Q 448.65 477.83 482.31 418.17
  Q 517.62 355.58 569.80 306.03
  Q 643.59 235.95 739.09 201.25
  Q 798.67 179.59 863.89 174.59
  Q 873.26 173.87 884.36 173.69
  Q 903.71 173.37 918.19 174.04
  Q 954.28 175.70 992.42 183.82
  Q 1003.91 186.26 1016.49 189.35
  Q 1017.61 189.62 1018.72 190.00
  Z
  M 998.41 339.96
  Q 1048.48 328.69 1100.77 318.85
  Q 1109.23 317.26 1114.61 314.53
  C 1119.49 312.06 1123.34 307.58 1122.23 301.94
  Q 1121.31 297.26 1117.78 292.62
  C 1115.11 289.11 1112.39 285.47 1109.26 282.31
  C 1093.18 266.06 1073.26 253.32 1052.62 243.57
  C 1024.71 230.40 992.62 222.32 961.09 218.39
  Q 931.16 214.66 900.67 215.18
  C 894.09 215.29 887.65 215.75 881.01 216.04
  Q 863.57 216.80 839.02 220.63
  Q 824.83 222.85 810.49 225.50
  Q 799.22 227.58 788.33 230.63
  Q 757.61 239.25 732.92 250.72
  C 706.04 263.21 680.11 279.45 657.73 298.86
  C 647.58 307.66 636.81 318.42 628.42 328.32
  Q 620.98 337.10 613.30 346.58
  Q 606.51 354.97 600.72 364.58
  C 597.16 370.49 593.30 376.52 590.39 382.55
  Q 587.12 389.31 583.73 396.50
  Q 576.40 412.04 572.68 426.70
  Q 571.58 431.03 570.54 438.46
  C 569.87 443.23 570.46 448.87 575.05 451.14
  C 578.46 452.83 581.46 453.93 585.31 452.76
  Q 587.56 452.08 589.95 451.30
  Q 616.58 442.71 637.05 436.37
  Q 815.30 381.20 998.41 339.96
  Z
  M 1216.58 425.63
  C 1231.33 416.87 1242.06 402.64 1244.73 385.54
  Q 1245.34 381.61 1244.98 378.11
  C 1243.99 368.42 1241.45 359.86 1235.03 352.52
  Q 1222.20 337.89 1203.69 337.23
  C 1198.14 337.03 1192.39 337.09 1186.88 337.62
  Q 1159.68 340.22 1129.34 347.17
  A 2.30 2.29 -8.6 0 0 1127.56 349.58
  Q 1127.87 353.51 1127.41 356.96
  Q 1126.89 360.84 1126.89 364.77
  Q 1126.94 438.10 1126.91 510.01
  A 1.08 1.07 -88.6 0 0 1127.93 511.09
  Q 1130.20 511.22 1132.30 510.81
  Q 1140.58 509.21 1149.16 507.42
  C 1155.16 506.16 1163.56 503.59 1167.39 498.32
  C 1171.21 493.07 1172.32 487.13 1172.28 480.34
  Q 1172.19 461.64 1172.19 445.14
  Q 1172.19 443.62 1173.17 444.79
  Q 1188.18 462.98 1201.54 478.86
  Q 1208.44 487.06 1213.30 491.19
  Q 1221.57 498.21 1232.78 496.29
  C 1238.25 495.35 1242.12 492.33 1245.90 488.42
  Q 1247.67 486.58 1248.90 484.31
  C 1254.38 474.15 1251.19 464.66 1243.81 456.35
  Q 1234.45 445.82 1222.98 433.11
  Q 1219.66 429.43 1216.49 426.35
  Q 1216.07 425.94 1216.58 425.63
  Z
  M 1063.45 395.85
  Q 1081.31 393.05 1098.06 389.64
  C 1105.59 388.11 1112.52 384.55 1115.33 377.31
  Q 1116.59 374.08 1116.51 369.52
  Q 1116.33 359.66 1116.45 351.57
  A 1.17 1.17 0.0 0 0 1115.07 350.40
  Q 1101.22 352.97 1086.83 355.08
  Q 1078.51 356.29 1043.85 363.88
  C 1035.50 365.71 1026.61 366.62 1018.75 370.09
  Q 1018.25 370.31 1018.32 370.85
  C 1019.24 377.57 1017.90 383.96 1017.93 390.52
  Q 1018.05 418.20 1017.89 441.15
  C 1017.86 444.19 1017.32 447.27 1017.32 450.39
  Q 1017.33 491.25 1017.35 533.11
  A 1.74 1.74 0.0 0 0 1019.36 534.83
  Q 1038.94 531.68 1056.38 527.25
  Q 1078.92 521.53 1102.22 515.27
  C 1108.39 513.61 1113.10 511.67 1115.40 505.02
  Q 1117.06 500.22 1117.46 496.63
  Q 1117.76 493.96 1118.14 490.97
  Q 1118.50 488.19 1118.20 485.68
  Q 1117.68 481.27 1117.69 476.67
  A 1.69 1.69 0.0 0 0 1115.68 475.01
  C 1098.05 478.46 1080.80 481.80 1063.79 486.85
  A 0.40 0.40 0.0 0 1 1063.28 486.46
  L 1063.28 455.81
  A 0.84 0.84 0.0 0 1 1063.98 454.98
  Q 1077.69 452.53 1090.40 450.23
  Q 1099.30 448.62 1105.99 444.20
  C 1109.55 441.84 1111.35 437.26 1111.57 433.04
  Q 1112.04 423.80 1111.73 413.33
  Q 1111.69 411.86 1110.24 412.13
  L 1065.74 420.62
  Q 1065.18 420.72 1064.72 421.04
  Q 1064.35 421.28 1063.95 421.26
  A 0.70 0.70 0.0 0 1 1063.28 420.56
  L 1063.27 398.53
  Q 1063.27 397.99 1062.98 397.53
  Q 1062.69 397.06 1062.75 396.57
  Q 1062.83 395.95 1063.45 395.85
  Z
  M 962.90 488.02
  A 0.41 0.41 0.0 0 1 963.49 488.38
  C 963.56 495.16 964.25 502.38 961.93 508.88
  C 960.21 513.72 953.03 517.36 948.28 517.89
  C 940.19 518.81 933.12 518.66 926.63 513.03
  C 919.39 506.75 915.99 495.81 916.20 486.45
  C 916.35 480.05 915.76 473.72 916.95 467.50
  Q 918.13 461.31 920.34 455.14
  C 923.41 446.53 929.74 439.24 936.69 433.32
  C 948.28 423.45 966.30 424.64 980.69 426.12
  C 989.35 427.02 996.14 424.58 1002.18 418.27
  C 1006.13 414.16 1006.05 406.88 1005.25 401.59
  C 1003.51 390.14 992.14 383.31 981.23 382.05
  Q 968.05 380.53 954.48 381.38
  C 930.64 382.90 906.86 393.05 891.76 411.29
  Q 886.50 417.64 881.28 426.16
  C 877.64 432.12 874.86 439.21 872.49 445.91
  C 868.75 456.43 867.36 467.95 866.52 479.37
  Q 865.97 486.86 866.77 495.48
  Q 867.62 504.54 870.12 511.76
  Q 874.94 525.73 882.51 535.25
  Q 894.49 550.33 915.57 555.83
  C 924.03 558.04 933.30 558.13 941.74 557.40
  Q 949.23 556.75 962.16 553.13
  Q 973.83 549.86 983.57 544.59
  C 998.40 536.58 1006.68 521.18 1006.75 504.37
  Q 1006.87 473.35 1006.79 443.92
  Q 1006.78 442.37 1005.26 442.67
  Q 988.21 446.03 970.57 449.59
  C 965.71 450.57 960.99 452.02 956.04 452.93
  Q 948.14 454.38 940.71 456.13
  A 2.81 2.81 0.0 0 0 938.55 458.89
  Q 938.62 466.49 938.56 475.35
  Q 938.55 476.47 938.86 477.54
  C 939.39 479.36 939.21 481.01 939.94 482.88
  C 941.96 488.13 946.31 489.68 951.64 489.48
  Q 954.74 489.37 957.77 489.36
  Q 960.19 489.36 962.90 488.02
  Z
  M 833.98 514.26
  C 837.19 510.91 840.71 507.80 843.67 504.33
  Q 852.99 493.38 857.78 479.59
  Q 859.59 474.39 860.15 467.48
  Q 860.67 461.08 860.36 454.89
  C 859.66 440.81 849.55 428.85 836.42 424.45
  C 828.41 421.76 817.66 420.79 809.37 422.71
  Q 784.61 428.44 754.32 438.43
  C 750.31 439.75 746.12 440.82 742.27 442.56
  A 1.02 1.00 -12.3 0 0 741.67 443.48
  L 741.67 611.54
  A 1.14 1.13 -7.0 0 0 743.08 612.63
  Q 757.02 609.16 769.53 603.08
  C 778.40 598.77 784.32 593.26 786.69 583.97
  Q 787.72 579.91 787.68 575.02
  Q 787.55 558.29 787.63 536.11
  A 0.18 0.18 0.0 0 1 787.94 535.98
  Q 794.59 542.44 800.91 549.36
  C 806.08 555.03 812.26 560.20 817.82 565.82
  C 821.79 569.84 826.27 573.79 830.53 577.54
  C 839.90 585.78 853.47 583.49 861.92 575.11
  C 865.76 571.30 866.79 567.08 867.92 562.27
  Q 868.44 560.03 868.09 558.47
  Q 867.76 557.01 867.71 555.46
  Q 867.49 548.59 862.90 543.98
  Q 848.93 529.97 833.99 515.10
  Q 833.57 514.69 833.98 514.26
  Z
  M 728.70 468.05
  C 728.67 459.35 722.58 451.53 712.95 452.70
  Q 698.52 454.45 684.92 460.24
  A 1.61 1.61 0.0 0 0 683.94 461.66
  C 683.84 464.29 683.19 466.56 683.20 469.32
  Q 683.31 517.56 683.21 567.57
  Q 683.19 574.51 682.29 584.39
  C 681.31 595.13 674.95 603.25 663.53 603.01
  Q 654.52 602.82 652.99 594.14
  C 652.41 590.87 651.74 587.76 651.74 584.46
  Q 651.76 538.84 651.73 493.16
  Q 651.73 491.95 651.38 490.75
  C 650.67 488.26 650.30 485.94 648.78 483.77
  Q 643.19 475.85 633.18 477.92
  Q 619.14 480.82 606.71 486.89
  A 1.62 1.60 77.1 0 0 605.81 488.34
  Q 605.77 541.12 605.83 596.31
  Q 605.83 599.96 606.35 604.04
  Q 606.88 608.28 607.41 612.42
  Q 609.53 628.89 621.80 638.86
  C 629.08 644.77 638.04 646.60 647.19 646.92
  Q 659.65 647.34 671.65 643.48
  Q 678.93 641.14 685.41 638.43
  Q 692.20 635.60 701.31 629.33
  C 711.67 622.20 719.92 610.90 723.82 598.71
  Q 726.27 591.08 727.47 580.73
  Q 729.33 564.65 729.27 551.45
  Q 729.21 535.43 729.19 519.72
  C 729.19 518.89 728.86 518.06 728.81 517.22
  Q 728.29 509.16 728.73 500.87
  Q 729.18 492.44 729.20 485.56
  Q 729.22 478.07 729.18 470.16
  C 729.17 469.41 728.70 468.69 728.70 468.05
  Z
  M 1231.09 626.72
  Q 1231.64 627.68 1232.47 628.77
  Q 1266.27 673.32 1297.03 713.29
  Q 1299.64 716.69 1302.77 720.55
  C 1309.92 729.36 1317.27 734.52 1329.15 737.03
  C 1332.78 737.80 1336.58 737.42 1340.27 737.54
  C 1347.17 737.77 1354.56 735.10 1359.26 730.58
  Q 1369.80 720.42 1369.80 705.60
  Q 1369.77 595.69 1369.79 493.35
  A 0.76 0.76 0.0 0 0 1369.00 492.59
  Q 1348.74 493.35 1330.56 496.98
  Q 1325.56 497.98 1319.32 501.50
  C 1308.65 507.54 1304.11 520.76 1304.13 532.35
  Q 1304.22 574.12 1304.19 611.61
  Q 1304.18 612.69 1303.53 611.83
  Q 1276.11 576.22 1249.83 541.61
  C 1242.76 532.29 1236.96 522.43 1226.41 516.55
  Q 1223.08 514.70 1219.88 514.41
  C 1213.68 513.87 1207.56 514.65 1201.23 515.92
  Q 1187.82 518.60 1174.42 520.65
  C 1170.95 521.19 1167.58 522.03 1164.17 522.92
  Q 1163.71 523.03 1163.71 523.51
  L 1163.71 763.78
  Q 1163.71 764.30 1164.23 764.34
  Q 1165.61 764.45 1167.79 764.10
  Q 1189.05 760.68 1204.42 756.09
  C 1216.24 752.57 1225.49 745.11 1229.29 733.06
  Q 1230.82 728.23 1230.75 714.77
  Q 1230.54 671.16 1230.69 626.83
  Q 1230.69 626.02 1231.09 626.72
  Z
  M 573.62 588.56
  Q 572.37 588.36 573.40 587.62
  Q 596.52 571.07 595.85 541.65
  Q 595.81 539.96 595.49 538.29
  C 594.91 535.34 594.59 532.40 593.55 529.62
  Q 590.96 522.78 584.82 517.11
  Q 573.31 506.51 558.82 507.82
  Q 547.78 508.83 537.75 512.31
  C 529.48 515.19 521.36 517.67 513.29 520.96
  Q 495.30 528.30 477.74 535.92
  A 0.92 0.91 -11.8 0 0 477.18 536.76
  L 477.18 717.00
  Q 477.18 717.89 478.00 717.55
  Q 505.49 706.15 533.51 694.50
  C 544.03 690.13 554.12 685.39 563.92 680.16
  Q 573.95 674.81 580.39 669.24
  Q 591.91 659.30 599.48 643.78
  C 602.96 636.64 602.61 629.05 602.55 621.36
  C 602.53 618.63 601.75 615.87 601.00 613.28
  Q 594.86 591.98 573.62 588.56
  Z
  M 1064.21 730.74
  Q 1063.89 730.81 1063.89 730.48
  L 1063.89 683.53
  A 0.41 0.41 0.0 0 1 1064.23 683.13
  Q 1081.66 679.97 1101.58 675.22
  Q 1110.51 673.09 1119.38 669.66
  Q 1132.95 664.42 1134.62 650.75
  C 1134.84 648.94 1134.61 647.05 1135.01 645.35
  Q 1135.46 643.41 1135.46 641.49
  Q 1135.47 630.02 1135.46 618.51
  A 0.65 0.64 81.2 0 0 1134.62 617.89
  Q 1130.93 619.06 1126.24 620.14
  Q 1093.76 627.58 1065.18 634.08
  A 1.04 1.00 16.4 0 0 1064.68 634.34
  Q 1064.24 634.77 1063.74 634.51
  Q 1063.28 634.26 1063.28 633.74
  L 1063.28 596.79
  Q 1063.28 596.32 1063.74 596.30
  C 1064.41 596.26 1064.83 596.37 1065.52 596.22
  Q 1084.29 592.19 1102.21 588.01
  Q 1116.83 584.60 1126.30 580.54
  C 1133.93 577.26 1138.64 572.45 1140.04 564.00
  Q 1140.64 560.38 1140.67 556.95
  Q 1140.78 543.40 1140.70 529.23
  A 0.53 0.53 0.0 0 0 1139.97 528.74
  Q 1138.62 529.28 1137.04 529.50
  Q 1125.53 531.13 1111.80 533.99
  Q 1061.50 544.49 1014.55 557.07
  Q 1006.60 559.20 997.96 561.73
  A 1.39 1.38 81.9 0 0 996.97 563.06
  L 996.97 802.25
  A 1.06 1.06 0.0 0 0 998.29 803.28
  Q 1046.07 791.29 1093.78 779.42
  C 1104.01 776.88 1114.93 775.38 1125.29 771.78
  C 1136.46 767.90 1141.64 760.09 1143.28 748.98
  Q 1144.02 743.95 1144.02 740.75
  Q 1144.05 727.05 1144.04 714.09
  A 1.15 1.15 0.0 0 0 1142.64 712.97
  L 1064.21 730.74
  Z
  M 899.82 774.97
  L 899.81 728.45
  Q 899.81 727.87 900.38 727.74
  Q 921.71 722.80 944.60 716.09
  Q 953.74 713.42 959.55 709.78
  C 968.63 704.08 971.63 691.85 971.94 681.20
  Q 972.22 671.42 972.04 659.78
  A 0.51 0.51 0.0 0 0 971.40 659.30
  Q 953.49 664.20 934.46 669.24
  C 922.90 672.31 911.79 675.90 900.37 679.16
  A 0.44 0.43 82.0 0 1 899.82 678.74
  L 899.81 641.71
  Q 899.81 641.15 900.37 641.05
  Q 903.16 640.55 905.75 639.87
  Q 922.76 635.37 940.20 630.16
  C 953.40 626.21 970.67 624.35 975.73 608.70
  Q 977.71 602.55 977.80 597.69
  Q 978.04 583.38 977.93 568.48
  Q 977.92 567.05 976.53 567.39
  Q 963.59 570.60 952.68 573.44
  C 937.46 577.41 920.23 583.57 903.94 588.00
  Q 878.92 594.80 850.98 603.49
  Q 841.63 606.40 832.53 609.61
  Q 832.21 609.72 832.21 610.05
  Q 832.26 730.29 832.22 850.62
  Q 832.22 850.94 832.35 851.23
  Q 832.69 852.03 833.54 851.81
  Q 848.11 848.07 863.90 842.99
  Q 874.78 839.48 882.98 837.07
  C 897.00 832.93 910.47 828.63 924.79 824.85
  Q 936.98 821.63 948.40 817.68
  Q 956.97 814.72 963.84 811.36
  Q 976.14 805.37 979.39 791.39
  C 979.95 788.96 980.55 786.29 980.56 783.82
  Q 980.61 767.93 980.58 752.35
  A 0.59 0.59 0.0 0 0 979.62 751.89
  Q 978.91 752.48 977.94 752.69
  Q 977.33 752.83 976.72 753.01
  Q 936.16 764.91 900.37 775.38
  Q 899.82 775.54 899.82 774.97
  Z
  M 682.78 663.09
  Q 678.19 664.07 673.66 665.76
  Q 658.73 671.34 644.22 677.26
  A 2.68 2.67 78.9 0 0 642.56 679.74
  Q 642.60 754.86 642.54 830.66
  Q 642.53 835.30 642.95 839.91
  Q 643.40 844.80 643.91 849.30
  Q 645.34 861.90 650.93 872.77
  C 657.33 885.25 670.78 894.44 684.15 897.33
  C 703.79 901.57 724.60 896.87 742.52 888.79
  Q 752.19 884.43 762.15 878.99
  C 783.79 867.17 799.95 848.15 806.85 824.51
  Q 812.53 805.03 812.54 784.40
  Q 812.55 711.79 812.58 644.36
  C 812.58 640.20 811.67 636.14 810.17 632.25
  Q 807.66 625.71 801.06 623.63
  C 798.52 622.83 793.78 623.11 791.13 623.70
  Q 784.61 625.13 777.17 627.79
  Q 763.70 632.60 750.97 637.09
  Q 749.55 637.59 749.55 639.10
  Q 749.54 658.26 749.57 676.26
  C 749.58 685.56 750.28 695.41 750.25 705.40
  Q 750.14 754.01 750.24 801.51
  C 750.24 805.56 748.90 809.44 748.06 813.37
  Q 744.26 831.14 727.02 835.36
  C 723.52 836.21 720.17 835.86 716.76 834.80
  Q 709.51 832.55 707.62 824.32
  Q 706.18 818.05 706.18 811.00
  Q 706.20 750.75 706.15 692.50
  Q 706.14 684.42 705.23 676.71
  Q 704.29 668.81 698.47 664.68
  Q 695.56 662.61 691.12 662.45
  Q 686.58 662.28 682.78 663.09
  Z
  M 558.74 961.21
  A 0.39 0.38 -48.2 0 1 558.71 960.63
  C 560.85 958.54 563.32 956.90 565.38 954.73
  C 570.36 949.50 575.98 945.14 580.77 939.75
  C 591.63 927.53 600.98 915.05 608.03 900.94
  C 609.66 897.68 611.81 894.71 613.11 891.35
  Q 616.58 882.37 619.62 873.45
  C 626.60 853.00 628.25 830.09 627.28 808.27
  C 627.24 807.39 626.84 806.36 626.84 805.31
  Q 626.83 797.74 625.07 790.57
  Q 621.24 774.93 615.02 763.21
  Q 612.42 758.31 608.13 753.33
  Q 590.01 732.33 560.61 728.82
  Q 547.18 727.21 538.27 727.73
  Q 523.99 728.57 507.77 733.77
  C 502.37 735.51 496.87 736.71 491.55 738.67
  Q 477.33 743.93 465.16 751.08
  Q 452.74 758.38 439.07 768.80
  Q 423.04 781.02 411.53 796.57
  Q 400.46 811.52 393.76 825.21
  C 391.52 829.77 389.14 834.34 387.19 839.00
  Q 377.70 861.62 374.78 888.42
  C 373.87 896.79 374.04 905.31 374.23 913.60
  Q 374.46 923.80 377.61 936.65
  Q 380.30 947.62 386.94 959.44
  C 398.35 979.72 417.23 992.77 440.84 995.18
  Q 466.83 997.84 493.51 992.18
  Q 494.56 991.96 495.32 992.73
  Q 500.94 998.50 506.75 1004.36
  C 520.60 1018.33 537.29 1029.28 555.33 1035.74
  Q 571.31 1041.48 590.64 1044.90
  Q 599.74 1046.51 609.59 1046.63
  Q 636.01 1046.93 659.74 1039.86
  C 668.50 1037.25 676.63 1031.76 680.48 1023.30
  Q 685.46 1012.37 683.47 1000.82
  C 682.01 992.29 675.55 984.25 668.03 979.97
  C 660.32 975.57 649.28 978.31 640.93 980.09
  C 615.83 985.45 588.55 982.58 567.28 968.40
  C 564.16 966.31 561.68 963.53 558.74 961.21
  Z
  M 1268.38 772.23
  A 0.35 0.35 0.0 0 1 1268.73 772.58
  L 1268.72 806.72
  A 0.35 0.35 0.0 0 0 1269.07 807.07
  L 1279.48 807.07
  A 0.35 0.35 0.0 0 0 1279.83 806.72
  L 1279.85 772.59
  A 0.35 0.35 0.0 0 1 1280.20 772.24
  L 1295.93 772.29
  A 0.35 0.35 0.0 0 0 1296.28 771.94
  L 1296.27 765.41
  A 0.35 0.35 0.0 0 0 1295.92 765.06
  L 1252.67 765.05
  A 0.35 0.35 0.0 0 0 1252.32 765.40
  L 1252.29 771.92
  A 0.35 0.35 0.0 0 0 1252.64 772.27
  L 1268.38 772.23
  Z
  M 1313.43 776.19
  Q 1313.49 777.32 1313.76 778.15
  Q 1317.02 788.17 1320.69 799.29
  C 1321.46 801.61 1322.52 803.65 1322.70 806.04
  A 1.10 1.10 0.0 0 0 1323.80 807.07
  L 1332.86 807.06
  Q 1333.38 807.06 1333.75 806.72
  C 1334.54 806.00 1334.30 804.54 1334.69 803.47
  Q 1339.89 789.12 1343.57 775.18
  Q 1343.66 774.86 1343.99 774.82
  Q 1344.32 774.77 1344.31 775.12
  Q 1344.12 791.08 1344.24 806.60
  Q 1344.24 807.08 1344.72 807.08
  L 1352.20 807.07
  Q 1352.72 807.07 1352.72 806.55
  L 1352.72 765.75
  Q 1352.72 765.03 1352.00 765.03
  L 1340.19 765.05
  Q 1338.87 765.06 1338.48 766.31
  Q 1334.83 777.80 1330.46 790.89
  Q 1329.76 792.98 1329.34 795.16
  Q 1328.79 797.91 1327.91 795.25
  L 1318.37 766.40
  A 1.97 1.95 -8.9 0 0 1316.52 765.06
  L 1302.72 765.02
  A 0.51 0.51 0.0 0 0 1302.21 765.53
  L 1302.20 806.64
  A 0.45 0.44 90.0 0 0 1302.64 807.09
  L 1311.95 807.06
  Q 1312.71 807.06 1312.71 806.30
  L 1312.64 775.96
  Q 1312.64 775.85 1312.73 775.78
  Q 1312.84 775.70 1312.99 775.72
  Q 1313.41 775.76 1313.43 776.19
  Z
  M 934.38 855.55
  Q 853.75 878.62 778.82 905.32
  Q 771.98 907.76 748.91 916.41
  Q 725.38 925.23 703.62 934.19
  Q 703.57 934.21 696.93 936.78
  C 691.81 938.76 686.21 941.44 681.64 944.42
  Q 677.63 947.05 676.29 951.92
  Q 672.79 964.62 682.55 973.37
  Q 695.50 984.97 709.98 992.17
  Q 726.95 1000.61 740.17 1005.21
  Q 755.37 1010.49 768.30 1013.68
  Q 776.73 1015.76 785.12 1017.72
  C 804.20 1022.20 823.44 1024.98 843.35 1026.68
  Q 844.80 1026.81 846.28 1026.79
  C 849.23 1026.76 851.88 1027.53 854.84 1027.53
  Q 870.91 1027.57 886.32 1027.55
  C 888.54 1027.54 890.51 1026.80 892.75 1026.84
  Q 895.42 1026.89 897.99 1026.63
  Q 965.30 1019.80 1026.83 993.81
  Q 1035.01 990.35 1044.37 985.84
  C 1073.62 971.73 1101.67 954.17 1125.38 932.90
  Q 1146.05 914.36 1159.83 897.09
  Q 1169.96 884.40 1183.70 863.59
  Q 1188.08 856.96 1192.45 848.12
  C 1197.16 838.58 1201.46 830.28 1205.04 820.52
  Q 1207.30 814.36 1208.64 807.62
  Q 1209.38 803.87 1207.98 800.98
  Q 1205.99 796.85 1202.25 795.47
  Q 1199.63 794.50 1195.23 795.14
  Q 1158.89 800.45 1122.34 808.26
  C 1118.52 809.07 1114.36 809.58 1110.46 810.42
  Q 1036.85 826.23 934.38 855.55
  Z
  M 1258.66 823.87
  Q 1237.69 882.79 1197.85 931.90
  Q 1188.40 943.56 1180.13 952.20
  C 1171.43 961.31 1162.56 970.28 1153.07 978.71
  C 1112.97 1014.36 1066.40 1041.30 1015.00 1060.16
  Q 992.16 1068.54 969.91 1073.63
  C 940.58 1080.33 912.00 1085.21 882.10 1086.88
  C 874.64 1087.30 867.08 1087.09 859.73 1087.69
  C 854.36 1088.12 848.92 1087.29 843.49 1087.24
  Q 831.76 1087.13 819.19 1086.03
  Q 743.27 1079.40 674.86 1048.32
  A 1.30 1.29 -42.4 0 0 673.88 1048.28
  Q 663.73 1051.86 651.81 1054.09
  C 641.05 1056.11 630.84 1057.86 620.06 1058.16
  Q 604.84 1058.58 589.94 1057.20
  C 580.97 1056.38 572.65 1054.51 564.32 1051.78
  Q 541.51 1044.32 523.00 1033.75
  Q 519.17 1031.56 522.21 1034.76
  Q 527.77 1040.62 533.60 1046.15
  Q 539.97 1052.21 546.05 1057.71
  C 627.22 1131.30 732.31 1173.38 841.51 1180.86
  Q 845.51 1181.13 849.67 1181.44
  C 856.94 1181.97 864.31 1181.70 871.47 1182.07
  C 880.83 1182.55 889.50 1181.55 898.85 1181.79
  C 901.89 1181.87 904.85 1181.23 907.84 1181.16
  Q 910.40 1181.09 913.10 1180.91
  Q 997.01 1175.14 1075.19 1142.93
  Q 1151.14 1111.63 1212.19 1057.33
  Q 1233.58 1038.30 1238.70 1032.27
  C 1242.94 1027.28 1247.75 1022.49 1252.15 1017.52
  Q 1290.98 973.61 1317.35 921.64
  Q 1329.82 897.06 1338.15 872.45
  Q 1338.99 869.96 1339.60 867.28
  Q 1340.06 865.29 1338.22 864.40
  Q 1316.04 853.67 1288.42 838.63
  Q 1274.38 830.98 1259.19 823.66
  A 0.39 0.38 22.4 0 0 1258.66 823.87
  Z"
/>
<path fill="#0061af" d="
  M 1016.49 189.35
  Q 1003.91 186.26 992.42 183.82
  Q 954.28 175.70 918.19 174.04
  Q 903.71 173.37 884.36 173.69
  Q 873.26 173.87 863.89 174.59
  Q 798.67 179.59 739.09 201.25
  Q 643.59 235.95 569.80 306.03
  Q 517.62 355.58 482.31 418.17
  Q 448.65 477.83 433.17 545.63
  Q 424.23 584.78 422.21 624.21
  C 421.99 628.60 422.21 632.99 421.82 637.28
  C 421.23 643.81 421.03 650.65 421.68 657.07
  C 422.21 662.30 422.02 667.63 422.29 672.92
  Q 424.53 715.45 434.60 756.45
  A 1.49 1.46 -29.2 0 1 434.18 757.88
  Q 432.07 759.88 429.81 761.81
  C 417.26 772.50 405.72 783.70 396.74 797.48
  Q 391.30 805.83 386.30 814.61
  Q 385.99 815.15 385.83 814.54
  Q 372.14 761.81 368.42 706.57
  C 368.17 702.81 368.42 699.03 367.89 695.34
  Q 367.55 692.96 367.55 690.62
  Q 367.51 670.33 367.55 650.75
  C 367.55 647.45 368.32 644.26 368.23 640.96
  Q 368.18 639.01 368.30 637.04
  Q 373.96 549.04 406.06 470.80
  Q 438.23 392.40 493.87 330.05
  Q 511.24 310.58 518.82 303.81
  C 524.15 299.05 529.94 293.39 534.57 289.31
  C 616.94 216.68 720.40 174.16 830.01 164.95
  C 850.15 163.26 871.71 163.66 890.69 163.98
  C 892.25 164.01 893.56 164.47 895.06 164.48
  Q 901.78 164.51 910.50 165.26
  C 928.82 166.83 946.55 169.16 964.45 173.25
  Q 990.66 179.24 1008.49 184.57
  Q 1015.36 186.63 1021.17 188.86
  Q 1024.00 189.95 1021.03 190.35
  Q 1020.12 190.47 1018.72 190.00
  Q 1017.61 189.62 1016.49 189.35
  Z"
/>
<path fill="#ffbc00" d="
  M 998.41 339.96
  Q 815.30 381.20 637.05 436.37
  Q 616.58 442.71 589.95 451.30
  Q 587.56 452.08 585.31 452.76
  C 581.46 453.93 578.46 452.83 575.05 451.14
  C 570.46 448.87 569.87 443.23 570.54 438.46
  Q 571.58 431.03 572.68 426.70
  Q 576.40 412.04 583.73 396.50
  Q 587.12 389.31 590.39 382.55
  C 593.30 376.52 597.16 370.49 600.72 364.58
  Q 606.51 354.97 613.30 346.58
  Q 620.98 337.10 628.42 328.32
  C 636.81 318.42 647.58 307.66 657.73 298.86
  C 680.11 279.45 706.04 263.21 732.92 250.72
  Q 757.61 239.25 788.33 230.63
  Q 799.22 227.58 810.49 225.50
  Q 824.83 222.85 839.02 220.63
  Q 863.57 216.80 881.01 216.04
  C 887.65 215.75 894.09 215.29 900.67 215.18
  Q 931.16 214.66 961.09 218.39
  C 992.62 222.32 1024.71 230.40 1052.62 243.57
  C 1073.26 253.32 1093.18 266.06 1109.26 282.31
  C 1112.39 285.47 1115.11 289.11 1117.78 292.62
  Q 1121.31 297.26 1122.23 301.94
  C 1123.34 307.58 1119.49 312.06 1114.61 314.53
  Q 1109.23 317.26 1100.77 318.85
  Q 1048.48 328.69 998.41 339.96
  Z
  M 892.84 227.51
  Q 891.27 227.23 889.85 227.67
  Q 888.68 228.03 889.86 228.37
  C 893.05 229.28 897.25 228.90 900.53 228.87
  Q 902.50 228.86 904.78 229.18
  Q 906.96 229.48 909.15 229.65
  Q 918.58 230.40 932.69 233.38
  Q 963.02 239.79 988.99 253.84
  Q 1000.44 260.03 1008.33 270.39
  Q 1015.73 280.12 1013.81 292.03
  Q 1013.40 294.58 1012.25 296.78
  Q 1006.47 307.85 995.32 312.99
  Q 995.01 313.13 995.12 313.45
  L 995.22 313.71
  Q 995.24 313.77 995.30 313.76
  Q 1003.28 311.80 1013.11 309.74
  Q 1026.98 306.83 1039.62 300.63
  C 1044.74 298.12 1051.21 291.11 1050.06 284.69
  Q 1048.89 278.14 1044.20 272.31
  Q 1035.42 261.40 1023.27 254.92
  Q 1015.68 250.88 1007.98 247.24
  Q 990.94 239.20 972.59 234.71
  Q 950.15 229.22 928.80 227.17
  C 925.21 226.83 921.61 226.91 918.00 226.75
  Q 914.04 226.58 910.02 226.75
  Q 903.52 227.03 896.95 226.84
  C 895.46 226.79 894.37 227.79 892.84 227.51
  Z
  M 729.27 264.19
  L 729.12 263.98
  A 0.21 0.21 0.0 0 0 728.84 263.91
  Q 713.92 272.82 702.40 280.78
  Q 688.20 290.60 674.74 303.42
  Q 642.63 334.01 621.02 375.62
  C 618.21 381.03 616.14 386.74 614.38 392.70
  Q 612.71 398.38 613.01 406.99
  Q 613.14 410.92 615.23 413.16
  C 618.64 416.81 624.20 415.58 627.05 411.88
  Q 629.46 408.77 630.41 405.41
  Q 633.72 393.88 637.87 382.46
  Q 639.29 378.55 641.04 374.77
  Q 642.78 371.01 644.55 367.04
  Q 651.34 351.75 660.07 338.98
  C 668.02 327.36 676.97 315.34 686.74 304.50
  C 692.72 297.87 698.62 291.21 705.07 285.15
  Q 711.03 279.55 717.11 274.11
  Q 722.31 269.46 729.25 264.28
  Q 729.30 264.24 729.27 264.19
  Z"
/>
<path fill="#ffffff" d="
  M 892.84 227.51
  C 894.37 227.79 895.46 226.79 896.95 226.84
  Q 903.52 227.03 910.02 226.75
  Q 914.04 226.58 918.00 226.75
  C 921.61 226.91 925.21 226.83 928.80 227.17
  Q 950.15 229.22 972.59 234.71
  Q 990.94 239.20 1007.98 247.24
  Q 1015.68 250.88 1023.27 254.92
  Q 1035.42 261.40 1044.20 272.31
  Q 1048.89 278.14 1050.06 284.69
  C 1051.21 291.11 1044.74 298.12 1039.62 300.63
  Q 1026.98 306.83 1013.11 309.74
  Q 1003.28 311.80 995.30 313.76
  Q 995.24 313.77 995.22 313.71
  L 995.12 313.45
  Q 995.01 313.13 995.32 312.99
  Q 1006.47 307.85 1012.25 296.78
  Q 1013.40 294.58 1013.81 292.03
  Q 1015.73 280.12 1008.33 270.39
  Q 1000.44 260.03 988.99 253.84
  Q 963.02 239.79 932.69 233.38
  Q 918.58 230.40 909.15 229.65
  Q 906.96 229.48 904.78 229.18
  Q 902.50 228.86 900.53 228.87
  C 897.25 228.90 893.05 229.28 889.86 228.37
  Q 888.68 228.03 889.85 227.67
  Q 891.27 227.23 892.84 227.51
  Z"
/>
<path fill="#ffffff" d="
  M 729.27 264.19
  Q 729.30 264.24 729.25 264.28
  Q 722.31 269.46 717.11 274.11
  Q 711.03 279.55 705.07 285.15
  C 698.62 291.21 692.72 297.87 686.74 304.50
  C 676.97 315.34 668.02 327.36 660.07 338.98
  Q 651.34 351.75 644.55 367.04
  Q 642.78 371.01 641.04 374.77
  Q 639.29 378.55 637.87 382.46
  Q 633.72 393.88 630.41 405.41
  Q 629.46 408.77 627.05 411.88
  C 624.20 415.58 618.64 416.81 615.23 413.16
  Q 613.14 410.92 613.01 406.99
  Q 612.71 398.38 614.38 392.70
  C 616.14 386.74 618.21 381.03 621.02 375.62
  Q 642.63 334.01 674.74 303.42
  Q 688.20 290.60 702.40 280.78
  Q 713.92 272.82 728.84 263.91
  A 0.21 0.21 0.0 0 1 729.12 263.98
  L 729.27 264.19
  Z"
/>
<path fill="#ff0013" d="
  M 1216.49 426.35
  Q 1219.66 429.43 1222.98 433.11
  Q 1234.45 445.82 1243.81 456.35
  C 1251.19 464.66 1254.38 474.15 1248.90 484.31
  Q 1247.67 486.58 1245.90 488.42
  C 1242.12 492.33 1238.25 495.35 1232.78 496.29
  Q 1221.57 498.21 1213.30 491.19
  Q 1208.44 487.06 1201.54 478.86
  Q 1188.18 462.98 1173.17 444.79
  Q 1172.19 443.62 1172.19 445.14
  Q 1172.19 461.64 1172.28 480.34
  C 1172.32 487.13 1171.21 493.07 1167.39 498.32
  C 1163.56 503.59 1155.16 506.16 1149.16 507.42
  Q 1140.58 509.21 1132.30 510.81
  Q 1130.20 511.22 1127.93 511.09
  A 1.08 1.07 -88.6 0 1 1126.91 510.01
  Q 1126.94 438.10 1126.89 364.77
  Q 1126.89 360.84 1127.41 356.96
  Q 1127.87 353.51 1127.56 349.58
  A 2.30 2.29 -8.6 0 1 1129.34 347.17
  Q 1159.68 340.22 1186.88 337.62
  C 1192.39 337.09 1198.14 337.03 1203.69 337.23
  Q 1222.20 337.89 1235.03 352.52
  C 1241.45 359.86 1243.99 368.42 1244.98 378.11
  Q 1245.34 381.61 1244.73 385.54
  C 1242.06 402.64 1231.33 416.87 1216.58 425.63
  Q 1216.07 425.94 1216.49 426.35
  Z
  M 1171.58 416.28
  Q 1171.58 416.53 1171.81 416.43
  C 1179.70 412.97 1188.37 408.26 1193.00 400.96
  Q 1196.66 395.21 1197.10 388.01
  C 1197.20 386.44 1196.59 384.99 1196.51 383.36
  Q 1196.20 377.19 1192.74 374.69
  C 1189.59 372.41 1185.29 371.58 1181.31 372.19
  C 1177.86 372.72 1175.65 372.88 1171.98 374.67
  Q 1171.58 374.86 1171.58 375.30
  L 1171.58 416.28
  Z"
/>
<path fill="#ff0013" d="
  M 1062.75 396.57
  Q 1062.69 397.06 1062.98 397.53
  Q 1063.27 397.99 1063.27 398.53
  L 1063.28 420.56
  A 0.70 0.70 0.0 0 0 1063.95 421.26
  Q 1064.35 421.28 1064.72 421.04
  Q 1065.18 420.72 1065.74 420.62
  L 1110.24 412.13
  Q 1111.69 411.86 1111.73 413.33
  Q 1112.04 423.80 1111.57 433.04
  C 1111.35 437.26 1109.55 441.84 1105.99 444.20
  Q 1099.30 448.62 1090.40 450.23
  Q 1077.69 452.53 1063.98 454.98
  A 0.84 0.84 0.0 0 0 1063.28 455.81
  L 1063.28 486.46
  A 0.40 0.40 0.0 0 0 1063.79 486.85
  C 1080.80 481.80 1098.05 478.46 1115.68 475.01
  A 1.69 1.69 0.0 0 1 1117.69 476.67
  Q 1117.68 481.27 1118.20 485.68
  Q 1118.50 488.19 1118.14 490.97
  Q 1117.76 493.96 1117.46 496.63
  Q 1117.06 500.22 1115.40 505.02
  C 1113.10 511.67 1108.39 513.61 1102.22 515.27
  Q 1078.92 521.53 1056.38 527.25
  Q 1038.94 531.68 1019.36 534.83
  A 1.74 1.74 0.0 0 1 1017.35 533.11
  Q 1017.33 491.25 1017.32 450.39
  C 1017.32 447.27 1017.86 444.19 1017.89 441.15
  Q 1018.05 418.20 1017.93 390.52
  C 1017.90 383.96 1019.24 377.57 1018.32 370.85
  Q 1018.25 370.31 1018.75 370.09
  C 1026.61 366.62 1035.50 365.71 1043.85 363.88
  Q 1078.51 356.29 1086.83 355.08
  Q 1101.22 352.97 1115.07 350.40
  A 1.17 1.17 0.0 0 1 1116.45 351.57
  Q 1116.33 359.66 1116.51 369.52
  Q 1116.59 374.08 1115.33 377.31
  C 1112.52 384.55 1105.59 388.11 1098.06 389.64
  Q 1081.31 393.05 1063.45 395.85
  Q 1062.83 395.95 1062.75 396.57
  Z"
/>
<path fill="#ffffff" d="
  M 1171.58 416.28
  L 1171.58 375.30
  Q 1171.58 374.86 1171.98 374.67
  C 1175.65 372.88 1177.86 372.72 1181.31 372.19
  C 1185.29 371.58 1189.59 372.41 1192.74 374.69
  Q 1196.20 377.19 1196.51 383.36
  C 1196.59 384.99 1197.20 386.44 1197.10 388.01
  Q 1196.66 395.21 1193.00 400.96
  C 1188.37 408.26 1179.70 412.97 1171.81 416.43
  Q 1171.58 416.53 1171.58 416.28
  Z"
/>
<path fill="#ff0013" d="
  M 962.90 488.02
  Q 960.19 489.36 957.77 489.36
  Q 954.74 489.37 951.64 489.48
  C 946.31 489.68 941.96 488.13 939.94 482.88
  C 939.21 481.01 939.39 479.36 938.86 477.54
  Q 938.55 476.47 938.56 475.35
  Q 938.62 466.49 938.55 458.89
  A 2.81 2.81 0.0 0 1 940.71 456.13
  Q 948.14 454.38 956.04 452.93
  C 960.99 452.02 965.71 450.57 970.57 449.59
  Q 988.21 446.03 1005.26 442.67
  Q 1006.78 442.37 1006.79 443.92
  Q 1006.87 473.35 1006.75 504.37
  C 1006.68 521.18 998.40 536.58 983.57 544.59
  Q 973.83 549.86 962.16 553.13
  Q 949.23 556.75 941.74 557.40
  C 933.30 558.13 924.03 558.04 915.57 555.83
  Q 894.49 550.33 882.51 535.25
  Q 874.94 525.73 870.12 511.76
  Q 867.62 504.54 866.77 495.48
  Q 865.97 486.86 866.52 479.37
  C 867.36 467.95 868.75 456.43 872.49 445.91
  C 874.86 439.21 877.64 432.12 881.28 426.16
  Q 886.50 417.64 891.76 411.29
  C 906.86 393.05 930.64 382.90 954.48 381.38
  Q 968.05 380.53 981.23 382.05
  C 992.14 383.31 1003.51 390.14 1005.25 401.59
  C 1006.05 406.88 1006.13 414.16 1002.18 418.27
  C 996.14 424.58 989.35 427.02 980.69 426.12
  C 966.30 424.64 948.28 423.45 936.69 433.32
  C 929.74 439.24 923.41 446.53 920.34 455.14
  Q 918.13 461.31 916.95 467.50
  C 915.76 473.72 916.35 480.05 916.20 486.45
  C 915.99 495.81 919.39 506.75 926.63 513.03
  C 933.12 518.66 940.19 518.81 948.28 517.89
  C 953.03 517.36 960.21 513.72 961.93 508.88
  C 964.25 502.38 963.56 495.16 963.49 488.38
  A 0.41 0.41 0.0 0 0 962.90 488.02
  Z"
/>
<path fill="#ff0013" d="
  M 833.99 515.10
  Q 848.93 529.97 862.90 543.98
  Q 867.49 548.59 867.71 555.46
  Q 867.76 557.01 868.09 558.47
  Q 868.44 560.03 867.92 562.27
  C 866.79 567.08 865.76 571.30 861.92 575.11
  C 853.47 583.49 839.90 585.78 830.53 577.54
  C 826.27 573.79 821.79 569.84 817.82 565.82
  C 812.26 560.20 806.08 555.03 800.91 549.36
  Q 794.59 542.44 787.94 535.98
  A 0.18 0.18 0.0 0 0 787.63 536.11
  Q 787.55 558.29 787.68 575.02
  Q 787.72 579.91 786.69 583.97
  C 784.32 593.26 778.40 598.77 769.53 603.08
  Q 757.02 609.16 743.08 612.63
  A 1.14 1.13 -7.0 0 1 741.67 611.54
  L 741.67 443.48
  A 1.02 1.00 -12.3 0 1 742.27 442.56
  C 746.12 440.82 750.31 439.75 754.32 438.43
  Q 784.61 428.44 809.37 422.71
  C 817.66 420.79 828.41 421.76 836.42 424.45
  C 849.55 428.85 859.66 440.81 860.36 454.89
  Q 860.67 461.08 860.15 467.48
  Q 859.59 474.39 857.78 479.59
  Q 852.99 493.38 843.67 504.33
  C 840.71 507.80 837.19 510.91 833.98 514.26
  Q 833.57 514.69 833.99 515.10
  Z
  M 787.84 462.09
  Q 787.39 462.27 787.44 462.75
  C 787.89 468.01 786.90 472.90 786.91 478.17
  Q 786.92 493.52 786.89 507.90
  Q 786.89 508.52 787.45 508.25
  C 799.66 502.38 808.42 493.76 812.60 480.67
  C 814.59 474.44 815.18 465.55 808.54 461.89
  C 801.92 458.25 794.72 459.29 787.84 462.09
  Z"
/>
<path fill="#ff0013" d="
  M 712.95 452.70
  C 722.58 451.53 728.67 459.35 728.70 468.05
  C 728.70 468.69 729.17 469.41 729.18 470.16
  Q 729.22 478.07 729.20 485.56
  Q 729.18 492.44 728.73 500.87
  Q 728.29 509.16 728.81 517.22
  C 728.86 518.06 729.19 518.89 729.19 519.72
  Q 729.21 535.43 729.27 551.45
  Q 729.33 564.65 727.47 580.73
  Q 726.27 591.08 723.82 598.71
  C 719.92 610.90 711.67 622.20 701.31 629.33
  Q 692.20 635.60 685.41 638.43
  Q 678.93 641.14 671.65 643.48
  Q 659.65 647.34 647.19 646.92
  C 638.04 646.60 629.08 644.77 621.80 638.86
  Q 609.53 628.89 607.41 612.42
  Q 606.88 608.28 606.35 604.04
  Q 605.83 599.96 605.83 596.31
  Q 605.77 541.12 605.81 488.34
  A 1.62 1.60 77.1 0 1 606.71 486.89
  Q 619.14 480.82 633.18 477.92
  Q 643.19 475.85 648.78 483.77
  C 650.30 485.94 650.67 488.26 651.38 490.75
  Q 651.73 491.95 651.73 493.16
  Q 651.76 538.84 651.74 584.46
  C 651.74 587.76 652.41 590.87 652.99 594.14
  Q 654.52 602.82 663.53 603.01
  C 674.95 603.25 681.31 595.13 682.29 584.39
  Q 683.19 574.51 683.21 567.57
  Q 683.31 517.56 683.20 469.32
  C 683.19 466.56 683.84 464.29 683.94 461.66
  A 1.61 1.61 0.0 0 1 684.92 460.24
  Q 698.52 454.45 712.95 452.70
  Z"
/>
<path fill="#ffffff" d="
  M 787.84 462.09
  C 794.72 459.29 801.92 458.25 808.54 461.89
  C 815.18 465.55 814.59 474.44 812.60 480.67
  C 808.42 493.76 799.66 502.38 787.45 508.25
  Q 786.89 508.52 786.89 507.90
  Q 786.92 493.52 786.91 478.17
  C 786.90 472.90 787.89 468.01 787.44 462.75
  Q 787.39 462.27 787.84 462.09
  Z"
/>
<path fill="#ff0013" d="
  M 1231.09 626.72
  Q 1230.69 626.02 1230.69 626.83
  Q 1230.54 671.16 1230.75 714.77
  Q 1230.82 728.23 1229.29 733.06
  C 1225.49 745.11 1216.24 752.57 1204.42 756.09
  Q 1189.05 760.68 1167.79 764.10
  Q 1165.61 764.45 1164.23 764.34
  Q 1163.71 764.30 1163.71 763.78
  L 1163.71 523.51
  Q 1163.71 523.03 1164.17 522.92
  C 1167.58 522.03 1170.95 521.19 1174.42 520.65
  Q 1187.82 518.60 1201.23 515.92
  C 1207.56 514.65 1213.68 513.87 1219.88 514.41
  Q 1223.08 514.70 1226.41 516.55
  C 1236.96 522.43 1242.76 532.29 1249.83 541.61
  Q 1276.11 576.22 1303.53 611.83
  Q 1304.18 612.69 1304.19 611.61
  Q 1304.22 574.12 1304.13 532.35
  C 1304.11 520.76 1308.65 507.54 1319.32 501.50
  Q 1325.56 497.98 1330.56 496.98
  Q 1348.74 493.35 1369.00 492.59
  A 0.76 0.76 0.0 0 1 1369.79 493.35
  Q 1369.77 595.69 1369.80 705.60
  Q 1369.80 720.42 1359.26 730.58
  C 1354.56 735.10 1347.17 737.77 1340.27 737.54
  C 1336.58 737.42 1332.78 737.80 1329.15 737.03
  C 1317.27 734.52 1309.92 729.36 1302.77 720.55
  Q 1299.64 716.69 1297.03 713.29
  Q 1266.27 673.32 1232.47 628.77
  Q 1231.64 627.68 1231.09 626.72
  Z"
/>
<path fill="#ff0013" d="
  M 573.62 588.56
  Q 594.86 591.98 601.00 613.28
  C 601.75 615.87 602.53 618.63 602.55 621.36
  C 602.61 629.05 602.96 636.64 599.48 643.78
  Q 591.91 659.30 580.39 669.24
  Q 573.95 674.81 563.92 680.16
  C 554.12 685.39 544.03 690.13 533.51 694.50
  Q 505.49 706.15 478.00 717.55
  Q 477.18 717.89 477.18 717.00
  L 477.18 536.76
  A 0.92 0.91 -11.8 0 1 477.74 535.92
  Q 495.30 528.30 513.29 520.96
  C 521.36 517.67 529.48 515.19 537.75 512.31
  Q 547.78 508.83 558.82 507.82
  Q 573.31 506.51 584.82 517.11
  Q 590.96 522.78 593.55 529.62
  C 594.59 532.40 594.91 535.34 595.49 538.29
  Q 595.81 539.96 595.85 541.65
  Q 596.52 571.07 573.40 587.62
  Q 572.37 588.36 573.62 588.56
  Z
  M 546.62 569.96
  C 549.74 562.86 551.14 547.89 539.34 547.17
  Q 531.22 546.67 524.86 550.27
  Q 524.41 550.53 524.41 551.05
  L 524.39 587.48
  A 0.44 0.44 0.0 0 0 525.01 587.88
  C 534.21 583.79 542.37 579.64 546.62 569.96
  Z
  M 524.78 659.96
  Q 533.24 656.35 541.74 651.17
  C 547.28 647.79 550.80 642.67 552.22 636.60
  C 552.82 634.02 552.58 631.51 552.69 628.94
  Q 552.83 625.98 551.74 623.48
  Q 546.04 610.37 530.58 614.55
  Q 527.53 615.38 524.91 616.78
  Q 524.40 617.05 524.40 617.63
  L 524.39 659.71
  A 0.28 0.27 -11.9 0 0 524.78 659.96
  Z"
/>
<path fill="#ff0013" d="
  M 1064.21 730.74
  L 1142.64 712.97
  A 1.15 1.15 0.0 0 1 1144.04 714.09
  Q 1144.05 727.05 1144.02 740.75
  Q 1144.02 743.95 1143.28 748.98
  C 1141.64 760.09 1136.46 767.90 1125.29 771.78
  C 1114.93 775.38 1104.01 776.88 1093.78 779.42
  Q 1046.07 791.29 998.29 803.28
  A 1.06 1.06 0.0 0 1 996.97 802.25
  L 996.97 563.06
  A 1.39 1.38 81.9 0 1 997.96 561.73
  Q 1006.60 559.20 1014.55 557.07
  Q 1061.50 544.49 1111.80 533.99
  Q 1125.53 531.13 1137.04 529.50
  Q 1138.62 529.28 1139.97 528.74
  A 0.53 0.53 0.0 0 1 1140.70 529.23
  Q 1140.78 543.40 1140.67 556.95
  Q 1140.64 560.38 1140.04 564.00
  C 1138.64 572.45 1133.93 577.26 1126.30 580.54
  Q 1116.83 584.60 1102.21 588.01
  Q 1084.29 592.19 1065.52 596.22
  C 1064.83 596.37 1064.41 596.26 1063.74 596.30
  Q 1063.28 596.32 1063.28 596.79
  L 1063.28 633.74
  Q 1063.28 634.26 1063.74 634.51
  Q 1064.24 634.77 1064.68 634.34
  A 1.04 1.00 16.4 0 1 1065.18 634.08
  Q 1093.76 627.58 1126.24 620.14
  Q 1130.93 619.06 1134.62 617.89
  A 0.65 0.64 81.2 0 1 1135.46 618.51
  Q 1135.47 630.02 1135.46 641.49
  Q 1135.46 643.41 1135.01 645.35
  C 1134.61 647.05 1134.84 648.94 1134.62 650.75
  Q 1132.95 664.42 1119.38 669.66
  Q 1110.51 673.09 1101.58 675.22
  Q 1081.66 679.97 1064.23 683.13
  A 0.41 0.41 0.0 0 0 1063.89 683.53
  L 1063.89 730.48
  Q 1063.89 730.81 1064.21 730.74
  Z"
/>
<path fill="#ffffff" d="
  M 546.62 569.96
  C 542.37 579.64 534.21 583.79 525.01 587.88
  A 0.44 0.44 0.0 0 1 524.39 587.48
  L 524.41 551.05
  Q 524.41 550.53 524.86 550.27
  Q 531.22 546.67 539.34 547.17
  C 551.14 547.89 549.74 562.86 546.62 569.96
  Z"
/>
<path fill="#ff0013" d="
  M 900.37 775.38
  Q 936.16 764.91 976.72 753.01
  Q 977.33 752.83 977.94 752.69
  Q 978.91 752.48 979.62 751.89
  A 0.59 0.59 0.0 0 1 980.58 752.35
  Q 980.61 767.93 980.56 783.82
  C 980.55 786.29 979.95 788.96 979.39 791.39
  Q 976.14 805.37 963.84 811.36
  Q 956.97 814.72 948.40 817.68
  Q 936.98 821.63 924.79 824.85
  C 910.47 828.63 897.00 832.93 882.98 837.07
  Q 874.78 839.48 863.90 842.99
  Q 848.11 848.07 833.54 851.81
  Q 832.69 852.03 832.35 851.23
  Q 832.22 850.94 832.22 850.62
  Q 832.26 730.29 832.21 610.05
  Q 832.21 609.72 832.53 609.61
  Q 841.63 606.40 850.98 603.49
  Q 878.92 594.80 903.94 588.00
  C 920.23 583.57 937.46 577.41 952.68 573.44
  Q 963.59 570.60 976.53 567.39
  Q 977.92 567.05 977.93 568.48
  Q 978.04 583.38 977.80 597.69
  Q 977.71 602.55 975.73 608.70
  C 970.67 624.35 953.40 626.21 940.20 630.16
  Q 922.76 635.37 905.75 639.87
  Q 903.16 640.55 900.37 641.05
  Q 899.81 641.15 899.81 641.71
  L 899.82 678.74
  A 0.44 0.43 82.0 0 0 900.37 679.16
  C 911.79 675.90 922.90 672.31 934.46 669.24
  Q 953.49 664.20 971.40 659.30
  A 0.51 0.51 0.0 0 1 972.04 659.78
  Q 972.22 671.42 971.94 681.20
  C 971.63 691.85 968.63 704.08 959.55 709.78
  Q 953.74 713.42 944.60 716.09
  Q 921.71 722.80 900.38 727.74
  Q 899.81 727.87 899.81 728.45
  L 899.82 774.97
  Q 899.82 775.54 900.37 775.38
  Z
  M 833.39 849.37
  A 0.24 0.24 0.0 0 0 833.55 849.74
  Q 834.23 849.85 834.64 849.41
  A 0.31 0.31 0.0 0 0 834.43 848.89
  Q 833.74 848.84 833.39 849.37
  Z"
/>
<path fill="#ffffff" d="
  M 524.78 659.96
  A 0.28 0.27 -11.9 0 1 524.39 659.71
  L 524.40 617.63
  Q 524.40 617.05 524.91 616.78
  Q 527.53 615.38 530.58 614.55
  Q 546.04 610.37 551.74 623.48
  Q 552.83 625.98 552.69 628.94
  C 552.58 631.51 552.82 634.02 552.22 636.60
  C 550.80 642.67 547.28 647.79 541.74 651.17
  Q 533.24 656.35 524.78 659.96
  Z"
/>
<path fill="#ff0013" d="
  M 682.78 663.09
  Q 686.58 662.28 691.12 662.45
  Q 695.56 662.61 698.47 664.68
  Q 704.29 668.81 705.23 676.71
  Q 706.14 684.42 706.15 692.50
  Q 706.20 750.75 706.18 811.00
  Q 706.18 818.05 707.62 824.32
  Q 709.51 832.55 716.76 834.80
  C 720.17 835.86 723.52 836.21 727.02 835.36
  Q 744.26 831.14 748.06 813.37
  C 748.90 809.44 750.24 805.56 750.24 801.51
  Q 750.14 754.01 750.25 705.40
  C 750.28 695.41 749.58 685.56 749.57 676.26
  Q 749.54 658.26 749.55 639.10
  Q 749.55 637.59 750.97 637.09
  Q 763.70 632.60 777.17 627.79
  Q 784.61 625.13 791.13 623.70
  C 793.78 623.11 798.52 622.83 801.06 623.63
  Q 807.66 625.71 810.17 632.25
  C 811.67 636.14 812.58 640.20 812.58 644.36
  Q 812.55 711.79 812.54 784.40
  Q 812.53 805.03 806.85 824.51
  C 799.95 848.15 783.79 867.17 762.15 878.99
  Q 752.19 884.43 742.52 888.79
  C 724.60 896.87 703.79 901.57 684.15 897.33
  C 670.78 894.44 657.33 885.25 650.93 872.77
  Q 645.34 861.90 643.91 849.30
  Q 643.40 844.80 642.95 839.91
  Q 642.53 835.30 642.54 830.66
  Q 642.60 754.86 642.56 679.74
  A 2.68 2.67 78.9 0 1 644.22 677.26
  Q 658.73 671.34 673.66 665.76
  Q 678.19 664.07 682.78 663.09
  Z"
/>
<path fill="#ff0013" d="
  M 558.74 961.21
  C 561.68 963.53 564.16 966.31 567.28 968.40
  C 588.55 982.58 615.83 985.45 640.93 980.09
  C 649.28 978.31 660.32 975.57 668.03 979.97
  C 675.55 984.25 682.01 992.29 683.47 1000.82
  Q 685.46 1012.37 680.48 1023.30
  C 676.63 1031.76 668.50 1037.25 659.74 1039.86
  Q 636.01 1046.93 609.59 1046.63
  Q 599.74 1046.51 590.64 1044.90
  Q 571.31 1041.48 555.33 1035.74
  C 537.29 1029.28 520.60 1018.33 506.75 1004.36
  Q 500.94 998.50 495.32 992.73
  Q 494.56 991.96 493.51 992.18
  Q 466.83 997.84 440.84 995.18
  C 417.23 992.77 398.35 979.72 386.94 959.44
  Q 380.30 947.62 377.61 936.65
  Q 374.46 923.80 374.23 913.60
  C 374.04 905.31 373.87 896.79 374.78 888.42
  Q 377.70 861.62 387.19 839.00
  C 389.14 834.34 391.52 829.77 393.76 825.21
  Q 400.46 811.52 411.53 796.57
  Q 423.04 781.02 439.07 768.80
  Q 452.74 758.38 465.16 751.08
  Q 477.33 743.93 491.55 738.67
  C 496.87 736.71 502.37 735.51 507.77 733.77
  Q 523.99 728.57 538.27 727.73
  Q 547.18 727.21 560.61 728.82
  Q 590.01 732.33 608.13 753.33
  Q 612.42 758.31 615.02 763.21
  Q 621.24 774.93 625.07 790.57
  Q 626.83 797.74 626.84 805.31
  C 626.84 806.36 627.24 807.39 627.28 808.27
  C 628.25 830.09 626.60 853.00 619.62 873.45
  Q 616.58 882.37 613.11 891.35
  C 611.81 894.71 609.66 897.68 608.03 900.94
  C 600.98 915.05 591.63 927.53 580.77 939.75
  C 575.98 945.14 570.36 949.50 565.38 954.73
  C 563.32 956.90 560.85 958.54 558.71 960.63
  A 0.39 0.38 -48.2 0 0 558.74 961.21
  Z
  M 468.75 924.89
  C 474.00 927.21 479.92 928.88 485.69 928.26
  C 499.43 926.80 513.00 919.87 523.32 910.84
  Q 530.33 904.71 533.82 900.00
  Q 547.83 881.16 550.92 859.15
  Q 552.52 847.80 552.35 833.41
  Q 552.30 828.59 551.38 823.90
  C 549.98 816.68 548.53 811.50 543.69 805.44
  Q 540.57 801.54 536.97 799.60
  Q 532.61 797.25 527.33 796.64
  Q 524.61 796.33 521.55 796.11
  C 519.88 795.99 518.51 796.48 516.89 796.42
  Q 515.07 796.34 513.30 796.71
  Q 495.39 800.40 480.83 812.34
  C 475.66 816.58 471.26 821.72 467.28 826.98
  Q 458.14 839.06 454.36 852.99
  Q 453.04 857.87 451.98 863.08
  C 449.97 872.97 450.28 883.79 451.24 893.71
  Q 451.95 901.17 454.28 907.45
  C 456.45 913.30 462.42 922.10 468.75 924.89
  Z"
/>
<path fill="#ff0013" d="
  M 1268.38 772.23
  L 1252.64 772.27
  A 0.35 0.35 0.0 0 1 1252.29 771.92
  L 1252.32 765.40
  A 0.35 0.35 0.0 0 1 1252.67 765.05
  L 1295.92 765.06
  A 0.35 0.35 0.0 0 1 1296.27 765.41
  L 1296.28 771.94
  A 0.35 0.35 0.0 0 1 1295.93 772.29
  L 1280.20 772.24
  A 0.35 0.35 0.0 0 0 1279.85 772.59
  L 1279.83 806.72
  A 0.35 0.35 0.0 0 1 1279.48 807.07
  L 1269.07 807.07
  A 0.35 0.35 0.0 0 1 1268.72 806.72
  L 1268.73 772.58
  A 0.35 0.35 0.0 0 0 1268.38 772.23
  Z"
/>
<path fill="#ff0013" d="
  M 1312.99 775.72
  Q 1312.84 775.70 1312.73 775.78
  Q 1312.64 775.85 1312.64 775.96
  L 1312.71 806.30
  Q 1312.71 807.06 1311.95 807.06
  L 1302.64 807.09
  A 0.45 0.44 90.0 0 1 1302.20 806.64
  L 1302.21 765.53
  A 0.51 0.51 0.0 0 1 1302.72 765.02
  L 1316.52 765.06
  A 1.97 1.95 -8.9 0 1 1318.37 766.40
  L 1327.91 795.25
  Q 1328.79 797.91 1329.34 795.16
  Q 1329.76 792.98 1330.46 790.89
  Q 1334.83 777.80 1338.48 766.31
  Q 1338.87 765.06 1340.19 765.05
  L 1352.00 765.03
  Q 1352.72 765.03 1352.72 765.75
  L 1352.72 806.55
  Q 1352.72 807.07 1352.20 807.07
  L 1344.72 807.08
  Q 1344.24 807.08 1344.24 806.60
  Q 1344.12 791.08 1344.31 775.12
  Q 1344.32 774.77 1343.99 774.82
  Q 1343.66 774.86 1343.57 775.18
  Q 1339.89 789.12 1334.69 803.47
  C 1334.30 804.54 1334.54 806.00 1333.75 806.72
  Q 1333.38 807.06 1332.86 807.06
  L 1323.80 807.07
  A 1.10 1.10 0.0 0 1 1322.70 806.04
  C 1322.52 803.65 1321.46 801.61 1320.69 799.29
  Q 1317.02 788.17 1313.76 778.15
  Q 1313.49 777.32 1313.43 776.19
  Q 1313.41 775.76 1312.99 775.72
  Z"
/>
<path fill="#ffbc00" d="
  M 934.38 855.55
  Q 1036.85 826.23 1110.46 810.42
  C 1114.36 809.58 1118.52 809.07 1122.34 808.26
  Q 1158.89 800.45 1195.23 795.14
  Q 1199.63 794.50 1202.25 795.47
  Q 1205.99 796.85 1207.98 800.98
  Q 1209.38 803.87 1208.64 807.62
  Q 1207.30 814.36 1205.04 820.52
  C 1201.46 830.28 1197.16 838.58 1192.45 848.12
  Q 1188.08 856.96 1183.70 863.59
  Q 1169.96 884.40 1159.83 897.09
  Q 1146.05 914.36 1125.38 932.90
  C 1101.67 954.17 1073.62 971.73 1044.37 985.84
  Q 1035.01 990.35 1026.83 993.81
  Q 965.30 1019.80 897.99 1026.63
  Q 895.42 1026.89 892.75 1026.84
  C 890.51 1026.80 888.54 1027.54 886.32 1027.55
  Q 870.91 1027.57 854.84 1027.53
  C 851.88 1027.53 849.23 1026.76 846.28 1026.79
  Q 844.80 1026.81 843.35 1026.68
  C 823.44 1024.98 804.20 1022.20 785.12 1017.72
  Q 776.73 1015.76 768.30 1013.68
  Q 755.37 1010.49 740.17 1005.21
  Q 726.95 1000.61 709.98 992.17
  Q 695.50 984.97 682.55 973.37
  Q 672.79 964.62 676.29 951.92
  Q 677.63 947.05 681.64 944.42
  C 686.21 941.44 691.81 938.76 696.93 936.78
  Q 703.57 934.21 703.62 934.19
  Q 725.38 925.23 748.91 916.41
  Q 771.98 907.76 778.82 905.32
  Q 853.75 878.62 934.38 855.55
  Z
  M 1161.80 844.72
  C 1163.09 841.84 1164.69 837.59 1164.15 834.42
  Q 1163.17 828.74 1158.61 825.59
  Q 1156.20 823.91 1153.33 824.13
  C 1146.11 824.68 1141.27 830.02 1138.48 836.46
  C 1136.14 841.85 1133.96 847.48 1131.31 852.78
  Q 1119.69 876.03 1105.21 897.46
  Q 1097.21 909.29 1087.61 919.86
  Q 1082.36 925.63 1077.38 931.13
  Q 1073.27 935.65 1056.56 950.05
  Q 1038.46 965.66 1018.76 977.78
  Q 1016.60 979.11 1018.98 978.25
  Q 1023.81 976.52 1028.60 974.26
  Q 1041.48 968.20 1054.78 960.48
  Q 1079.17 946.33 1100.24 926.53
  Q 1129.91 898.64 1151.98 862.88
  Q 1158.16 852.87 1161.80 844.72
  Z"
/>
<path fill="#ffffff" d="
  M 485.69 928.26
  C 479.92 928.88 474.00 927.21 468.75 924.89
  C 462.42 922.10 456.45 913.30 454.28 907.45
  Q 451.95 901.17 451.24 893.71
  C 450.28 883.79 449.97 872.97 451.98 863.08
  Q 453.04 857.87 454.36 852.99
  Q 458.14 839.06 467.28 826.98
  C 471.26 821.72 475.66 816.58 480.83 812.34
  Q 495.39 800.40 513.30 796.71
  Q 515.07 796.34 516.89 796.42
  C 518.51 796.48 519.88 795.99 521.55 796.11
  Q 524.61 796.33 527.33 796.64
  Q 532.61 797.25 536.97 799.60
  Q 540.57 801.54 543.69 805.44
  C 548.53 811.50 549.98 816.68 551.38 823.90
  Q 552.30 828.59 552.35 833.41
  Q 552.52 847.80 550.92 859.15
  Q 547.83 881.16 533.82 900.00
  Q 530.33 904.71 523.32 910.84
  C 513.00 919.87 499.43 926.80 485.69 928.26
  Z"
/>
<path fill="#0061af" d="
  M 1258.66 823.87
  A 0.39 0.38 22.4 0 1 1259.19 823.66
  Q 1274.38 830.98 1288.42 838.63
  Q 1316.04 853.67 1338.22 864.40
  Q 1340.06 865.29 1339.60 867.28
  Q 1338.99 869.96 1338.15 872.45
  Q 1329.82 897.06 1317.35 921.64
  Q 1290.98 973.61 1252.15 1017.52
  C 1247.75 1022.49 1242.94 1027.28 1238.70 1032.27
  Q 1233.58 1038.30 1212.19 1057.33
  Q 1151.14 1111.63 1075.19 1142.93
  Q 997.01 1175.14 913.10 1180.91
  Q 910.40 1181.09 907.84 1181.16
  C 904.85 1181.23 901.89 1181.87 898.85 1181.79
  C 889.50 1181.55 880.83 1182.55 871.47 1182.07
  C 864.31 1181.70 856.94 1181.97 849.67 1181.44
  Q 845.51 1181.13 841.51 1180.86
  C 732.31 1173.38 627.22 1131.30 546.05 1057.71
  Q 539.97 1052.21 533.60 1046.15
  Q 527.77 1040.62 522.21 1034.76
  Q 519.17 1031.56 523.00 1033.75
  Q 541.51 1044.32 564.32 1051.78
  C 572.65 1054.51 580.97 1056.38 589.94 1057.20
  Q 604.84 1058.58 620.06 1058.16
  C 630.84 1057.86 641.05 1056.11 651.81 1054.09
  Q 663.73 1051.86 673.88 1048.28
  A 1.30 1.29 -42.4 0 1 674.86 1048.32
  Q 743.27 1079.40 819.19 1086.03
  Q 831.76 1087.13 843.49 1087.24
  C 848.92 1087.29 854.36 1088.12 859.73 1087.69
  C 867.08 1087.09 874.64 1087.30 882.10 1086.88
  C 912.00 1085.21 940.58 1080.33 969.91 1073.63
  Q 992.16 1068.54 1015.00 1060.16
  C 1066.40 1041.30 1112.97 1014.36 1153.07 978.71
  C 1162.56 970.28 1171.43 961.31 1180.13 952.20
  Q 1188.40 943.56 1197.85 931.90
  Q 1237.69 882.79 1258.66 823.87
  Z"
/>
<path fill="#ffffff" d="
  M 1164.15 834.42
  C 1164.69 837.59 1163.09 841.84 1161.80 844.72
  Q 1158.16 852.87 1151.98 862.88
  Q 1129.91 898.64 1100.24 926.53
  Q 1079.17 946.33 1054.78 960.48
  Q 1041.48 968.20 1028.60 974.26
  Q 1023.81 976.52 1018.98 978.25
  Q 1016.60 979.11 1018.76 977.78
  Q 1038.46 965.66 1056.56 950.05
  Q 1073.27 935.65 1077.38 931.13
  Q 1082.36 925.63 1087.61 919.86
  Q 1097.21 909.29 1105.21 897.46
  Q 1119.69 876.03 1131.31 852.78
  C 1133.96 847.48 1136.14 841.85 1138.48 836.46
  C 1141.27 830.02 1146.11 824.68 1153.33 824.13
  Q 1156.20 823.91 1158.61 825.59
  Q 1163.17 828.74 1164.15 834.42
  Z"
/>
<path fill="#ffbc00" d="
  M 833.39 849.37
  Q 833.74 848.84 834.43 848.89
  A 0.31 0.31 0.0 0 1 834.64 849.41
  Q 834.23 849.85 833.55 849.74
  A 0.24 0.24 0.0 0 1 833.39 849.37
  Z"
/>
</svg>
