<?xml version="1.0" encoding="UTF-8" standalone="no"?>
<!DOCTYPE svg PUBLIC "-//W3C//DTD SVG 1.1//EN" "http://www.w3.org/Graphics/SVG/1.1/DTD/svg11.dtd">
<svg xmlns="http://www.w3.org/2000/svg" version="1.1" viewBox="0.00 0.00 1252.00 1252.00">
<g stroke-width="2.00" fill="none" stroke-linecap="butt">
<path stroke="#f2dce1" vector-effect="non-scaling-stroke" d="
  M 449.14 0.00
  C 443.60 4.81 437.62 8.60 437.34 16.72
  C 437.00 26.58 439.16 38.20 441.33 47.82
  Q 445.56 66.59 450.07 87.45
  C 454.17 106.46 450.28 124.96 438.51 140.20
  C 433.47 146.72 429.63 153.81 424.74 160.37
  Q 422.00 164.05 419.85 167.89
  C 412.90 180.30 398.26 191.21 386.15 196.12
  C 378.70 199.14 370.70 200.84 363.07 203.53
  Q 356.79 205.74 350.33 208.69
  C 342.25 212.39 333.20 215.54 324.60 217.15
  C 315.25 218.90 305.32 220.29 296.20 223.34
  C 285.68 226.87 275.18 230.89 264.33 233.81
  Q 246.66 238.58 226.78 244.38
  Q 216.21 247.46 209.78 252.06
  Q 199.87 259.16 192.64 262.83
  C 182.15 268.15 170.30 273.05 160.61 280.21
  Q 144.82 291.86 129.39 302.44
  C 115.75 311.77 107.02 319.14 100.22 332.44
  Q 94.71 343.23 92.90 349.46
  Q 89.11 362.46 86.30 369.09
  C 82.49 378.06 78.37 386.58 77.94 396.32
  Q 77.27 411.93 74.83 428.01
  Q 71.82 447.93 77.83 466.70
  C 80.60 475.36 85.51 484.28 88.07 492.71
  Q 91.50 503.98 94.92 516.33
  C 99.04 531.17 105.50 543.98 112.73 557.43
  Q 119.32 569.67 116.98 583.63"
/>
<path stroke="#f2767e" vector-effect="non-scaling-stroke" d="
  M 116.98 583.63
  C 115.57 585.33 112.86 587.41 115.15 589.86
  Q 121.14 596.26 127.70 603.02
  Q 136.30 611.90 144.25 620.18
  Q 166.87 643.74 191.31 669.26
  C 206.36 684.98 221.50 700.40 236.60 716.40
  Q 255.54 736.47 269.05 749.46
  Q 280.20 760.19 294.52 772.21
  Q 312.74 787.49 329.66 801.16
  Q 329.85 801.32 330.08 801.39
  Q 330.37 801.47 330.60 801.64
  L 343.65 811.38
  Q 343.88 811.55 343.67 811.74
  Q 343.54 811.87 343.28 811.85"
/>
<path stroke="#8299c6" vector-effect="non-scaling-stroke" d="
  M 343.28 811.85
  L 326.97 805.29"
/>
<path stroke="#dae0e9" vector-effect="non-scaling-stroke" d="
  M 326.97 805.29
  Q 322.13 800.89 317.27 798.49
  C 312.04 795.90 306.50 793.98 301.34 790.85
  C 296.41 787.86 290.98 785.96 285.93 783.30
  C 276.80 778.50 267.09 774.31 258.23 769.61
  C 249.88 765.18 241.16 761.36 232.88 756.34
  Q 216.51 746.40 203.59 737.63
  C 200.39 735.47 196.85 734.61 193.67 732.04
  C 187.70 727.23 180.60 722.36 172.97 721.35
  A 1.82 1.81 -77.7 0 0 171.00 722.62
  Q 169.43 727.70 167.91 732.85
  C 166.95 736.09 166.71 739.40 166.49 742.74
  C 166.21 747.20 164.99 751.74 163.71 756.11
  C 162.30 760.92 162.27 765.78 162.01 770.77
  C 161.91 772.59 160.78 773.99 160.41 775.67
  C 159.53 779.64 157.99 783.51 157.76 787.53
  C 157.58 790.86 156.24 794.05 155.50 797.31
  Q 154.36 802.32 153.13 807.49
  C 152.31 810.93 152.79 814.32 151.85 817.58
  Q 150.73 821.45 149.54 825.45
  C 148.42 829.25 148.85 834.11 149.02 838.24
  Q 149.03 838.59 148.81 843.23
  Q 148.69 845.82 149.50 848.27"
/>
<path stroke="#8299c6" vector-effect="non-scaling-stroke" d="
  M 149.50 848.27
  Q 175.26 859.08 201.01 869.64
  Q 237.39 884.55 251.99 889.26
  Q 281.29 898.70 290.70 901.54
  Q 315.50 909.03 346.60 916.21"
/>
<path stroke="#f2dce1" vector-effect="non-scaling-stroke" d="
  M 346.60 916.21
  Q 337.16 921.85 328.13 927.69
  C 318.33 934.01 317.73 942.22 319.89 952.45
  Q 321.68 960.90 324.73 970.25
  C 328.90 983.01 329.92 995.03 327.08 1007.63
  C 325.00 1016.87 323.07 1026.11 324.12 1035.37
  Q 324.90 1042.20 326.42 1049.61
  C 329.13 1062.89 326.70 1076.62 325.09 1090.15
  Q 323.96 1099.61 323.21 1120.24
  Q 323.00 1125.93 323.58 1131.01
  Q 325.40 1146.99 326.00 1154.17
  Q 327.77 1175.31 339.75 1192.49
  Q 342.89 1197.01 351.68 1208.95
  Q 365.47 1227.69 362.56 1252.00"
/>
<path stroke="#f2dce1" vector-effect="non-scaling-stroke" d="
  M 1017.99 0.00
  Q 1021.14 1.75 1024.29 3.58
  C 1034.58 9.56 1038.00 17.48 1041.69 28.45
  C 1044.92 38.03 1047.26 47.90 1049.26 57.50
  C 1051.25 67.03 1053.70 74.60 1056.50 83.07
  Q 1062.51 101.25 1060.56 121.80
  Q 1058.79 140.43 1056.72 160.40
  Q 1055.02 176.86 1043.76 190.80
  Q 1028.25 210.02 1011.42 236.31
  C 1004.50 247.12 991.76 247.15 980.15 245.59
  Q 955.60 242.28 932.77 240.37
  C 927.89 239.96 923.58 238.27 918.56 238.38
  Q 913.38 238.49 908.44 238.31
  C 905.68 238.21 903.49 236.88 900.62 237.39
  C 898.15 237.82 895.61 238.01 893.17 237.63
  Q 888.16 236.84 885.93 237.01
  Q 874.68 237.82 866.70 237.44
  Q 864.25 237.32 861.79 237.55"
/>
<path stroke="#f4c37a" vector-effect="non-scaling-stroke" d="
  M 861.79 237.55
  Q 836.19 237.16 827.93 236.76
  Q 826.35 236.68 822.46 235.56"
/>
<path stroke="#f57b82" vector-effect="non-scaling-stroke" d="
  M 822.46 235.56
  Q 816.42 234.45 810.50 232.84
  Q 803.53 230.95 795.49 229.18
  C 787.73 227.47 779.90 225.48 772.19 224.08
  Q 703.68 211.56 633.96 216.20
  Q 623.59 216.89 613.40 218.07
  C 590.33 220.75 570.02 223.50 549.18 230.20
  Q 534.39 234.96 520.75 239.46
  Q 511.48 242.52 502.27 246.57
  Q 479.87 256.44 457.07 268.26
  Q 429.99 282.31 413.39 294.33
  Q 400.39 303.75 387.17 314.47
  C 372.16 326.65 356.04 339.15 340.96 352.09
  C 325.70 365.18 310.69 377.89 297.69 391.68
  Q 284.35 405.83 270.54 422.62
  C 266.69 427.31 262.45 431.93 258.25 436.25
  Q 234.40 460.83 210.91 485.76
  Q 204.02 493.07 197.08 500.23
  C 170.24 527.89 143.92 555.98 116.98 583.63"
/>
<path stroke="#f2dce1" vector-effect="non-scaling-stroke" d="
  M 1037.60 1252.00
  Q 1039.78 1244.65 1035.04 1238.68
  C 1030.71 1233.21 1025.25 1227.71 1021.72 1222.24
  Q 1016.67 1214.38 1012.26 1204.25
  Q 1005.30 1188.21 999.93 1175.24
  C 996.89 1167.86 992.89 1159.67 989.22 1153.65
  Q 979.90 1138.35 971.77 1123.77
  C 968.35 1117.64 964.72 1111.72 960.85 1105.89
  C 953.90 1095.42 949.98 1085.60 946.62 1073.31
  C 942.73 1059.06 939.48 1045.92 937.97 1031.36
  C 935.91 1011.34 932.80 991.59 926.80 972.78
  Q 921.91 957.45 912.82 947.25
  C 909.63 943.67 906.98 940.09 905.74 935.59
  C 904.69 931.76 903.87 927.83 902.03 924.39
  C 897.65 916.22 889.45 910.91 880.81 908.03"
/>
<path stroke="#c4858b" vector-effect="non-scaling-stroke" d="
  M 880.81 908.03
  Q 901.72 895.80 911.79 889.29
  Q 925.04 880.71 945.80 866.02
  C 955.54 859.12 964.74 851.44 974.21 844.18
  C 982.43 837.88 989.60 831.50 997.36 824.96
  Q 1005.72 817.93 1012.32 811.81
  Q 1019.43 805.22 1026.39 798.99
  C 1035.84 790.53 1044.61 781.33 1053.79 772.18
  C 1063.86 762.15 1072.97 751.65 1082.22 740.83
  C 1089.90 731.84 1097.88 723.74 1105.95 715.42
  C 1108.80 712.49 1111.31 709.26 1114.17 706.40
  Q 1124.68 695.88 1134.73 685.27
  C 1140.43 679.26 1146.34 673.62 1151.90 667.41
  C 1162.60 655.45 1174.17 644.09 1185.33 632.13
  C 1190.20 626.91 1195.38 622.14 1200.09 616.93
  C 1208.61 607.53 1219.05 597.53 1226.26 589.46
  Q 1228.89 586.52 1224.76 584.21"
/>
<path stroke="#f2767e" vector-effect="non-scaling-stroke" d="
  M 1224.76 584.21
  Q 1222.98 581.64 1221.80 580.45
  C 1196.59 554.96 1175.48 532.34 1152.07 508.31
  C 1131.75 487.47 1111.81 466.25 1091.60 445.48
  C 1083.72 437.37 1076.49 428.13 1068.93 420.55
  C 1055.20 406.77 1040.90 392.45 1026.17 378.54
  Q 1021.46 374.10 1016.68 368.91"
/>
<path stroke="#f0af73" vector-effect="non-scaling-stroke" d="
  M 1016.68 368.91
  Q 1022.41 370.29 1028.96 373.27
  Q 1045.23 380.69 1062.49 388.70
  C 1072.80 393.48 1082.84 398.97 1092.79 404.17
  Q 1098.92 407.37 1107.32 412.19
  Q 1135.88 428.59 1161.48 446.10
  A 1.34 1.34 0.0 0 0 1163.54 445.32
  C 1164.03 443.39 1164.02 441.43 1164.52 439.52
  C 1166.63 431.48 1168.19 423.18 1170.20 415.11
  Q 1172.33 406.54 1174.20 397.68
  C 1175.54 391.38 1177.18 385.33 1178.61 378.93
  Q 1184.97 350.62 1190.63 327.38
  A 1.65 1.65 0.0 0 0 1189.72 325.49
  Q 1184.58 323.12 1178.93 320.39
  Q 1173.14 317.60 1168.29 315.59
  Q 1142.06 304.69 1121.90 296.89
  Q 1098.42 287.81 1069.75 278.04
  Q 1061.16 275.11 1030.91 265.78"
/>
<path stroke="#f1b775" vector-effect="non-scaling-stroke" d="
  M 1030.91 265.78
  Q 998.09 256.41 985.27 253.44
  Q 965.57 248.89 959.76 247.93
  Q 945.42 245.55 931.07 243.15
  C 929.07 242.81 926.88 242.96 924.75 242.70
  Q 915.77 241.58 906.74 240.98
  Q 905.19 240.87 899.30 240.16
  Q 895.53 239.71 891.80 239.84"
/>
<path stroke="#f2be76" vector-effect="non-scaling-stroke" d="
  M 891.80 239.84
  L 876.52 238.80
  Q 876.04 238.77 875.63 238.53
  Q 875.31 238.35 875.00 238.33
  Q 868.40 237.92 861.79 237.55"
/>
<path stroke="#f55d16" vector-effect="non-scaling-stroke" d="
  M 822.46 235.56
  Q 821.75 235.30 821.01 235.49
  Q 820.52 235.61 820.98 235.86
  Q 821.24 235.99 821.41 235.82
  A 0.21 0.21 0.0 0 1 821.77 236.00
  Q 821.59 237.23 819.01 237.64
  Q 818.30 237.75 817.59 237.76
  Q 799.31 238.06 781.39 238.09
  Q 771.80 238.10 762.47 238.58
  C 745.95 239.41 729.04 240.27 713.04 242.20
  C 706.30 243.01 699.75 244.33 693.17 245.28
  Q 686.14 246.31 678.35 247.98
  Q 664.23 251.01 650.39 253.97
  C 644.90 255.14 639.66 256.80 634.24 258.04
  C 626.63 259.78 619.34 261.90 611.88 263.80
  C 604.48 265.68 597.34 268.31 590.18 270.71
  Q 555.37 282.37 521.08 300.88
  C 513.92 304.75 507.24 308.99 500.33 313.26
  C 499.06 314.04 498.37 315.00 497.04 315.74
  C 493.61 317.63 489.44 320.09 487.02 323.25
  A 0.49 0.49 0.0 0 0 487.38 324.04
  C 489.65 324.20 491.47 323.22 493.61 322.82
  Q 497.10 322.18 500.85 321.24
  Q 504.51 320.32 508.18 319.57
  Q 513.60 318.45 518.71 317.59
  Q 524.22 316.66 529.43 315.46
  Q 534.55 314.29 540.01 313.56
  C 548.55 312.42 556.85 310.81 565.19 309.73
  Q 595.76 305.75 627.30 303.64
  Q 666.38 301.03 676.63 300.79
  C 700.48 300.23 723.53 300.53 746.69 302.52
  Q 759.33 303.61 772.75 304.70
  C 784.66 305.67 795.75 307.61 807.13 308.87
  C 815.46 309.80 823.66 311.73 832.03 312.98
  C 837.41 313.78 842.48 314.93 847.73 315.97
  Q 853.58 317.12 859.49 318.45
  Q 876.07 322.16 892.54 326.28
  C 904.18 329.19 915.32 331.55 926.98 335.58"
/>
<path stroke="#f45615" vector-effect="non-scaling-stroke" d="
  M 926.98 335.58
  L 938.68 339.28"
/>
<path stroke="#f34e14" vector-effect="non-scaling-stroke" d="
  M 938.68 339.28
  Q 979.07 352.89 1009.55 364.95
  Q 1012.97 366.30 1016.68 368.91"
/>
<path stroke="#c7242c" vector-effect="non-scaling-stroke" d="
  M 1224.76 584.21
  C 1220.70 589.40 1215.47 594.15 1211.59 598.76
  Q 1203.62 608.22 1197.37 613.54
  Q 1188.50 621.09 1180.24 630.49
  C 1176.55 634.70 1173.52 639.25 1169.45 643.34
  Q 1165.85 646.95 1162.44 650.22
  Q 1162.39 650.26 1162.35 650.22
  L 1162.13 649.99
  Q 1161.93 649.78 1162.15 649.59
  Q 1164.62 647.48 1166.99 645.14
  Q 1167.04 645.09 1166.99 645.04
  L 1166.99 645.03
  Q 1166.90 644.94 1166.80 645.02
  C 1160.83 650.63 1155.29 655.50 1150.32 662.79
  Q 1149.40 664.14 1150.61 663.05
  Q 1151.60 662.17 1152.45 660.92
  Q 1152.48 660.89 1152.51 660.91
  L 1152.71 661.07
  Q 1152.88 661.21 1152.73 661.36
  Q 1140.83 672.81 1127.20 687.56
  Q 1125.56 689.33 1123.82 691.02
  Q 1121.86 692.93 1120.15 694.92
  C 1117.99 697.44 1115.21 699.20 1113.25 701.69
  Q 1110.65 704.98 1107.89 707.70
  Q 1096.48 718.91 1087.25 728.70
  C 1084.96 731.13 1082.94 734.08 1080.68 736.55
  Q 1076.90 740.68 1073.56 744.92
  C 1070.14 749.26 1065.91 752.74 1062.46 757.18
  Q 1054.29 767.68 1044.23 776.86
  C 1036.00 784.36 1028.39 791.86 1020.08 799.25
  C 1016.50 802.43 1012.91 806.45 1009.62 809.16
  Q 1002.29 815.19 995.66 821.26
  C 990.50 825.98 984.85 830.02 979.57 834.64
  Q 973.71 839.77 967.39 844.23
  C 961.76 848.20 956.69 853.01 950.68 856.98
  C 944.36 861.17 938.53 866.15 932.28 870.35
  C 927.92 873.27 923.53 876.95 918.87 879.33
  C 915.09 881.25 912.17 884.03 908.20 885.95
  C 901.43 889.23 893.48 892.72 888.33 897.99
  C 887.37 898.96 886.20 899.26 885.14 900.09
  Q 883.97 901.00 882.58 901.58
  C 878.28 903.38 875.20 906.24 871.18 908.16
  Q 867.11 910.10 862.97 912.44
  C 856.09 916.33 849.11 919.17 842.09 923.01
  C 839.72 924.31 836.45 925.62 833.79 926.04
  Q 832.54 926.23 831.29 926.80
  Q 826.29 929.07 822.14 931.26
  C 819.42 932.69 816.53 933.31 813.72 934.50
  C 809.53 936.26 805.09 937.21 800.88 938.90
  Q 797.77 940.16 794.59 940.85
  Q 788.47 942.18 783.66 944.36
  C 781.88 945.17 779.97 944.62 778.19 945.48
  C 775.49 946.79 772.77 946.69 769.97 947.73
  Q 766.01 949.22 761.51 949.48
  Q 755.07 949.86 749.79 950.99
  C 742.78 952.49 736.12 953.62 728.68 954.01
  C 719.23 954.51 709.75 954.75 700.10 955.45
  Q 679.92 956.89 659.67 956.86
  C 653.94 956.85 648.37 956.15 642.81 955.94
  Q 636.10 955.69 630.26 954.93
  Q 624.86 954.22 619.71 954.08
  Q 614.81 953.94 609.24 952.71
  Q 603.36 951.41 597.35 950.18
  Q 592.07 949.09 586.75 947.43
  C 580.24 945.39 575.79 943.86 569.69 943.54"
/>
<path stroke="#f57b82" vector-effect="non-scaling-stroke" d="
  M 569.69 943.54
  L 555.72 938.77"
/>
<path stroke="#853867" vector-effect="non-scaling-stroke" d="
  M 555.72 938.77
  L 555.42 937.59
  A 0.93 0.92 -9.8 0 1 556.24 936.44
  Q 569.22 935.28 581.88 934.46
  C 583.96 934.32 585.89 933.64 587.99 933.28"
/>
<path stroke="#c7242c" vector-effect="non-scaling-stroke" d="
  M 587.99 933.28
  Q 599.17 932.69 610.20 930.46
  C 617.29 929.03 623.33 928.47 630.13 927.86
  C 632.31 927.66 634.27 926.97 636.33 926.37
  C 637.67 925.98 638.85 926.33 640.14 925.76
  Q 641.40 925.19 642.84 925.01
  Q 648.85 924.27 654.02 922.91
  Q 654.87 922.68 655.43 922.02
  A 1.24 1.23 -67.1 0 1 656.46 921.60
  Q 658.48 921.78 660.53 921.18
  Q 662.20 920.69 664.06 920.54
  Q 666.28 920.35 669.30 919.50
  C 676.76 917.38 684.28 915.90 691.72 913.72
  Q 696.43 912.34 701.15 911.19
  Q 704.44 910.40 707.68 909.23
  Q 710.49 908.21 713.55 907.26
  Q 735.85 900.34 760.10 890.70
  C 763.02 889.54 765.99 888.67 768.92 887.35
  C 772.41 885.79 776.11 884.73 779.62 883.13
  Q 799.33 874.19 817.98 865.22
  C 819.49 864.49 820.58 863.57 822.02 862.86
  Q 832.55 857.71 841.16 853.10
  Q 842.88 852.18 843.87 850.68
  A 1.36 1.36 0.0 0 0 842.59 848.58
  C 838.41 849.01 834.22 848.50 830.17 849.70
  C 826.88 850.67 823.63 851.68 820.27 852.35
  Q 814.85 853.41 809.30 854.60
  C 807.46 855.00 805.97 855.74 804.08 855.90
  Q 802.46 856.03 800.83 856.34
  Q 796.31 857.18 792.23 857.98
  Q 788.06 858.81 783.72 859.32
  Q 779.88 859.77 776.42 860.78
  Q 773.06 861.77 769.15 861.99
  Q 763.99 862.28 758.76 863.25
  Q 757.77 863.44 752.68 864.00
  Q 749.62 864.33 746.67 865.49"
/>
<path stroke="#894770" vector-effect="non-scaling-stroke" d="
  M 746.67 865.49
  L 696.23 870.58"
/>
<path stroke="#853867" vector-effect="non-scaling-stroke" d="
  M 696.23 870.58
  L 639.73 872.50"
/>
<path stroke="#c7242c" vector-effect="non-scaling-stroke" d="
  M 639.73 872.50
  L 609.96 872.12"
/>
<path stroke="#853867" vector-effect="non-scaling-stroke" d="
  M 609.96 872.12
  L 595.06 871.11"
/>
<path stroke="#c7242c" vector-effect="non-scaling-stroke" d="
  M 595.06 871.11
  Q 585.43 870.54 575.82 870.13
  C 572.88 870.00 570.41 869.15 567.59 868.92
  Q 564.71 868.69 561.40 868.15
  Q 550.63 866.43 539.55 866.35"
/>
<path stroke="#894770" vector-effect="non-scaling-stroke" d="
  M 539.55 866.35
  Q 536.80 866.66 533.88 866.00
  Q 529.90 865.09 528.40 864.92
  Q 524.15 864.44 520.29 863.59
  C 516.65 862.79 512.91 862.60 509.18 861.65
  C 506.29 860.92 503.36 860.82 500.40 860.13
  Q 497.23 859.38 493.90 858.77
  Q 485.37 857.20 477.09 854.87"
/>
<path stroke="#853867" vector-effect="non-scaling-stroke" d="
  M 477.09 854.87
  C 472.95 854.05 468.89 853.28 464.86 852.05
  Q 459.78 850.50 454.44 849.26
  Q 449.17 848.02 443.27 845.87
  C 441.44 845.21 439.40 845.14 437.47 844.53
  Q 426.29 841.00 414.00 837.25
  Q 403.33 833.99 389.27 828.63
  Q 367.41 820.30 346.25 812.26
  C 345.33 811.91 344.25 811.87 343.28 811.85"
/>
<path stroke="#f57b82" vector-effect="non-scaling-stroke" d="
  M 686.83 507.31
  Q 684.30 483.28 674.50 463.53
  Q 661.55 437.42 635.36 422.16
  Q 618.31 412.22 601.55 406.38"
/>
<path stroke="#c7242c" vector-effect="non-scaling-stroke" d="
  M 601.55 406.38
  C 595.92 402.24 587.87 399.91 581.20 398.68
  C 575.03 397.55 569.16 395.01 563.04 394.32
  Q 556.83 393.61 550.41 392.59
  Q 546.72 392.00 542.28 392.41
  Q 536.46 392.94 530.75 392.32
  C 524.46 391.64 518.02 391.68 511.66 391.58
  C 507.54 391.52 503.38 390.39 499.46 390.44
  C 494.03 390.50 488.70 391.04 483.02 391.07
  C 448.06 391.28 413.78 390.80 377.88 391.11
  C 373.99 391.15 369.23 390.98 367.81 394.31
  Q 364.70 401.62 366.39 409.79"
/>
<path stroke="#f57b82" vector-effect="non-scaling-stroke" d="
  M 366.39 409.79
  Q 366.73 411.73 367.73 411.88
  Q 373.50 412.75 376.14 413.54
  Q 380.76 414.93 385.34 418.35"
/>
<path stroke="#c7242c" vector-effect="non-scaling-stroke" d="
  M 385.34 418.35
  C 386.44 423.13 387.73 427.70 387.96 432.55
  Q 388.24 438.48 387.74 444.06
  Q 387.38 448.03 386.99 451.89
  Q 386.96 452.18 386.68 452.28
  Q 386.21 452.46 386.10 452.96
  C 385.23 457.06 383.80 461.05 383.12 465.13
  Q 382.54 468.58 381.43 471.91
  C 379.84 476.71 379.35 481.59 377.56 486.39
  Q 375.70 491.40 375.36 494.51
  Q 374.81 499.49 373.70 503.13
  Q 372.50 507.05 371.03 511.36
  C 370.76 512.13 371.01 512.81 370.84 513.51
  Q 369.91 517.39 368.66 520.88
  Q 367.37 524.49 366.91 528.06
  Q 366.34 532.42 364.96 536.76
  C 363.56 541.14 362.72 545.93 361.60 550.56
  C 361.10 552.60 359.91 553.99 359.56 555.99
  C 359.19 558.14 357.85 559.65 357.86 561.99
  Q 357.87 566.66 356.04 571.18
  C 355.68 572.06 356.09 573.12 355.66 573.96
  C 354.09 577.07 354.04 580.39 352.91 583.70
  Q 350.66 590.28 349.33 596.72
  Q 347.75 604.40 345.88 609.50
  C 345.02 611.83 345.09 614.25 344.08 616.49
  Q 342.95 618.97 342.37 621.70
  Q 341.55 625.49 340.80 629.38
  C 340.30 631.91 339.02 634.34 338.76 636.72
  Q 338.02 643.54 336.06 649.42
  C 334.32 654.63 333.05 659.87 332.12 665.16
  C 331.47 668.93 330.38 672.55 329.30 676.25
  Q 328.11 680.33 326.56 684.25
  Q 323.39 692.24 321.09 700.84
  C 320.53 702.95 318.86 703.76 317.94 705.00
  Q 315.96 707.68 313.85 710.56
  C 312.48 712.43 310.65 713.39 309.19 715.14
  Q 308.88 715.51 308.42 715.66
  C 306.52 716.29 305.17 717.53 303.27 718.16
  Q 297.96 719.92 292.68 723.24
  C 291.48 723.99 291.27 725.09 290.34 726.09
  C 287.56 729.04 288.64 733.68 287.73 737.19
  Q 287.29 738.92 287.68 740.89
  Q 287.77 741.38 288.25 741.51
  Q 289.18 741.78 289.69 742.49"
/>
<path stroke="#f57b82" vector-effect="non-scaling-stroke" d="
  M 289.69 742.49
  Q 290.42 742.91 291.75 742.91
  Q 358.25 742.94 424.75 743.05
  Q 452.29 743.10 476.77 741.61
  Q 501.52 740.11 526.19 734.50
  C 536.55 732.14 546.73 728.63 556.52 724.89
  C 571.40 719.21 585.23 711.29 598.43 702.14
  Q 626.05 683.00 645.97 656.59
  Q 655.87 643.46 662.88 629.11
  C 664.47 625.84 666.47 622.78 668.48 619.78
  A 2.15 2.14 -27.4 0 0 668.84 618.66
  Q 668.89 616.77 669.63 615.50
  Q 670.26 614.43 670.18 615.67
  C 669.29 629.83 670.28 643.79 672.88 657.84
  Q 679.09 691.38 702.83 714.74
  Q 709.06 720.87 718.10 726.50
  Q 734.03 736.43 751.70 741.12
  Q 768.34 745.54 785.16 747.24
  A 1.20 1.18 -3.8 0 1 786.19 748.13
  Q 786.63 749.88 787.27 751.58
  Q 792.70 766.18 797.84 779.25
  C 807.76 804.46 822.77 825.90 848.65 836.66
  C 866.16 843.94 885.52 844.96 904.40 843.10
  Q 927.38 840.83 948.37 829.37
  Q 961.70 822.09 974.03 813.24
  Q 976.65 811.36 979.27 809.51
  Q 984.49 805.83 995.29 796.56
  C 996.23 795.75 997.22 795.25 998.18 794.52
  A 0.99 0.98 -43.7 0 0 998.22 792.98
  L 977.69 775.73"
/>
<path stroke="#c7242c" vector-effect="non-scaling-stroke" d="
  M 977.69 775.73
  Q 976.79 772.66 973.92 771.95
  C 972.50 771.60 971.62 771.28 970.51 772.27
  C 968.18 774.35 966.05 776.52 963.31 777.92
  Q 961.17 779.01 959.42 780.42
  Q 955.92 783.24 952.16 785.07
  C 949.44 786.39 947.16 788.50 944.34 789.42
  Q 941.72 790.27 939.07 791.46
  C 933.11 794.15 927.58 794.54 921.20 794.46
  Q 919.11 794.43 916.48 793.47
  Q 910.56 791.31 904.59 791.01"
/>
<path stroke="#f57b82" vector-effect="non-scaling-stroke" d="
  M 904.59 791.01
  Q 896.91 785.31 893.46 779.55
  Q 890.47 774.56 887.39 769.14
  Q 884.16 763.46 876.29 744.37
  Q 875.78 743.14 876.16 741.28
  Q 876.26 740.83 876.71 740.85
  Q 878.27 740.90 879.94 740.52
  C 904.68 734.79 928.86 724.02 949.40 708.72
  Q 960.65 700.33 964.85 696.53
  C 984.99 678.32 1002.89 657.05 1015.39 632.18
  Q 1022.25 618.52 1026.41 608.46
  Q 1036.56 583.88 1041.69 555.24
  Q 1044.37 540.31 1045.02 535.75
  Q 1047.88 515.76 1046.91 493.59
  Q 1045.97 472.01 1038.75 453.03
  Q 1029.33 428.29 1008.34 411.09
  Q 1001.69 405.64 991.69 400.42
  Q 969.92 389.06 945.30 385.63"
/>
<path stroke="#c7242c" vector-effect="non-scaling-stroke" d="
  M 945.30 385.63
  Q 940.80 382.11 933.48 381.70
  Q 918.65 380.87 904.84 380.19
  Q 895.40 379.72 886.88 380.39
  Q 874.73 381.36 862.61 382.70
  C 858.01 383.22 852.90 385.02 847.90 385.57
  C 839.12 386.54 829.66 388.28 821.33 391.59
  C 814.20 394.41 806.88 396.63 799.87 399.75
  Q 789.33 404.44 779.23 410.09
  C 772.08 414.10 766.17 418.83 759.65 423.48
  C 755.17 426.69 750.72 430.70 746.89 434.76
  Q 737.82 444.43 729.11 452.91
  C 723.30 458.57 718.86 465.65 713.50 472.05
  Q 703.81 483.64 698.14 496.74
  Q 693.45 507.57 689.16 518.92
  Q 688.50 520.67 688.12 518.84
  Q 687.05 513.55 686.83 507.31"
/>
<path stroke="#c78a8f" vector-effect="non-scaling-stroke" d="
  M 945.30 385.63
  Q 928.98 382.81 912.41 382.93
  C 909.75 382.95 907.33 382.16 904.57 382.28
  Q 887.61 383.00 875.84 384.09
  Q 844.62 386.97 813.91 398.44
  Q 799.84 403.70 784.85 411.89
  C 775.53 416.99 767.50 423.04 759.17 429.38
  Q 736.51 446.62 719.12 470.66
  Q 714.16 477.51 709.18 484.99
  Q 705.72 490.19 703.61 494.87
  C 700.20 502.42 696.08 509.49 693.01 517.29
  Q 690.94 522.55 689.28 527.13
  Q 687.96 530.78 687.93 526.89
  Q 687.92 525.18 687.90 522.92
  Q 687.88 521.46 687.31 519.01
  C 686.46 515.35 686.90 511.05 686.83 507.31"
/>
<path stroke="#c78a8f" vector-effect="non-scaling-stroke" d="
  M 904.59 791.01
  Q 922.15 800.66 943.12 793.70
  Q 951.29 790.99 958.22 786.41
  Q 966.63 780.85 973.32 774.36
  Q 973.66 774.02 974.15 774.01
  Q 976.12 773.97 977.69 775.73"
/>
<path stroke="#c78a8f" vector-effect="non-scaling-stroke" d="
  M 289.69 742.49
  Q 289.30 742.07 289.40 741.74
  Q 291.25 735.20 293.07 727.80
  Q 293.54 725.86 295.56 725.26
  C 301.46 723.49 307.60 721.50 312.35 717.64
  Q 319.12 712.15 323.34 703.74
  Q 327.09 696.25 328.98 690.04
  Q 333.40 675.46 337.00 660.41
  C 341.96 639.61 349.41 612.11 355.88 585.59
  Q 362.58 558.13 369.86 530.97
  C 371.65 524.27 373.14 517.47 374.93 510.95
  Q 377.12 502.93 378.82 496.00
  Q 381.58 484.79 385.19 470.98
  Q 388.61 457.91 389.34 452.43
  Q 390.91 440.72 390.34 427.50
  Q 390.15 422.93 385.34 418.35"
/>
<path stroke="#c78a8f" vector-effect="non-scaling-stroke" d="
  M 366.39 409.79
  L 370.09 395.58
  A 2.17 2.16 7.2 0 1 372.17 393.97
  Q 438.08 393.57 502.75 393.94
  Q 519.51 394.03 533.44 395.13
  C 543.87 395.95 554.80 396.49 565.43 398.18
  Q 583.75 401.08 601.55 406.38"
/>
<path stroke="#f2767e" vector-effect="non-scaling-stroke" d="
  M 1016.69 713.94
  Q 1020.72 722.43 1028.36 726.15
  C 1039.55 731.60 1053.06 728.89 1060.34 718.45
  Q 1063.97 713.22 1064.70 708.02
  Q 1067.34 689.10 1050.13 680.38"
/>
<path stroke="#c7242c" vector-effect="non-scaling-stroke" d="
  M 1050.13 680.38
  Q 1048.61 677.19 1044.29 676.11
  Q 1039.90 675.00 1032.89 676.02
  C 1030.36 676.38 1028.33 677.99 1025.83 678.81
  Q 1022.07 680.04 1017.13 685.09
  C 1015.35 686.92 1015.05 689.18 1013.79 691.29
  C 1011.63 694.92 1012.18 700.75 1012.09 704.88
  C 1012.06 706.68 1013.08 708.13 1013.33 709.97
  Q 1013.40 710.50 1013.77 710.88
  L 1016.69 713.94"
/>
<path stroke="#c4858b" vector-effect="non-scaling-stroke" d="
  M 1050.13 680.38
  Q 1031.72 673.91 1020.30 687.78
  Q 1011.29 698.72 1016.69 713.94"
/>
<path stroke="#f39e0d" vector-effect="non-scaling-stroke" d="
  M 891.80 239.84
  L 873.19 239.36
  Q 872.65 239.35 872.24 239.71
  C 865.98 245.16 859.33 248.48 850.65 247.70
  C 843.77 247.08 838.44 247.81 833.19 252.97
  Q 827.31 258.76 821.34 264.90
  C 813.09 273.38 801.04 282.10 792.29 292.22
  C 788.31 296.81 784.52 299.29 778.47 300.06
  Q 773.54 300.68 768.65 300.59
  Q 754.78 300.31 738.58 298.98
  Q 738.43 298.97 738.55 299.06
  Q 738.60 299.09 738.66 299.07
  Q 738.74 299.04 738.83 299.05
  C 744.22 299.54 749.68 299.71 754.98 300.35
  Q 772.64 302.47 790.00 303.85
  C 798.21 304.51 806.48 306.00 814.67 307.13
  C 823.03 308.28 831.18 310.49 839.35 311.65
  C 846.25 312.62 852.56 314.55 859.49 315.46
  Q 866.08 316.32 872.73 318.14
  Q 886.08 321.78 899.53 325.06
  C 902.12 325.69 904.24 327.15 906.92 327.76
  Q 910.87 328.66 915.09 329.59
  Q 919.35 330.54 926.98 335.58"
/>
<path stroke="#f18f0b" vector-effect="non-scaling-stroke" d="
  M 1030.91 265.78
  C 1023.07 273.39 1016.14 275.75 1006.92 278.86
  C 988.15 285.20 968.93 299.84 956.70 316.30
  Q 956.67 316.32 951.62 323.94
  Q 946.09 332.26 938.68 339.28"
/>
<path stroke="#c78a8f" vector-effect="non-scaling-stroke" d="
  M 775.46 701.55
  Q 779.85 706.72 785.91 710.32
  Q 792.60 714.29 798.06 715.37
  C 805.04 716.75 812.62 717.94 819.92 717.09
  C 828.57 716.09 836.13 714.75 844.30 710.88
  Q 859.59 703.65 871.41 692.74
  Q 885.32 679.91 895.10 666.47
  Q 909.92 646.09 919.70 624.64
  Q 928.06 606.30 931.85 595.57
  Q 938.51 576.70 943.73 555.52
  C 945.17 549.66 946.35 543.65 947.73 537.67
  Q 949.25 531.04 950.43 524.25
  C 951.73 516.83 953.16 509.18 953.77 501.81
  Q 954.49 493.03 955.05 485.04
  C 955.34 480.82 955.35 476.39 954.80 472.12
  Q 954.11 466.76 953.70 461.43
  C 953.38 457.29 952.40 453.25 951.39 449.20"
/>
<path stroke="#f57b82" vector-effect="non-scaling-stroke" d="
  M 951.39 449.20
  C 947.38 432.98 937.92 420.43 921.28 415.79
  Q 909.06 412.39 897.62 413.32
  C 875.89 415.10 856.37 427.00 840.58 442.74
  C 824.65 458.63 811.78 477.49 801.60 497.36
  Q 785.94 527.92 777.18 559.85
  Q 768.22 592.48 764.14 625.75
  Q 762.00 643.22 763.66 667.01
  C 763.94 670.92 764.88 674.61 765.65 678.45
  Q 766.62 683.32 767.58 686.11
  Q 770.55 694.73 775.46 701.55"
/>
<path stroke="#c7242c" vector-effect="non-scaling-stroke" d="
  M 951.39 449.20
  C 949.66 464.03 954.12 478.55 952.24 493.18
  C 951.81 496.54 950.25 499.54 950.21 502.92
  C 950.18 505.89 950.14 508.71 949.27 511.62
  Q 948.37 514.64 948.11 517.61
  Q 947.88 520.33 946.93 523.11
  Q 945.43 527.49 945.01 532.74
  C 944.87 534.38 944.10 535.70 943.99 537.34
  Q 943.86 539.08 943.24 540.56
  Q 941.91 543.74 941.76 547.09
  C 941.64 549.87 940.28 552.32 939.94 555.09
  Q 939.60 557.78 938.70 560.39
  C 937.43 564.04 937.00 567.89 935.81 571.63
  Q 934.12 576.93 932.65 582.51
  C 932.47 583.20 931.96 583.53 931.76 584.12
  C 930.49 587.90 929.61 591.95 928.05 595.61
  Q 927.25 597.48 926.59 599.68
  Q 925.65 602.84 924.45 605.94
  C 922.82 610.15 920.15 613.66 918.81 617.93
  C 917.39 622.43 914.68 626.08 913.00 630.39
  C 912.27 632.28 910.91 633.60 910.39 635.54
  Q 909.92 637.31 908.78 639.04
  Q 904.52 645.53 900.51 651.02
  C 898.53 653.73 896.81 656.58 894.74 659.26
  Q 889.54 665.98 884.60 672.90
  C 878.89 680.91 871.90 686.55 864.61 692.94
  C 856.20 700.32 847.47 704.84 837.16 709.08
  Q 832.40 711.03 828.31 711.67
  C 821.80 712.69 815.87 715.24 809.19 713.97
  Q 803.00 712.79 796.34 711.76
  C 788.99 710.62 781.65 705.80 775.46 701.55"
/>
<path stroke="#c78a8f" vector-effect="non-scaling-stroke" d="
  M 414.33 704.55
  Q 412.99 707.50 413.03 710.31
  A 1.12 1.11 1.7 0 0 414.07 711.41
  Q 435.74 713.02 456.28 710.86
  C 496.28 706.65 528.70 687.14 551.61 654.67
  Q 562.72 638.92 570.24 623.01
  Q 581.89 598.34 588.47 567.22
  Q 592.62 547.54 593.04 528.97
  Q 593.28 518.77 593.02 506.42
  C 592.67 489.17 588.13 472.35 578.85 457.94"
/>
<path stroke="#f57b82" vector-effect="non-scaling-stroke" d="
  M 578.85 457.94
  Q 567.56 441.53 550.26 433.21
  C 530.20 423.58 507.51 424.63 485.89 425.35
  Q 485.28 425.37 485.14 425.96
  Q 478.06 456.13 473.45 473.28
  Q 470.54 484.11 467.97 494.97
  C 467.01 499.03 465.66 502.98 464.76 507.00
  C 462.07 518.94 458.52 530.91 455.80 542.38
  Q 454.09 549.63 452.22 556.48
  C 450.50 562.80 449.33 569.19 447.43 575.54
  Q 445.23 582.88 443.65 589.86
  Q 441.77 598.17 439.84 605.64
  Q 427.05 655.06 414.33 704.55"
/>
<path stroke="#c7242c" vector-effect="non-scaling-stroke" d="
  M 578.85 457.94
  Q 579.34 461.39 579.87 462.65
  Q 582.75 469.51 585.63 476.43
  Q 587.78 481.58 589.55 491.42
  Q 592.01 505.11 591.56 518.60
  C 591.25 527.93 591.00 537.90 589.42 546.78
  C 587.95 554.96 587.54 563.66 585.41 571.79
  Q 582.51 582.82 578.38 596.19
  C 577.64 598.58 576.50 600.74 575.78 603.05
  Q 574.99 605.57 573.89 607.96
  Q 569.28 617.98 564.84 628.08
  C 563.59 630.91 561.92 633.39 560.52 636.14
  C 560.10 636.97 559.35 637.46 558.87 638.25
  C 555.85 643.23 552.38 647.93 549.07 652.76
  Q 547.32 655.31 545.06 657.47
  C 544.09 658.39 543.80 659.78 542.84 660.84
  Q 538.52 665.58 534.24 670.11
  Q 530.17 674.43 525.77 677.69
  Q 519.72 682.18 513.56 686.80
  Q 510.21 689.31 505.89 691.87
  C 502.82 693.70 499.53 694.64 496.62 696.58
  Q 494.75 697.82 492.67 698.29
  Q 489.19 699.08 485.93 700.63
  Q 483.46 701.81 480.34 702.55
  C 467.55 705.61 452.66 708.65 440.90 709.10
  Q 434.07 709.36 425.67 708.97
  Q 418.86 708.65 414.33 704.55"
/>
<path stroke="#c78a8f" vector-effect="non-scaling-stroke" d="
  M 880.81 908.03
  C 870.64 913.12 859.44 919.25 850.34 923.50
  Q 819.11 938.08 785.79 946.91
  Q 775.91 949.52 766.27 951.20
  Q 750.32 953.98 742.46 954.92
  Q 724.56 957.06 698.80 958.04
  Q 674.72 958.95 662.72 959.12
  C 651.81 959.28 639.87 958.22 628.92 957.35
  Q 611.12 955.95 592.32 950.90
  Q 584.43 948.78 569.69 943.54"
/>
<path stroke="#f2767e" vector-effect="non-scaling-stroke" d="
  M 1050.24 716.41
  Q 1050.52 716.77 1050.91 716.55
  C 1053.96 714.92 1055.30 711.83 1056.30 708.72
  Q 1058.34 702.34 1055.24 696.35
  Q 1051.02 688.22 1041.23 686.46
  Q 1037.94 685.86 1034.48 687.50
  C 1027.22 690.92 1020.59 698.27 1022.90 706.66
  Q 1026.30 718.99 1038.71 720.91
  C 1041.31 721.31 1043.82 720.45 1046.32 719.81
  Q 1050.04 718.87 1046.52 717.36
  C 1044.93 716.67 1043.61 715.19 1042.79 713.69
  C 1041.41 711.17 1039.05 706.46 1035.66 707.31
  Q 1035.21 707.42 1035.11 707.88
  Q 1034.16 712.01 1034.59 716.13
  A 1.88 1.87 -11.7 0 1 1033.28 718.11
  C 1032.23 718.43 1031.31 717.96 1030.97 716.90
  Q 1030.39 715.11 1030.37 713.34
  Q 1030.27 705.86 1030.41 697.77
  Q 1030.46 695.08 1030.93 692.30
  A 1.43 1.43 0.0 0 1 1032.40 691.11
  C 1036.96 691.29 1041.50 690.54 1045.68 693.00
  Q 1048.96 694.94 1048.67 699.14
  Q 1048.33 703.97 1043.92 705.82
  A 1.23 1.22 59.6 0 0 1043.43 707.71
  L 1050.24 716.41"
/>
<path stroke="#c4858b" vector-effect="non-scaling-stroke" d="
  M 1034.81 696.65
  L 1034.73 701.37
  A 1.80 1.80 0.0 0 0 1036.51 703.20
  L 1038.20 703.23
  A 6.52 3.98 0.9 0 0 1044.79 699.35
  L 1044.79 698.99
  A 6.52 3.98 0.9 0 0 1038.34 694.91
  L 1036.64 694.88
  A 1.80 1.80 0.0 0 0 1034.81 696.65"
/>
<path stroke="#6da2d2" vector-effect="non-scaling-stroke" d="
  M 326.97 805.29
  C 279.99 785.55 238.02 763.94 197.72 738.82
  Q 186.79 732.00 176.16 724.73
  Q 175.50 724.28 174.92 723.69
  A 0.87 0.86 -62.0 0 0 173.46 724.14
  L 149.50 848.27"
/>
<path stroke="#196ab9" vector-effect="non-scaling-stroke" d="
  M 477.09 854.87
  Q 468.06 855.74 460.22 853.34
  Q 450.93 850.49 443.70 849.29"
/>
<path stroke="#1764b5" vector-effect="non-scaling-stroke" d="
  M 443.70 849.29
  Q 438.82 847.65 430.11 845.43
  C 422.06 843.38 414.17 840.21 405.83 837.59
  C 397.46 834.97 389.96 831.57 381.71 828.89
  C 375.60 826.90 369.50 824.11 363.17 822.22
  Q 360.88 821.53 358.60 821.91
  C 353.61 822.74 349.26 824.57 349.43 830.60
  Q 349.57 835.39 350.84 839.49
  Q 355.59 854.76 359.15 869.64
  C 363.71 888.68 370.88 905.07 382.77 920.71
  Q 383.07 921.11 383.57 921.22
  Q 398.43 924.68 409.58 926.01
  C 415.13 926.68 420.38 928.98 426.31 928.96
  C 432.43 928.94 438.63 929.79 444.95 931.01
  Q 450.46 932.07 456.06 932.52"
/>
<path stroke="#196ab9" vector-effect="non-scaling-stroke" d="
  M 456.06 932.52
  Q 465.17 933.70 474.34 934.05
  Q 486.66 934.53 492.62 934.98
  Q 514.94 936.63 535.42 936.00
  C 543.41 935.76 551.27 933.74 559.35 933.82
  Q 570.72 933.93 582.02 932.96"
/>
<path stroke="#574774" vector-effect="non-scaling-stroke" d="
  M 582.02 932.96
  L 587.99 933.28"
/>
<path stroke="#859eca" vector-effect="non-scaling-stroke" d="
  M 555.72 938.77
  C 551.16 937.32 545.99 938.13 541.26 938.24
  Q 508.90 939.00 475.53 936.35
  Q 465.65 935.56 452.95 934.27
  C 436.98 932.64 421.44 930.70 404.97 927.67
  Q 395.78 925.98 386.50 924.51
  Q 377.17 923.02 346.60 916.21"
/>
<path stroke="#1b73bf" vector-effect="non-scaling-stroke" d="
  M 443.70 849.29
  Q 440.98 857.67 443.86 866.34
  Q 447.24 876.53 450.68 886.70
  Q 458.27 909.14 456.06 932.52"
/>
<path stroke="#5b567e" vector-effect="non-scaling-stroke" d="
  M 539.55 866.35
  Q 542.83 867.07 546.11 867.31
  Q 550.07 867.59 552.69 868.08
  Q 558.53 869.16 564.46 869.58
  C 566.86 869.74 569.62 870.55 571.52 870.62
  Q 580.39 870.98 589.18 871.33"
/>
<path stroke="#196ab9" vector-effect="non-scaling-stroke" d="
  M 589.18 871.33
  Q 598.95 872.08 608.68 872.90
  C 617.99 873.68 626.83 873.32 635.79 873.65
  C 642.42 873.89 649.01 873.61 655.61 873.59
  Q 662.15 873.57 670.42 872.99
  Q 678.58 872.42 687.60 872.18
  Q 688.49 872.15 688.94 871.75
  Q 689.30 871.42 689.78 871.36
  L 696.23 870.58"
/>
<path stroke="#5b567e" vector-effect="non-scaling-stroke" d="
  M 746.67 865.49
  C 749.27 865.86 750.90 865.01 753.30 864.87
  Q 754.27 864.81 755.23 864.68
  Q 761.85 863.75 767.91 863.05
  Q 774.80 862.24 780.52 861.18
  Q 787.99 859.80 795.42 858.47
  C 797.74 858.06 799.83 857.29 802.17 857.02
  Q 804.70 856.73 807.26 856.17
  C 811.48 855.24 815.78 854.74 819.99 853.65
  Q 830.63 850.90 840.39 850.30
  Q 840.89 850.27 840.97 850.76
  Q 841.09 851.48 840.41 851.72
  Q 837.46 852.78 835.01 854.38
  Q 832.43 856.07 829.77 857.27
  Q 824.32 859.74 818.75 862.61
  C 812.67 865.73 806.37 868.54 800.32 871.52
  Q 797.34 872.99 794.40 874.20
  C 787.95 876.85 781.91 880.60 775.25 882.68
  C 772.19 883.64 768.20 885.57 766.26 886.32
  Q 761.02 888.32 755.81 890.42
  C 753.02 891.55 750.18 892.32 747.45 893.62
  Q 744.48 895.04 741.27 896.00
  C 737.53 897.12 734.07 898.79 730.23 899.79
  C 725.80 900.96 721.85 902.75 717.48 903.99
  C 713.37 905.15 709.53 907.19 705.36 907.96
  Q 701.35 908.69 697.94 910.12
  Q 694.59 911.52 690.97 912.16
  C 685.63 913.12 680.65 915.14 675.44 916.12
  C 669.55 917.24 663.97 919.04 658.33 920.08
  Q 651.69 921.30 645.62 922.92
  Q 642.13 923.86 638.80 924.22
  Q 635.28 924.60 631.73 925.08
  Q 627.36 925.67 624.29 926.58
  Q 619.51 927.99 616.94 928.35
  Q 609.40 929.40 601.80 929.87
  Q 598.22 930.09 593.95 931.12
  Q 588.07 932.55 582.02 932.96"
/>
<path stroke="#574774" vector-effect="non-scaling-stroke" d="
  M 595.06 871.11
  L 589.18 871.33"
/>
<path stroke="#574774" vector-effect="non-scaling-stroke" d="
  M 609.96 872.12
  Q 624.81 873.24 639.73 872.50"
/>
</g>
<path fill="#efd7dd" d="
  M 449.14 0.00
  C 443.60 4.81 437.62 8.60 437.34 16.72
  C 437.00 26.58 439.16 38.20 441.33 47.82
  Q 445.56 66.59 450.07 87.45
  C 454.17 106.46 450.28 124.96 438.51 140.20
  C 433.47 146.72 429.63 153.81 424.74 160.37
  Q 422.00 164.05 419.85 167.89
  C 412.90 180.30 398.26 191.21 386.15 196.12
  C 378.70 199.14 370.70 200.84 363.07 203.53
  Q 356.79 205.74 350.33 208.69
  C 342.25 212.39 333.20 215.54 324.60 217.15
  C 315.25 218.90 305.32 220.29 296.20 223.34
  C 285.68 226.87 275.18 230.89 264.33 233.81
  Q 246.66 238.58 226.78 244.38
  Q 216.21 247.46 209.78 252.06
  Q 199.87 259.16 192.64 262.83
  C 182.15 268.15 170.30 273.05 160.61 280.21
  Q 144.82 291.86 129.39 302.44
  C 115.75 311.77 107.02 319.14 100.22 332.44
  Q 94.71 343.23 92.90 349.46
  Q 89.11 362.46 86.30 369.09
  C 82.49 378.06 78.37 386.58 77.94 396.32
  Q 77.27 411.93 74.83 428.01
  Q 71.82 447.93 77.83 466.70
  C 80.60 475.36 85.51 484.28 88.07 492.71
  Q 91.50 503.98 94.92 516.33
  C 99.04 531.17 105.50 543.98 112.73 557.43
  Q 119.32 569.67 116.98 583.63
  C 115.57 585.33 112.86 587.41 115.15 589.86
  Q 121.14 596.26 127.70 603.02
  Q 136.30 611.90 144.25 620.18
  Q 166.87 643.74 191.31 669.26
  C 206.36 684.98 221.50 700.40 236.60 716.40
  Q 255.54 736.47 269.05 749.46
  Q 280.20 760.19 294.52 772.21
  Q 312.74 787.49 329.66 801.16
  Q 329.85 801.32 330.08 801.39
  Q 330.37 801.47 330.60 801.64
  L 343.65 811.38
  Q 343.88 811.55 343.67 811.74
  Q 343.54 811.87 343.28 811.85
  L 326.97 805.29
  Q 322.13 800.89 317.27 798.49
  C 312.04 795.90 306.50 793.98 301.34 790.85
  C 296.41 787.86 290.98 785.96 285.93 783.30
  C 276.80 778.50 267.09 774.31 258.23 769.61
  C 249.88 765.18 241.16 761.36 232.88 756.34
  Q 216.51 746.40 203.59 737.63
  C 200.39 735.47 196.85 734.61 193.67 732.04
  C 187.70 727.23 180.60 722.36 172.97 721.35
  A 1.82 1.81 -77.7 0 0 171.00 722.62
  Q 169.43 727.70 167.91 732.85
  C 166.95 736.09 166.71 739.40 166.49 742.74
  C 166.21 747.20 164.99 751.74 163.71 756.11
  C 162.30 760.92 162.27 765.78 162.01 770.77
  C 161.91 772.59 160.78 773.99 160.41 775.67
  C 159.53 779.64 157.99 783.51 157.76 787.53
  C 157.58 790.86 156.24 794.05 155.50 797.31
  Q 154.36 802.32 153.13 807.49
  C 152.31 810.93 152.79 814.32 151.85 817.58
  Q 150.73 821.45 149.54 825.45
  C 148.42 829.25 148.85 834.11 149.02 838.24
  Q 149.03 838.59 148.81 843.23
  Q 148.69 845.82 149.50 848.27
  Q 175.26 859.08 201.01 869.64
  Q 237.39 884.55 251.99 889.26
  Q 281.29 898.70 290.70 901.54
  Q 315.50 909.03 346.60 916.21
  Q 337.16 921.85 328.13 927.69
  C 318.33 934.01 317.73 942.22 319.89 952.45
  Q 321.68 960.90 324.73 970.25
  C 328.90 983.01 329.92 995.03 327.08 1007.63
  C 325.00 1016.87 323.07 1026.11 324.12 1035.37
  Q 324.90 1042.20 326.42 1049.61
  C 329.13 1062.89 326.70 1076.62 325.09 1090.15
  Q 323.96 1099.61 323.21 1120.24
  Q 323.00 1125.93 323.58 1131.01
  Q 325.40 1146.99 326.00 1154.17
  Q 327.77 1175.31 339.75 1192.49
  Q 342.89 1197.01 351.68 1208.95
  Q 365.47 1227.69 362.56 1252.00
  L 0.00 1252.00
  L 0.00 0.00
  L 449.14 0.00
  Z"
/>
<path fill="#f4e1e5" d="
  M 1017.99 0.00
  Q 1021.14 1.75 1024.29 3.58
  C 1034.58 9.56 1038.00 17.48 1041.69 28.45
  C 1044.92 38.03 1047.26 47.90 1049.26 57.50
  C 1051.25 67.03 1053.70 74.60 1056.50 83.07
  Q 1062.51 101.25 1060.56 121.80
  Q 1058.79 140.43 1056.72 160.40
  Q 1055.02 176.86 1043.76 190.80
  Q 1028.25 210.02 1011.42 236.31
  C 1004.50 247.12 991.76 247.15 980.15 245.59
  Q 955.60 242.28 932.77 240.37
  C 927.89 239.96 923.58 238.27 918.56 238.38
  Q 913.38 238.49 908.44 238.31
  C 905.68 238.21 903.49 236.88 900.62 237.39
  C 898.15 237.82 895.61 238.01 893.17 237.63
  Q 888.16 236.84 885.93 237.01
  Q 874.68 237.82 866.70 237.44
  Q 864.25 237.32 861.79 237.55
  Q 836.19 237.16 827.93 236.76
  Q 826.35 236.68 822.46 235.56
  Q 816.42 234.45 810.50 232.84
  Q 803.53 230.95 795.49 229.18
  C 787.73 227.47 779.90 225.48 772.19 224.08
  Q 703.68 211.56 633.96 216.20
  Q 623.59 216.89 613.40 218.07
  C 590.33 220.75 570.02 223.50 549.18 230.20
  Q 534.39 234.96 520.75 239.46
  Q 511.48 242.52 502.27 246.57
  Q 479.87 256.44 457.07 268.26
  Q 429.99 282.31 413.39 294.33
  Q 400.39 303.75 387.17 314.47
  C 372.16 326.65 356.04 339.15 340.96 352.09
  C 325.70 365.18 310.69 377.89 297.69 391.68
  Q 284.35 405.83 270.54 422.62
  C 266.69 427.31 262.45 431.93 258.25 436.25
  Q 234.40 460.83 210.91 485.76
  Q 204.02 493.07 197.08 500.23
  C 170.24 527.89 143.92 555.98 116.98 583.63
  Q 119.32 569.67 112.73 557.43
  C 105.50 543.98 99.04 531.17 94.92 516.33
  Q 91.50 503.98 88.07 492.71
  C 85.51 484.28 80.60 475.36 77.83 466.70
  Q 71.82 447.93 74.83 428.01
  Q 77.27 411.93 77.94 396.32
  C 78.37 386.58 82.49 378.06 86.30 369.09
  Q 89.11 362.46 92.90 349.46
  Q 94.71 343.23 100.22 332.44
  C 107.02 319.14 115.75 311.77 129.39 302.44
  Q 144.82 291.86 160.61 280.21
  C 170.30 273.05 182.15 268.15 192.64 262.83
  Q 199.87 259.16 209.78 252.06
  Q 216.21 247.46 226.78 244.38
  Q 246.66 238.58 264.33 233.81
  C 275.18 230.89 285.68 226.87 296.20 223.34
  C 305.32 220.29 315.25 218.90 324.60 217.15
  C 333.20 215.54 342.25 212.39 350.33 208.69
  Q 356.79 205.74 363.07 203.53
  C 370.70 200.84 378.70 199.14 386.15 196.12
  C 398.26 191.21 412.90 180.30 419.85 167.89
  Q 422.00 164.05 424.74 160.37
  C 429.63 153.81 433.47 146.72 438.51 140.20
  C 450.28 124.96 454.17 106.46 450.07 87.45
  Q 445.56 66.59 441.33 47.82
  C 439.16 38.20 437.00 26.58 437.34 16.72
  C 437.62 8.60 443.60 4.81 449.14 0.00
  L 1017.99 0.00
  Z"
/>
<path fill="#efd7dd" d="
  M 1252.00 0.00
  L 1252.00 1252.00
  L 1037.60 1252.00
  Q 1039.78 1244.65 1035.04 1238.68
  C 1030.71 1233.21 1025.25 1227.71 1021.72 1222.24
  Q 1016.67 1214.38 1012.26 1204.25
  Q 1005.30 1188.21 999.93 1175.24
  C 996.89 1167.86 992.89 1159.67 989.22 1153.65
  Q 979.90 1138.35 971.77 1123.77
  C 968.35 1117.64 964.72 1111.72 960.85 1105.89
  C 953.90 1095.42 949.98 1085.60 946.62 1073.31
  C 942.73 1059.06 939.48 1045.92 937.97 1031.36
  C 935.91 1011.34 932.80 991.59 926.80 972.78
  Q 921.91 957.45 912.82 947.25
  C 909.63 943.67 906.98 940.09 905.74 935.59
  C 904.69 931.76 903.87 927.83 902.03 924.39
  C 897.65 916.22 889.45 910.91 880.81 908.03
  Q 901.72 895.80 911.79 889.29
  Q 925.04 880.71 945.80 866.02
  C 955.54 859.12 964.74 851.44 974.21 844.18
  C 982.43 837.88 989.60 831.50 997.36 824.96
  Q 1005.72 817.93 1012.32 811.81
  Q 1019.43 805.22 1026.39 798.99
  C 1035.84 790.53 1044.61 781.33 1053.79 772.18
  C 1063.86 762.15 1072.97 751.65 1082.22 740.83
  C 1089.90 731.84 1097.88 723.74 1105.95 715.42
  C 1108.80 712.49 1111.31 709.26 1114.17 706.40
  Q 1124.68 695.88 1134.73 685.27
  C 1140.43 679.26 1146.34 673.62 1151.90 667.41
  C 1162.60 655.45 1174.17 644.09 1185.33 632.13
  C 1190.20 626.91 1195.38 622.14 1200.09 616.93
  C 1208.61 607.53 1219.05 597.53 1226.26 589.46
  Q 1228.89 586.52 1224.76 584.21
  Q 1222.98 581.64 1221.80 580.45
  C 1196.59 554.96 1175.48 532.34 1152.07 508.31
  C 1131.75 487.47 1111.81 466.25 1091.60 445.48
  C 1083.72 437.37 1076.49 428.13 1068.93 420.55
  C 1055.20 406.77 1040.90 392.45 1026.17 378.54
  Q 1021.46 374.10 1016.68 368.91
  Q 1022.41 370.29 1028.96 373.27
  Q 1045.23 380.69 1062.49 388.70
  C 1072.80 393.48 1082.84 398.97 1092.79 404.17
  Q 1098.92 407.37 1107.32 412.19
  Q 1135.88 428.59 1161.48 446.10
  A 1.34 1.34 0.0 0 0 1163.54 445.32
  C 1164.03 443.39 1164.02 441.43 1164.52 439.52
  C 1166.63 431.48 1168.19 423.18 1170.20 415.11
  Q 1172.33 406.54 1174.20 397.68
  C 1175.54 391.38 1177.18 385.33 1178.61 378.93
  Q 1184.97 350.62 1190.63 327.38
  A 1.65 1.65 0.0 0 0 1189.72 325.49
  Q 1184.58 323.12 1178.93 320.39
  Q 1173.14 317.60 1168.29 315.59
  Q 1142.06 304.69 1121.90 296.89
  Q 1098.42 287.81 1069.75 278.04
  Q 1061.16 275.11 1030.91 265.78
  Q 998.09 256.41 985.27 253.44
  Q 965.57 248.89 959.76 247.93
  Q 945.42 245.55 931.07 243.15
  C 929.07 242.81 926.88 242.96 924.75 242.70
  Q 915.77 241.58 906.74 240.98
  Q 905.19 240.87 899.30 240.16
  Q 895.53 239.71 891.80 239.84
  L 876.52 238.80
  Q 876.04 238.77 875.63 238.53
  Q 875.31 238.35 875.00 238.33
  Q 868.40 237.92 861.79 237.55
  Q 864.25 237.32 866.70 237.44
  Q 874.68 237.82 885.93 237.01
  Q 888.16 236.84 893.17 237.63
  C 895.61 238.01 898.15 237.82 900.62 237.39
  C 903.49 236.88 905.68 238.21 908.44 238.31
  Q 913.38 238.49 918.56 238.38
  C 923.58 238.27 927.89 239.96 932.77 240.37
  Q 955.60 242.28 980.15 245.59
  C 991.76 247.15 1004.50 247.12 1011.42 236.31
  Q 1028.25 210.02 1043.76 190.80
  Q 1055.02 176.86 1056.72 160.40
  Q 1058.79 140.43 1060.56 121.80
  Q 1062.51 101.25 1056.50 83.07
  C 1053.70 74.60 1051.25 67.03 1049.26 57.50
  C 1047.26 47.90 1044.92 38.03 1041.69 28.45
  C 1038.00 17.48 1034.58 9.56 1024.29 3.58
  Q 1021.14 1.75 1017.99 0.00
  L 1252.00 0.00
  Z"
/>
<path fill="#f5151e" d="
  M 822.46 235.56
  Q 821.75 235.30 821.01 235.49
  Q 820.52 235.61 820.98 235.86
  Q 821.24 235.99 821.41 235.82
  A 0.21 0.21 0.0 0 1 821.77 236.00
  Q 821.59 237.23 819.01 237.64
  Q 818.30 237.75 817.59 237.76
  Q 799.31 238.06 781.39 238.09
  Q 771.80 238.10 762.47 238.58
  C 745.95 239.41 729.04 240.27 713.04 242.20
  C 706.30 243.01 699.75 244.33 693.17 245.28
  Q 686.14 246.31 678.35 247.98
  Q 664.23 251.01 650.39 253.97
  C 644.90 255.14 639.66 256.80 634.24 258.04
  C 626.63 259.78 619.34 261.90 611.88 263.80
  C 604.48 265.68 597.34 268.31 590.18 270.71
  Q 555.37 282.37 521.08 300.88
  C 513.92 304.75 507.24 308.99 500.33 313.26
  C 499.06 314.04 498.37 315.00 497.04 315.74
  C 493.61 317.63 489.44 320.09 487.02 323.25
  A 0.49 0.49 0.0 0 0 487.38 324.04
  C 489.65 324.20 491.47 323.22 493.61 322.82
  Q 497.10 322.18 500.85 321.24
  Q 504.51 320.32 508.18 319.57
  Q 513.60 318.45 518.71 317.59
  Q 524.22 316.66 529.43 315.46
  Q 534.55 314.29 540.01 313.56
  C 548.55 312.42 556.85 310.81 565.19 309.73
  Q 595.76 305.75 627.30 303.64
  Q 666.38 301.03 676.63 300.79
  C 700.48 300.23 723.53 300.53 746.69 302.52
  Q 759.33 303.61 772.75 304.70
  C 784.66 305.67 795.75 307.61 807.13 308.87
  C 815.46 309.80 823.66 311.73 832.03 312.98
  C 837.41 313.78 842.48 314.93 847.73 315.97
  Q 853.58 317.12 859.49 318.45
  Q 876.07 322.16 892.54 326.28
  C 904.18 329.19 915.32 331.55 926.98 335.58
  L 938.68 339.28
  Q 979.07 352.89 1009.55 364.95
  Q 1012.97 366.30 1016.68 368.91
  Q 1021.46 374.10 1026.17 378.54
  C 1040.90 392.45 1055.20 406.77 1068.93 420.55
  C 1076.49 428.13 1083.72 437.37 1091.60 445.48
  C 1111.81 466.25 1131.75 487.47 1152.07 508.31
  C 1175.48 532.34 1196.59 554.96 1221.80 580.45
  Q 1222.98 581.64 1224.76 584.21
  C 1220.70 589.40 1215.47 594.15 1211.59 598.76
  Q 1203.62 608.22 1197.37 613.54
  Q 1188.50 621.09 1180.24 630.49
  C 1176.55 634.70 1173.52 639.25 1169.45 643.34
  Q 1165.85 646.95 1162.44 650.22
  Q 1162.39 650.26 1162.35 650.22
  L 1162.13 649.99
  Q 1161.93 649.78 1162.15 649.59
  Q 1164.62 647.48 1166.99 645.14
  Q 1167.04 645.09 1166.99 645.04
  L 1166.99 645.03
  Q 1166.90 644.94 1166.80 645.02
  C 1160.83 650.63 1155.29 655.50 1150.32 662.79
  Q 1149.40 664.14 1150.61 663.05
  Q 1151.60 662.17 1152.45 660.92
  Q 1152.48 660.89 1152.51 660.91
  L 1152.71 661.07
  Q 1152.88 661.21 1152.73 661.36
  Q 1140.83 672.81 1127.20 687.56
  Q 1125.56 689.33 1123.82 691.02
  Q 1121.86 692.93 1120.15 694.92
  C 1117.99 697.44 1115.21 699.20 1113.25 701.69
  Q 1110.65 704.98 1107.89 707.70
  Q 1096.48 718.91 1087.25 728.70
  C 1084.96 731.13 1082.94 734.08 1080.68 736.55
  Q 1076.90 740.68 1073.56 744.92
  C 1070.14 749.26 1065.91 752.74 1062.46 757.18
  Q 1054.29 767.68 1044.23 776.86
  C 1036.00 784.36 1028.39 791.86 1020.08 799.25
  C 1016.50 802.43 1012.91 806.45 1009.62 809.16
  Q 1002.29 815.19 995.66 821.26
  C 990.50 825.98 984.85 830.02 979.57 834.64
  Q 973.71 839.77 967.39 844.23
  C 961.76 848.20 956.69 853.01 950.68 856.98
  C 944.36 861.17 938.53 866.15 932.28 870.35
  C 927.92 873.27 923.53 876.95 918.87 879.33
  C 915.09 881.25 912.17 884.03 908.20 885.95
  C 901.43 889.23 893.48 892.72 888.33 897.99
  C 887.37 898.96 886.20 899.26 885.14 900.09
  Q 883.97 901.00 882.58 901.58
  C 878.28 903.38 875.20 906.24 871.18 908.16
  Q 867.11 910.10 862.97 912.44
  C 856.09 916.33 849.11 919.17 842.09 923.01
  C 839.72 924.31 836.45 925.62 833.79 926.04
  Q 832.54 926.23 831.29 926.80
  Q 826.29 929.07 822.14 931.26
  C 819.42 932.69 816.53 933.31 813.72 934.50
  C 809.53 936.26 805.09 937.21 800.88 938.90
  Q 797.77 940.16 794.59 940.85
  Q 788.47 942.18 783.66 944.36
  C 781.88 945.17 779.97 944.62 778.19 945.48
  C 775.49 946.79 772.77 946.69 769.97 947.73
  Q 766.01 949.22 761.51 949.48
  Q 755.07 949.86 749.79 950.99
  C 742.78 952.49 736.12 953.62 728.68 954.01
  C 719.23 954.51 709.75 954.75 700.10 955.45
  Q 679.92 956.89 659.67 956.86
  C 653.94 956.85 648.37 956.15 642.81 955.94
  Q 636.10 955.69 630.26 954.93
  Q 624.86 954.22 619.71 954.08
  Q 614.81 953.94 609.24 952.71
  Q 603.36 951.41 597.35 950.18
  Q 592.07 949.09 586.75 947.43
  C 580.24 945.39 575.79 943.86 569.69 943.54
  L 555.72 938.77
  L 555.42 937.59
  A 0.93 0.92 -9.8 0 1 556.24 936.44
  Q 569.22 935.28 581.88 934.46
  C 583.96 934.32 585.89 933.64 587.99 933.28
  Q 599.17 932.69 610.20 930.46
  C 617.29 929.03 623.33 928.47 630.13 927.86
  C 632.31 927.66 634.27 926.97 636.33 926.37
  C 637.67 925.98 638.85 926.33 640.14 925.76
  Q 641.40 925.19 642.84 925.01
  Q 648.85 924.27 654.02 922.91
  Q 654.87 922.68 655.43 922.02
  A 1.24 1.23 -67.1 0 1 656.46 921.60
  Q 658.48 921.78 660.53 921.18
  Q 662.20 920.69 664.06 920.54
  Q 666.28 920.35 669.30 919.50
  C 676.76 917.38 684.28 915.90 691.72 913.72
  Q 696.43 912.34 701.15 911.19
  Q 704.44 910.40 707.68 909.23
  Q 710.49 908.21 713.55 907.26
  Q 735.85 900.34 760.10 890.70
  C 763.02 889.54 765.99 888.67 768.92 887.35
  C 772.41 885.79 776.11 884.73 779.62 883.13
  Q 799.33 874.19 817.98 865.22
  C 819.49 864.49 820.58 863.57 822.02 862.86
  Q 832.55 857.71 841.16 853.10
  Q 842.88 852.18 843.87 850.68
  A 1.36 1.36 0.0 0 0 842.59 848.58
  C 838.41 849.01 834.22 848.50 830.17 849.70
  C 826.88 850.67 823.63 851.68 820.27 852.35
  Q 814.85 853.41 809.30 854.60
  C 807.46 855.00 805.97 855.74 804.08 855.90
  Q 802.46 856.03 800.83 856.34
  Q 796.31 857.18 792.23 857.98
  Q 788.06 858.81 783.72 859.32
  Q 779.88 859.77 776.42 860.78
  Q 773.06 861.77 769.15 861.99
  Q 763.99 862.28 758.76 863.25
  Q 757.77 863.44 752.68 864.00
  Q 749.62 864.33 746.67 865.49
  L 696.23 870.58
  L 639.73 872.50
  L 609.96 872.12
  L 595.06 871.11
  Q 585.43 870.54 575.82 870.13
  C 572.88 870.00 570.41 869.15 567.59 868.92
  Q 564.71 868.69 561.40 868.15
  Q 550.63 866.43 539.55 866.35
  Q 536.80 866.66 533.88 866.00
  Q 529.90 865.09 528.40 864.92
  Q 524.15 864.44 520.29 863.59
  C 516.65 862.79 512.91 862.60 509.18 861.65
  C 506.29 860.92 503.36 860.82 500.40 860.13
  Q 497.23 859.38 493.90 858.77
  Q 485.37 857.20 477.09 854.87
  C 472.95 854.05 468.89 853.28 464.86 852.05
  Q 459.78 850.50 454.44 849.26
  Q 449.17 848.02 443.27 845.87
  C 441.44 845.21 439.40 845.14 437.47 844.53
  Q 426.29 841.00 414.00 837.25
  Q 403.33 833.99 389.27 828.63
  Q 367.41 820.30 346.25 812.26
  C 345.33 811.91 344.25 811.87 343.28 811.85
  Q 343.54 811.87 343.67 811.74
  Q 343.88 811.55 343.65 811.38
  L 330.60 801.64
  Q 330.37 801.47 330.08 801.39
  Q 329.85 801.32 329.66 801.16
  Q 312.74 787.49 294.52 772.21
  Q 280.20 760.19 269.05 749.46
  Q 255.54 736.47 236.60 716.40
  C 221.50 700.40 206.36 684.98 191.31 669.26
  Q 166.87 643.74 144.25 620.18
  Q 136.30 611.90 127.70 603.02
  Q 121.14 596.26 115.15 589.86
  C 112.86 587.41 115.57 585.33 116.98 583.63
  C 143.92 555.98 170.24 527.89 197.08 500.23
  Q 204.02 493.07 210.91 485.76
  Q 234.40 460.83 258.25 436.25
  C 262.45 431.93 266.69 427.31 270.54 422.62
  Q 284.35 405.83 297.69 391.68
  C 310.69 377.89 325.70 365.18 340.96 352.09
  C 356.04 339.15 372.16 326.65 387.17 314.47
  Q 400.39 303.75 413.39 294.33
  Q 429.99 282.31 457.07 268.26
  Q 479.87 256.44 502.27 246.57
  Q 511.48 242.52 520.75 239.46
  Q 534.39 234.96 549.18 230.20
  C 570.02 223.50 590.33 220.75 613.40 218.07
  Q 623.59 216.89 633.96 216.20
  Q 703.68 211.56 772.19 224.08
  C 779.90 225.48 787.73 227.47 795.49 229.18
  Q 803.53 230.95 810.50 232.84
  Q 816.42 234.45 822.46 235.56
  Z
  M 686.83 507.31
  Q 684.30 483.28 674.50 463.53
  Q 661.55 437.42 635.36 422.16
  Q 618.31 412.22 601.55 406.38
  C 595.92 402.24 587.87 399.91 581.20 398.68
  C 575.03 397.55 569.16 395.01 563.04 394.32
  Q 556.83 393.61 550.41 392.59
  Q 546.72 392.00 542.28 392.41
  Q 536.46 392.94 530.75 392.32
  C 524.46 391.64 518.02 391.68 511.66 391.58
  C 507.54 391.52 503.38 390.39 499.46 390.44
  C 494.03 390.50 488.70 391.04 483.02 391.07
  C 448.06 391.28 413.78 390.80 377.88 391.11
  C 373.99 391.15 369.23 390.98 367.81 394.31
  Q 364.70 401.62 366.39 409.79
  Q 366.73 411.73 367.73 411.88
  Q 373.50 412.75 376.14 413.54
  Q 380.76 414.93 385.34 418.35
  C 386.44 423.13 387.73 427.70 387.96 432.55
  Q 388.24 438.48 387.74 444.06
  Q 387.38 448.03 386.99 451.89
  Q 386.96 452.18 386.68 452.28
  Q 386.21 452.46 386.10 452.96
  C 385.23 457.06 383.80 461.05 383.12 465.13
  Q 382.54 468.58 381.43 471.91
  C 379.84 476.71 379.35 481.59 377.56 486.39
  Q 375.70 491.40 375.36 494.51
  Q 374.81 499.49 373.70 503.13
  Q 372.50 507.05 371.03 511.36
  C 370.76 512.13 371.01 512.81 370.84 513.51
  Q 369.91 517.39 368.66 520.88
  Q 367.37 524.49 366.91 528.06
  Q 366.34 532.42 364.96 536.76
  C 363.56 541.14 362.72 545.93 361.60 550.56
  C 361.10 552.60 359.91 553.99 359.56 555.99
  C 359.19 558.14 357.85 559.65 357.86 561.99
  Q 357.87 566.66 356.04 571.18
  C 355.68 572.06 356.09 573.12 355.66 573.96
  C 354.09 577.07 354.04 580.39 352.91 583.70
  Q 350.66 590.28 349.33 596.72
  Q 347.75 604.40 345.88 609.50
  C 345.02 611.83 345.09 614.25 344.08 616.49
  Q 342.95 618.97 342.37 621.70
  Q 341.55 625.49 340.80 629.38
  C 340.30 631.91 339.02 634.34 338.76 636.72
  Q 338.02 643.54 336.06 649.42
  C 334.32 654.63 333.05 659.87 332.12 665.16
  C 331.47 668.93 330.38 672.55 329.30 676.25
  Q 328.11 680.33 326.56 684.25
  Q 323.39 692.24 321.09 700.84
  C 320.53 702.95 318.86 703.76 317.94 705.00
  Q 315.96 707.68 313.85 710.56
  C 312.48 712.43 310.65 713.39 309.19 715.14
  Q 308.88 715.51 308.42 715.66
  C 306.52 716.29 305.17 717.53 303.27 718.16
  Q 297.96 719.92 292.68 723.24
  C 291.48 723.99 291.27 725.09 290.34 726.09
  C 287.56 729.04 288.64 733.68 287.73 737.19
  Q 287.29 738.92 287.68 740.89
  Q 287.77 741.38 288.25 741.51
  Q 289.18 741.78 289.69 742.49
  Q 290.42 742.91 291.75 742.91
  Q 358.25 742.94 424.75 743.05
  Q 452.29 743.10 476.77 741.61
  Q 501.52 740.11 526.19 734.50
  C 536.55 732.14 546.73 728.63 556.52 724.89
  C 571.40 719.21 585.23 711.29 598.43 702.14
  Q 626.05 683.00 645.97 656.59
  Q 655.87 643.46 662.88 629.11
  C 664.47 625.84 666.47 622.78 668.48 619.78
  A 2.15 2.14 -27.4 0 0 668.84 618.66
  Q 668.89 616.77 669.63 615.50
  Q 670.26 614.43 670.18 615.67
  C 669.29 629.83 670.28 643.79 672.88 657.84
  Q 679.09 691.38 702.83 714.74
  Q 709.06 720.87 718.10 726.50
  Q 734.03 736.43 751.70 741.12
  Q 768.34 745.54 785.16 747.24
  A 1.20 1.18 -3.8 0 1 786.19 748.13
  Q 786.63 749.88 787.27 751.58
  Q 792.70 766.18 797.84 779.25
  C 807.76 804.46 822.77 825.90 848.65 836.66
  C 866.16 843.94 885.52 844.96 904.40 843.10
  Q 927.38 840.83 948.37 829.37
  Q 961.70 822.09 974.03 813.24
  Q 976.65 811.36 979.27 809.51
  Q 984.49 805.83 995.29 796.56
  C 996.23 795.75 997.22 795.25 998.18 794.52
  A 0.99 0.98 -43.7 0 0 998.22 792.98
  L 977.69 775.73
  Q 976.79 772.66 973.92 771.95
  C 972.50 771.60 971.62 771.28 970.51 772.27
  C 968.18 774.35 966.05 776.52 963.31 777.92
  Q 961.17 779.01 959.42 780.42
  Q 955.92 783.24 952.16 785.07
  C 949.44 786.39 947.16 788.50 944.34 789.42
  Q 941.72 790.27 939.07 791.46
  C 933.11 794.15 927.58 794.54 921.20 794.46
  Q 919.11 794.43 916.48 793.47
  Q 910.56 791.31 904.59 791.01
  Q 896.91 785.31 893.46 779.55
  Q 890.47 774.56 887.39 769.14
  Q 884.16 763.46 876.29 744.37
  Q 875.78 743.14 876.16 741.28
  Q 876.26 740.83 876.71 740.85
  Q 878.27 740.90 879.94 740.52
  C 904.68 734.79 928.86 724.02 949.40 708.72
  Q 960.65 700.33 964.85 696.53
  C 984.99 678.32 1002.89 657.05 1015.39 632.18
  Q 1022.25 618.52 1026.41 608.46
  Q 1036.56 583.88 1041.69 555.24
  Q 1044.37 540.31 1045.02 535.75
  Q 1047.88 515.76 1046.91 493.59
  Q 1045.97 472.01 1038.75 453.03
  Q 1029.33 428.29 1008.34 411.09
  Q 1001.69 405.64 991.69 400.42
  Q 969.92 389.06 945.30 385.63
  Q 940.80 382.11 933.48 381.70
  Q 918.65 380.87 904.84 380.19
  Q 895.40 379.72 886.88 380.39
  Q 874.73 381.36 862.61 382.70
  C 858.01 383.22 852.90 385.02 847.90 385.57
  C 839.12 386.54 829.66 388.28 821.33 391.59
  C 814.20 394.41 806.88 396.63 799.87 399.75
  Q 789.33 404.44 779.23 410.09
  C 772.08 414.10 766.17 418.83 759.65 423.48
  C 755.17 426.69 750.72 430.70 746.89 434.76
  Q 737.82 444.43 729.11 452.91
  C 723.30 458.57 718.86 465.65 713.50 472.05
  Q 703.81 483.64 698.14 496.74
  Q 693.45 507.57 689.16 518.92
  Q 688.50 520.67 688.12 518.84
  Q 687.05 513.55 686.83 507.31
  Z
  M 1016.69 713.94
  Q 1020.72 722.43 1028.36 726.15
  C 1039.55 731.60 1053.06 728.89 1060.34 718.45
  Q 1063.97 713.22 1064.70 708.02
  Q 1067.34 689.10 1050.13 680.38
  Q 1048.61 677.19 1044.29 676.11
  Q 1039.90 675.00 1032.89 676.02
  C 1030.36 676.38 1028.33 677.99 1025.83 678.81
  Q 1022.07 680.04 1017.13 685.09
  C 1015.35 686.92 1015.05 689.18 1013.79 691.29
  C 1011.63 694.92 1012.18 700.75 1012.09 704.88
  C 1012.06 706.68 1013.08 708.13 1013.33 709.97
  Q 1013.40 710.50 1013.77 710.88
  L 1016.69 713.94
  Z"
/>
<path fill="#f4a40e" d="
  M 822.46 235.56
  Q 826.35 236.68 827.93 236.76
  Q 836.19 237.16 861.79 237.55
  Q 868.40 237.92 875.00 238.33
  Q 875.31 238.35 875.63 238.53
  Q 876.04 238.77 876.52 238.80
  L 891.80 239.84
  L 873.19 239.36
  Q 872.65 239.35 872.24 239.71
  C 865.98 245.16 859.33 248.48 850.65 247.70
  C 843.77 247.08 838.44 247.81 833.19 252.97
  Q 827.31 258.76 821.34 264.90
  C 813.09 273.38 801.04 282.10 792.29 292.22
  C 788.31 296.81 784.52 299.29 778.47 300.06
  Q 773.54 300.68 768.65 300.59
  Q 754.78 300.31 738.58 298.98
  Q 738.43 298.97 738.55 299.06
  Q 738.60 299.09 738.66 299.07
  Q 738.74 299.04 738.83 299.05
  C 744.22 299.54 749.68 299.71 754.98 300.35
  Q 772.64 302.47 790.00 303.85
  C 798.21 304.51 806.48 306.00 814.67 307.13
  C 823.03 308.28 831.18 310.49 839.35 311.65
  C 846.25 312.62 852.56 314.55 859.49 315.46
  Q 866.08 316.32 872.73 318.14
  Q 886.08 321.78 899.53 325.06
  C 902.12 325.69 904.24 327.15 906.92 327.76
  Q 910.87 328.66 915.09 329.59
  Q 919.35 330.54 926.98 335.58
  C 915.32 331.55 904.18 329.19 892.54 326.28
  Q 876.07 322.16 859.49 318.45
  Q 853.58 317.12 847.73 315.97
  C 842.48 314.93 837.41 313.78 832.03 312.98
  C 823.66 311.73 815.46 309.80 807.13 308.87
  C 795.75 307.61 784.66 305.67 772.75 304.70
  Q 759.33 303.61 746.69 302.52
  C 723.53 300.53 700.48 300.23 676.63 300.79
  Q 666.38 301.03 627.30 303.64
  Q 595.76 305.75 565.19 309.73
  C 556.85 310.81 548.55 312.42 540.01 313.56
  Q 534.55 314.29 529.43 315.46
  Q 524.22 316.66 518.71 317.59
  Q 513.60 318.45 508.18 319.57
  Q 504.51 320.32 500.85 321.24
  Q 497.10 322.18 493.61 322.82
  C 491.47 323.22 489.65 324.20 487.38 324.04
  A 0.49 0.49 0.0 0 1 487.02 323.25
  C 489.44 320.09 493.61 317.63 497.04 315.74
  C 498.37 315.00 499.06 314.04 500.33 313.26
  C 507.24 308.99 513.92 304.75 521.08 300.88
  Q 555.37 282.37 590.18 270.71
  C 597.34 268.31 604.48 265.68 611.88 263.80
  C 619.34 261.90 626.63 259.78 634.24 258.04
  C 639.66 256.80 644.90 255.14 650.39 253.97
  Q 664.23 251.01 678.35 247.98
  Q 686.14 246.31 693.17 245.28
  C 699.75 244.33 706.30 243.01 713.04 242.20
  C 729.04 240.27 745.95 239.41 762.47 238.58
  Q 771.80 238.10 781.39 238.09
  Q 799.31 238.06 817.59 237.76
  Q 818.30 237.75 819.01 237.64
  Q 821.59 237.23 821.77 236.00
  A 0.21 0.21 0.0 0 0 821.41 235.82
  Q 821.24 235.99 820.98 235.86
  Q 820.52 235.61 821.01 235.49
  Q 821.75 235.30 822.46 235.56
  Z"
/>
<path fill="#f2970c" d="
  M 891.80 239.84
  Q 895.53 239.71 899.30 240.16
  Q 905.19 240.87 906.74 240.98
  Q 915.77 241.58 924.75 242.70
  C 926.88 242.96 929.07 242.81 931.07 243.15
  Q 945.42 245.55 959.76 247.93
  Q 965.57 248.89 985.27 253.44
  Q 998.09 256.41 1030.91 265.78
  C 1023.07 273.39 1016.14 275.75 1006.92 278.86
  C 988.15 285.20 968.93 299.84 956.70 316.30
  Q 956.67 316.32 951.62 323.94
  Q 946.09 332.26 938.68 339.28
  L 926.98 335.58
  Q 919.35 330.54 915.09 329.59
  Q 910.87 328.66 906.92 327.76
  C 904.24 327.15 902.12 325.69 899.53 325.06
  Q 886.08 321.78 872.73 318.14
  Q 866.08 316.32 859.49 315.46
  C 852.56 314.55 846.25 312.62 839.35 311.65
  C 831.18 310.49 823.03 308.28 814.67 307.13
  C 806.48 306.00 798.21 304.51 790.00 303.85
  Q 772.64 302.47 754.98 300.35
  C 749.68 299.71 744.22 299.54 738.83 299.05
  Q 738.74 299.04 738.66 299.07
  Q 738.60 299.09 738.55 299.06
  Q 738.43 298.97 738.58 298.98
  Q 754.78 300.31 768.65 300.59
  Q 773.54 300.68 778.47 300.06
  C 784.52 299.29 788.31 296.81 792.29 292.22
  C 801.04 282.10 813.09 273.38 821.34 264.90
  Q 827.31 258.76 833.19 252.97
  C 838.44 247.81 843.77 247.08 850.65 247.70
  C 859.33 248.48 865.98 245.16 872.24 239.71
  Q 872.65 239.35 873.19 239.36
  L 891.80 239.84
  Z"
/>
<path fill="#f08609" d="
  M 1016.68 368.91
  Q 1012.97 366.30 1009.55 364.95
  Q 979.07 352.89 938.68 339.28
  Q 946.09 332.26 951.62 323.94
  Q 956.67 316.32 956.70 316.30
  C 968.93 299.84 988.15 285.20 1006.92 278.86
  C 1016.14 275.75 1023.07 273.39 1030.91 265.78
  Q 1061.16 275.11 1069.75 278.04
  Q 1098.42 287.81 1121.90 296.89
  Q 1142.06 304.69 1168.29 315.59
  Q 1173.14 317.60 1178.93 320.39
  Q 1184.58 323.12 1189.72 325.49
  A 1.65 1.65 0.0 0 1 1190.63 327.38
  Q 1184.97 350.62 1178.61 378.93
  C 1177.18 385.33 1175.54 391.38 1174.20 397.68
  Q 1172.33 406.54 1170.20 415.11
  C 1168.19 423.18 1166.63 431.48 1164.52 439.52
  C 1164.02 441.43 1164.03 443.39 1163.54 445.32
  A 1.34 1.34 0.0 0 1 1161.48 446.10
  Q 1135.88 428.59 1107.32 412.19
  Q 1098.92 407.37 1092.79 404.17
  C 1082.84 398.97 1072.80 393.48 1062.49 388.70
  Q 1045.23 380.69 1028.96 373.27
  Q 1022.41 370.29 1016.68 368.91
  Z"
/>
<path fill="#993239" d="
  M 945.30 385.63
  Q 928.98 382.81 912.41 382.93
  C 909.75 382.95 907.33 382.16 904.57 382.28
  Q 887.61 383.00 875.84 384.09
  Q 844.62 386.97 813.91 398.44
  Q 799.84 403.70 784.85 411.89
  C 775.53 416.99 767.50 423.04 759.17 429.38
  Q 736.51 446.62 719.12 470.66
  Q 714.16 477.51 709.18 484.99
  Q 705.72 490.19 703.61 494.87
  C 700.20 502.42 696.08 509.49 693.01 517.29
  Q 690.94 522.55 689.28 527.13
  Q 687.96 530.78 687.93 526.89
  Q 687.92 525.18 687.90 522.92
  Q 687.88 521.46 687.31 519.01
  C 686.46 515.35 686.90 511.05 686.83 507.31
  Q 687.05 513.55 688.12 518.84
  Q 688.50 520.67 689.16 518.92
  Q 693.45 507.57 698.14 496.74
  Q 703.81 483.64 713.50 472.05
  C 718.86 465.65 723.30 458.57 729.11 452.91
  Q 737.82 444.43 746.89 434.76
  C 750.72 430.70 755.17 426.69 759.65 423.48
  C 766.17 418.83 772.08 414.10 779.23 410.09
  Q 789.33 404.44 799.87 399.75
  C 806.88 396.63 814.20 394.41 821.33 391.59
  C 829.66 388.28 839.12 386.54 847.90 385.57
  C 852.90 385.02 858.01 383.22 862.61 382.70
  Q 874.73 381.36 886.88 380.39
  Q 895.40 379.72 904.84 380.19
  Q 918.65 380.87 933.48 381.70
  Q 940.80 382.11 945.30 385.63
  Z"
/>
<path fill="#f4e1e5" d="
  M 945.30 385.63
  Q 969.92 389.06 991.69 400.42
  Q 1001.69 405.64 1008.34 411.09
  Q 1029.33 428.29 1038.75 453.03
  Q 1045.97 472.01 1046.91 493.59
  Q 1047.88 515.76 1045.02 535.75
  Q 1044.37 540.31 1041.69 555.24
  Q 1036.56 583.88 1026.41 608.46
  Q 1022.25 618.52 1015.39 632.18
  C 1002.89 657.05 984.99 678.32 964.85 696.53
  Q 960.65 700.33 949.40 708.72
  C 928.86 724.02 904.68 734.79 879.94 740.52
  Q 878.27 740.90 876.71 740.85
  Q 876.26 740.83 876.16 741.28
  Q 875.78 743.14 876.29 744.37
  Q 884.16 763.46 887.39 769.14
  Q 890.47 774.56 893.46 779.55
  Q 896.91 785.31 904.59 791.01
  Q 922.15 800.66 943.12 793.70
  Q 951.29 790.99 958.22 786.41
  Q 966.63 780.85 973.32 774.36
  Q 973.66 774.02 974.15 774.01
  Q 976.12 773.97 977.69 775.73
  L 998.22 792.98
  A 0.99 0.98 -43.7 0 1 998.18 794.52
  C 997.22 795.25 996.23 795.75 995.29 796.56
  Q 984.49 805.83 979.27 809.51
  Q 976.65 811.36 974.03 813.24
  Q 961.70 822.09 948.37 829.37
  Q 927.38 840.83 904.40 843.10
  C 885.52 844.96 866.16 843.94 848.65 836.66
  C 822.77 825.90 807.76 804.46 797.84 779.25
  Q 792.70 766.18 787.27 751.58
  Q 786.63 749.88 786.19 748.13
  A 1.20 1.18 -3.8 0 0 785.16 747.24
  Q 768.34 745.54 751.70 741.12
  Q 734.03 736.43 718.10 726.50
  Q 709.06 720.87 702.83 714.74
  Q 679.09 691.38 672.88 657.84
  C 670.28 643.79 669.29 629.83 670.18 615.67
  Q 670.26 614.43 669.63 615.50
  Q 668.89 616.77 668.84 618.66
  A 2.15 2.14 -27.4 0 1 668.48 619.78
  C 666.47 622.78 664.47 625.84 662.88 629.11
  Q 655.87 643.46 645.97 656.59
  Q 626.05 683.00 598.43 702.14
  C 585.23 711.29 571.40 719.21 556.52 724.89
  C 546.73 728.63 536.55 732.14 526.19 734.50
  Q 501.52 740.11 476.77 741.61
  Q 452.29 743.10 424.75 743.05
  Q 358.25 742.94 291.75 742.91
  Q 290.42 742.91 289.69 742.49
  Q 289.30 742.07 289.40 741.74
  Q 291.25 735.20 293.07 727.80
  Q 293.54 725.86 295.56 725.26
  C 301.46 723.49 307.60 721.50 312.35 717.64
  Q 319.12 712.15 323.34 703.74
  Q 327.09 696.25 328.98 690.04
  Q 333.40 675.46 337.00 660.41
  C 341.96 639.61 349.41 612.11 355.88 585.59
  Q 362.58 558.13 369.86 530.97
  C 371.65 524.27 373.14 517.47 374.93 510.95
  Q 377.12 502.93 378.82 496.00
  Q 381.58 484.79 385.19 470.98
  Q 388.61 457.91 389.34 452.43
  Q 390.91 440.72 390.34 427.50
  Q 390.15 422.93 385.34 418.35
  Q 380.76 414.93 376.14 413.54
  Q 373.50 412.75 367.73 411.88
  Q 366.73 411.73 366.39 409.79
  L 370.09 395.58
  A 2.17 2.16 7.2 0 1 372.17 393.97
  Q 438.08 393.57 502.75 393.94
  Q 519.51 394.03 533.44 395.13
  C 543.87 395.95 554.80 396.49 565.43 398.18
  Q 583.75 401.08 601.55 406.38
  Q 618.31 412.22 635.36 422.16
  Q 661.55 437.42 674.50 463.53
  Q 684.30 483.28 686.83 507.31
  C 686.90 511.05 686.46 515.35 687.31 519.01
  Q 687.88 521.46 687.90 522.92
  Q 687.92 525.18 687.93 526.89
  Q 687.96 530.78 689.28 527.13
  Q 690.94 522.55 693.01 517.29
  C 696.08 509.49 700.20 502.42 703.61 494.87
  Q 705.72 490.19 709.18 484.99
  Q 714.16 477.51 719.12 470.66
  Q 736.51 446.62 759.17 429.38
  C 767.50 423.04 775.53 416.99 784.85 411.89
  Q 799.84 403.70 813.91 398.44
  Q 844.62 386.97 875.84 384.09
  Q 887.61 383.00 904.57 382.28
  C 907.33 382.16 909.75 382.95 912.41 382.93
  Q 928.98 382.81 945.30 385.63
  Z
  M 775.46 701.55
  Q 779.85 706.72 785.91 710.32
  Q 792.60 714.29 798.06 715.37
  C 805.04 716.75 812.62 717.94 819.92 717.09
  C 828.57 716.09 836.13 714.75 844.30 710.88
  Q 859.59 703.65 871.41 692.74
  Q 885.32 679.91 895.10 666.47
  Q 909.92 646.09 919.70 624.64
  Q 928.06 606.30 931.85 595.57
  Q 938.51 576.70 943.73 555.52
  C 945.17 549.66 946.35 543.65 947.73 537.67
  Q 949.25 531.04 950.43 524.25
  C 951.73 516.83 953.16 509.18 953.77 501.81
  Q 954.49 493.03 955.05 485.04
  C 955.34 480.82 955.35 476.39 954.80 472.12
  Q 954.11 466.76 953.70 461.43
  C 953.38 457.29 952.40 453.25 951.39 449.20
  C 947.38 432.98 937.92 420.43 921.28 415.79
  Q 909.06 412.39 897.62 413.32
  C 875.89 415.10 856.37 427.00 840.58 442.74
  C 824.65 458.63 811.78 477.49 801.60 497.36
  Q 785.94 527.92 777.18 559.85
  Q 768.22 592.48 764.14 625.75
  Q 762.00 643.22 763.66 667.01
  C 763.94 670.92 764.88 674.61 765.65 678.45
  Q 766.62 683.32 767.58 686.11
  Q 770.55 694.73 775.46 701.55
  Z
  M 414.33 704.55
  Q 412.99 707.50 413.03 710.31
  A 1.12 1.11 1.7 0 0 414.07 711.41
  Q 435.74 713.02 456.28 710.86
  C 496.28 706.65 528.70 687.14 551.61 654.67
  Q 562.72 638.92 570.24 623.01
  Q 581.89 598.34 588.47 567.22
  Q 592.62 547.54 593.04 528.97
  Q 593.28 518.77 593.02 506.42
  C 592.67 489.17 588.13 472.35 578.85 457.94
  Q 567.56 441.53 550.26 433.21
  C 530.20 423.58 507.51 424.63 485.89 425.35
  Q 485.28 425.37 485.14 425.96
  Q 478.06 456.13 473.45 473.28
  Q 470.54 484.11 467.97 494.97
  C 467.01 499.03 465.66 502.98 464.76 507.00
  C 462.07 518.94 458.52 530.91 455.80 542.38
  Q 454.09 549.63 452.22 556.48
  C 450.50 562.80 449.33 569.19 447.43 575.54
  Q 445.23 582.88 443.65 589.86
  Q 441.77 598.17 439.84 605.64
  Q 427.05 655.06 414.33 704.55
  Z"
/>
<path fill="#993239" d="
  M 601.55 406.38
  Q 583.75 401.08 565.43 398.18
  C 554.80 396.49 543.87 395.95 533.44 395.13
  Q 519.51 394.03 502.75 393.94
  Q 438.08 393.57 372.17 393.97
  A 2.17 2.16 7.2 0 0 370.09 395.58
  L 366.39 409.79
  Q 364.70 401.62 367.81 394.31
  C 369.23 390.98 373.99 391.15 377.88 391.11
  C 413.78 390.80 448.06 391.28 483.02 391.07
  C 488.70 391.04 494.03 390.50 499.46 390.44
  C 503.38 390.39 507.54 391.52 511.66 391.58
  C 518.02 391.68 524.46 391.64 530.75 392.32
  Q 536.46 392.94 542.28 392.41
  Q 546.72 392.00 550.41 392.59
  Q 556.83 393.61 563.04 394.32
  C 569.16 395.01 575.03 397.55 581.20 398.68
  C 587.87 399.91 595.92 402.24 601.55 406.38
  Z"
/>
<path fill="#f5151e" d="
  M 951.39 449.20
  C 949.66 464.03 954.12 478.55 952.24 493.18
  C 951.81 496.54 950.25 499.54 950.21 502.92
  C 950.18 505.89 950.14 508.71 949.27 511.62
  Q 948.37 514.64 948.11 517.61
  Q 947.88 520.33 946.93 523.11
  Q 945.43 527.49 945.01 532.74
  C 944.87 534.38 944.10 535.70 943.99 537.34
  Q 943.86 539.08 943.24 540.56
  Q 941.91 543.74 941.76 547.09
  C 941.64 549.87 940.28 552.32 939.94 555.09
  Q 939.60 557.78 938.70 560.39
  C 937.43 564.04 937.00 567.89 935.81 571.63
  Q 934.12 576.93 932.65 582.51
  C 932.47 583.20 931.96 583.53 931.76 584.12
  C 930.49 587.90 929.61 591.95 928.05 595.61
  Q 927.25 597.48 926.59 599.68
  Q 925.65 602.84 924.45 605.94
  C 922.82 610.15 920.15 613.66 918.81 617.93
  C 917.39 622.43 914.68 626.08 913.00 630.39
  C 912.27 632.28 910.91 633.60 910.39 635.54
  Q 909.92 637.31 908.78 639.04
  Q 904.52 645.53 900.51 651.02
  C 898.53 653.73 896.81 656.58 894.74 659.26
  Q 889.54 665.98 884.60 672.90
  C 878.89 680.91 871.90 686.55 864.61 692.94
  C 856.20 700.32 847.47 704.84 837.16 709.08
  Q 832.40 711.03 828.31 711.67
  C 821.80 712.69 815.87 715.24 809.19 713.97
  Q 803.00 712.79 796.34 711.76
  C 788.99 710.62 781.65 705.80 775.46 701.55
  Q 770.55 694.73 767.58 686.11
  Q 766.62 683.32 765.65 678.45
  C 764.88 674.61 763.94 670.92 763.66 667.01
  Q 762.00 643.22 764.14 625.75
  Q 768.22 592.48 777.18 559.85
  Q 785.94 527.92 801.60 497.36
  C 811.78 477.49 824.65 458.63 840.58 442.74
  C 856.37 427.00 875.89 415.10 897.62 413.32
  Q 909.06 412.39 921.28 415.79
  C 937.92 420.43 947.38 432.98 951.39 449.20
  Z"
/>
<path fill="#993239" d="
  M 289.69 742.49
  Q 289.18 741.78 288.25 741.51
  Q 287.77 741.38 287.68 740.89
  Q 287.29 738.92 287.73 737.19
  C 288.64 733.68 287.56 729.04 290.34 726.09
  C 291.27 725.09 291.48 723.99 292.68 723.24
  Q 297.96 719.92 303.27 718.16
  C 305.17 717.53 306.52 716.29 308.42 715.66
  Q 308.88 715.51 309.19 715.14
  C 310.65 713.39 312.48 712.43 313.85 710.56
  Q 315.96 707.68 317.94 705.00
  C 318.86 703.76 320.53 702.95 321.09 700.84
  Q 323.39 692.24 326.56 684.25
  Q 328.11 680.33 329.30 676.25
  C 330.38 672.55 331.47 668.93 332.12 665.16
  C 333.05 659.87 334.32 654.63 336.06 649.42
  Q 338.02 643.54 338.76 636.72
  C 339.02 634.34 340.30 631.91 340.80 629.38
  Q 341.55 625.49 342.37 621.70
  Q 342.95 618.97 344.08 616.49
  C 345.09 614.25 345.02 611.83 345.88 609.50
  Q 347.75 604.40 349.33 596.72
  Q 350.66 590.28 352.91 583.70
  C 354.04 580.39 354.09 577.07 355.66 573.96
  C 356.09 573.12 355.68 572.06 356.04 571.18
  Q 357.87 566.66 357.86 561.99
  C 357.85 559.65 359.19 558.14 359.56 555.99
  C 359.91 553.99 361.10 552.60 361.60 550.56
  C 362.72 545.93 363.56 541.14 364.96 536.76
  Q 366.34 532.42 366.91 528.06
  Q 367.37 524.49 368.66 520.88
  Q 369.91 517.39 370.84 513.51
  C 371.01 512.81 370.76 512.13 371.03 511.36
  Q 372.50 507.05 373.70 503.13
  Q 374.81 499.49 375.36 494.51
  Q 375.70 491.40 377.56 486.39
  C 379.35 481.59 379.84 476.71 381.43 471.91
  Q 382.54 468.58 383.12 465.13
  C 383.80 461.05 385.23 457.06 386.10 452.96
  Q 386.21 452.46 386.68 452.28
  Q 386.96 452.18 386.99 451.89
  Q 387.38 448.03 387.74 444.06
  Q 388.24 438.48 387.96 432.55
  C 387.73 427.70 386.44 423.13 385.34 418.35
  Q 390.15 422.93 390.34 427.50
  Q 390.91 440.72 389.34 452.43
  Q 388.61 457.91 385.19 470.98
  Q 381.58 484.79 378.82 496.00
  Q 377.12 502.93 374.93 510.95
  C 373.14 517.47 371.65 524.27 369.86 530.97
  Q 362.58 558.13 355.88 585.59
  C 349.41 612.11 341.96 639.61 337.00 660.41
  Q 333.40 675.46 328.98 690.04
  Q 327.09 696.25 323.34 703.74
  Q 319.12 712.15 312.35 717.64
  C 307.60 721.50 301.46 723.49 295.56 725.26
  Q 293.54 725.86 293.07 727.80
  Q 291.25 735.20 289.40 741.74
  Q 289.30 742.07 289.69 742.49
  Z"
/>
<path fill="#f5151e" d="
  M 578.85 457.94
  Q 579.34 461.39 579.87 462.65
  Q 582.75 469.51 585.63 476.43
  Q 587.78 481.58 589.55 491.42
  Q 592.01 505.11 591.56 518.60
  C 591.25 527.93 591.00 537.90 589.42 546.78
  C 587.95 554.96 587.54 563.66 585.41 571.79
  Q 582.51 582.82 578.38 596.19
  C 577.64 598.58 576.50 600.74 575.78 603.05
  Q 574.99 605.57 573.89 607.96
  Q 569.28 617.98 564.84 628.08
  C 563.59 630.91 561.92 633.39 560.52 636.14
  C 560.10 636.97 559.35 637.46 558.87 638.25
  C 555.85 643.23 552.38 647.93 549.07 652.76
  Q 547.32 655.31 545.06 657.47
  C 544.09 658.39 543.80 659.78 542.84 660.84
  Q 538.52 665.58 534.24 670.11
  Q 530.17 674.43 525.77 677.69
  Q 519.72 682.18 513.56 686.80
  Q 510.21 689.31 505.89 691.87
  C 502.82 693.70 499.53 694.64 496.62 696.58
  Q 494.75 697.82 492.67 698.29
  Q 489.19 699.08 485.93 700.63
  Q 483.46 701.81 480.34 702.55
  C 467.55 705.61 452.66 708.65 440.90 709.10
  Q 434.07 709.36 425.67 708.97
  Q 418.86 708.65 414.33 704.55
  Q 427.05 655.06 439.84 605.64
  Q 441.77 598.17 443.65 589.86
  Q 445.23 582.88 447.43 575.54
  C 449.33 569.19 450.50 562.80 452.22 556.48
  Q 454.09 549.63 455.80 542.38
  C 458.52 530.91 462.07 518.94 464.76 507.00
  C 465.66 502.98 467.01 499.03 467.97 494.97
  Q 470.54 484.11 473.45 473.28
  Q 478.06 456.13 485.14 425.96
  Q 485.28 425.37 485.89 425.35
  C 507.51 424.63 530.20 423.58 550.26 433.21
  Q 567.56 441.53 578.85 457.94
  Z"
/>
<path fill="#993239" d="
  M 951.39 449.20
  C 952.40 453.25 953.38 457.29 953.70 461.43
  Q 954.11 466.76 954.80 472.12
  C 955.35 476.39 955.34 480.82 955.05 485.04
  Q 954.49 493.03 953.77 501.81
  C 953.16 509.18 951.73 516.83 950.43 524.25
  Q 949.25 531.04 947.73 537.67
  C 946.35 543.65 945.17 549.66 943.73 555.52
  Q 938.51 576.70 931.85 595.57
  Q 928.06 606.30 919.70 624.64
  Q 909.92 646.09 895.10 666.47
  Q 885.32 679.91 871.41 692.74
  Q 859.59 703.65 844.30 710.88
  C 836.13 714.75 828.57 716.09 819.92 717.09
  C 812.62 717.94 805.04 716.75 798.06 715.37
  Q 792.60 714.29 785.91 710.32
  Q 779.85 706.72 775.46 701.55
  C 781.65 705.80 788.99 710.62 796.34 711.76
  Q 803.00 712.79 809.19 713.97
  C 815.87 715.24 821.80 712.69 828.31 711.67
  Q 832.40 711.03 837.16 709.08
  C 847.47 704.84 856.20 700.32 864.61 692.94
  C 871.90 686.55 878.89 680.91 884.60 672.90
  Q 889.54 665.98 894.74 659.26
  C 896.81 656.58 898.53 653.73 900.51 651.02
  Q 904.52 645.53 908.78 639.04
  Q 909.92 637.31 910.39 635.54
  C 910.91 633.60 912.27 632.28 913.00 630.39
  C 914.68 626.08 917.39 622.43 918.81 617.93
  C 920.15 613.66 922.82 610.15 924.45 605.94
  Q 925.65 602.84 926.59 599.68
  Q 927.25 597.48 928.05 595.61
  C 929.61 591.95 930.49 587.90 931.76 584.12
  C 931.96 583.53 932.47 583.20 932.65 582.51
  Q 934.12 576.93 935.81 571.63
  C 937.00 567.89 937.43 564.04 938.70 560.39
  Q 939.60 557.78 939.94 555.09
  C 940.28 552.32 941.64 549.87 941.76 547.09
  Q 941.91 543.74 943.24 540.56
  Q 943.86 539.08 943.99 537.34
  C 944.10 535.70 944.87 534.38 945.01 532.74
  Q 945.43 527.49 946.93 523.11
  Q 947.88 520.33 948.11 517.61
  Q 948.37 514.64 949.27 511.62
  C 950.14 508.71 950.18 505.89 950.21 502.92
  C 950.25 499.54 951.81 496.54 952.24 493.18
  C 954.12 478.55 949.66 464.03 951.39 449.20
  Z"
/>
<path fill="#993239" d="
  M 414.33 704.55
  Q 418.86 708.65 425.67 708.97
  Q 434.07 709.36 440.90 709.10
  C 452.66 708.65 467.55 705.61 480.34 702.55
  Q 483.46 701.81 485.93 700.63
  Q 489.19 699.08 492.67 698.29
  Q 494.75 697.82 496.62 696.58
  C 499.53 694.64 502.82 693.70 505.89 691.87
  Q 510.21 689.31 513.56 686.80
  Q 519.72 682.18 525.77 677.69
  Q 530.17 674.43 534.24 670.11
  Q 538.52 665.58 542.84 660.84
  C 543.80 659.78 544.09 658.39 545.06 657.47
  Q 547.32 655.31 549.07 652.76
  C 552.38 647.93 555.85 643.23 558.87 638.25
  C 559.35 637.46 560.10 636.97 560.52 636.14
  C 561.92 633.39 563.59 630.91 564.84 628.08
  Q 569.28 617.98 573.89 607.96
  Q 574.99 605.57 575.78 603.05
  C 576.50 600.74 577.64 598.58 578.38 596.19
  Q 582.51 582.82 585.41 571.79
  C 587.54 563.66 587.95 554.96 589.42 546.78
  C 591.00 537.90 591.25 527.93 591.56 518.60
  Q 592.01 505.11 589.55 491.42
  Q 587.78 481.58 585.63 476.43
  Q 582.75 469.51 579.87 462.65
  Q 579.34 461.39 578.85 457.94
  C 588.13 472.35 592.67 489.17 593.02 506.42
  Q 593.28 518.77 593.04 528.97
  Q 592.62 547.54 588.47 567.22
  Q 581.89 598.34 570.24 623.01
  Q 562.72 638.92 551.61 654.67
  C 528.70 687.14 496.28 706.65 456.28 710.86
  Q 435.74 713.02 414.07 711.41
  A 1.12 1.11 1.7 0 1 413.03 710.31
  Q 412.99 707.50 414.33 704.55
  Z"
/>
<path fill="#993239" d="
  M 1224.76 584.21
  Q 1228.89 586.52 1226.26 589.46
  C 1219.05 597.53 1208.61 607.53 1200.09 616.93
  C 1195.38 622.14 1190.20 626.91 1185.33 632.13
  C 1174.17 644.09 1162.60 655.45 1151.90 667.41
  C 1146.34 673.62 1140.43 679.26 1134.73 685.27
  Q 1124.68 695.88 1114.17 706.40
  C 1111.31 709.26 1108.80 712.49 1105.95 715.42
  C 1097.88 723.74 1089.90 731.84 1082.22 740.83
  C 1072.97 751.65 1063.86 762.15 1053.79 772.18
  C 1044.61 781.33 1035.84 790.53 1026.39 798.99
  Q 1019.43 805.22 1012.32 811.81
  Q 1005.72 817.93 997.36 824.96
  C 989.60 831.50 982.43 837.88 974.21 844.18
  C 964.74 851.44 955.54 859.12 945.80 866.02
  Q 925.04 880.71 911.79 889.29
  Q 901.72 895.80 880.81 908.03
  C 870.64 913.12 859.44 919.25 850.34 923.50
  Q 819.11 938.08 785.79 946.91
  Q 775.91 949.52 766.27 951.20
  Q 750.32 953.98 742.46 954.92
  Q 724.56 957.06 698.80 958.04
  Q 674.72 958.95 662.72 959.12
  C 651.81 959.28 639.87 958.22 628.92 957.35
  Q 611.12 955.95 592.32 950.90
  Q 584.43 948.78 569.69 943.54
  C 575.79 943.86 580.24 945.39 586.75 947.43
  Q 592.07 949.09 597.35 950.18
  Q 603.36 951.41 609.24 952.71
  Q 614.81 953.94 619.71 954.08
  Q 624.86 954.22 630.26 954.93
  Q 636.10 955.69 642.81 955.94
  C 648.37 956.15 653.94 956.85 659.67 956.86
  Q 679.92 956.89 700.10 955.45
  C 709.75 954.75 719.23 954.51 728.68 954.01
  C 736.12 953.62 742.78 952.49 749.79 950.99
  Q 755.07 949.86 761.51 949.48
  Q 766.01 949.22 769.97 947.73
  C 772.77 946.69 775.49 946.79 778.19 945.48
  C 779.97 944.62 781.88 945.17 783.66 944.36
  Q 788.47 942.18 794.59 940.85
  Q 797.77 940.16 800.88 938.90
  C 805.09 937.21 809.53 936.26 813.72 934.50
  C 816.53 933.31 819.42 932.69 822.14 931.26
  Q 826.29 929.07 831.29 926.80
  Q 832.54 926.23 833.79 926.04
  C 836.45 925.62 839.72 924.31 842.09 923.01
  C 849.11 919.17 856.09 916.33 862.97 912.44
  Q 867.11 910.10 871.18 908.16
  C 875.20 906.24 878.28 903.38 882.58 901.58
  Q 883.97 901.00 885.14 900.09
  C 886.20 899.26 887.37 898.96 888.33 897.99
  C 893.48 892.72 901.43 889.23 908.20 885.95
  C 912.17 884.03 915.09 881.25 918.87 879.33
  C 923.53 876.95 927.92 873.27 932.28 870.35
  C 938.53 866.15 944.36 861.17 950.68 856.98
  C 956.69 853.01 961.76 848.20 967.39 844.23
  Q 973.71 839.77 979.57 834.64
  C 984.85 830.02 990.50 825.98 995.66 821.26
  Q 1002.29 815.19 1009.62 809.16
  C 1012.91 806.45 1016.50 802.43 1020.08 799.25
  C 1028.39 791.86 1036.00 784.36 1044.23 776.86
  Q 1054.29 767.68 1062.46 757.18
  C 1065.91 752.74 1070.14 749.26 1073.56 744.92
  Q 1076.90 740.68 1080.68 736.55
  C 1082.94 734.08 1084.96 731.13 1087.25 728.70
  Q 1096.48 718.91 1107.89 707.70
  Q 1110.65 704.98 1113.25 701.69
  C 1115.21 699.20 1117.99 697.44 1120.15 694.92
  Q 1121.86 692.93 1123.82 691.02
  Q 1125.56 689.33 1127.20 687.56
  Q 1140.83 672.81 1152.73 661.36
  Q 1152.88 661.21 1152.71 661.07
  L 1152.51 660.91
  Q 1152.48 660.89 1152.45 660.92
  Q 1151.60 662.17 1150.61 663.05
  Q 1149.40 664.14 1150.32 662.79
  C 1155.29 655.50 1160.83 650.63 1166.80 645.02
  Q 1166.90 644.94 1166.99 645.03
  L 1166.99 645.04
  Q 1167.04 645.09 1166.99 645.14
  Q 1164.62 647.48 1162.15 649.59
  Q 1161.93 649.78 1162.13 649.99
  L 1162.35 650.22
  Q 1162.39 650.26 1162.44 650.22
  Q 1165.85 646.95 1169.45 643.34
  C 1173.52 639.25 1176.55 634.70 1180.24 630.49
  Q 1188.50 621.09 1197.37 613.54
  Q 1203.62 608.22 1211.59 598.76
  C 1215.47 594.15 1220.70 589.40 1224.76 584.21
  Z"
/>
<path fill="#993239" d="
  M 1050.13 680.38
  Q 1031.72 673.91 1020.30 687.78
  Q 1011.29 698.72 1016.69 713.94
  L 1013.77 710.88
  Q 1013.40 710.50 1013.33 709.97
  C 1013.08 708.13 1012.06 706.68 1012.09 704.88
  C 1012.18 700.75 1011.63 694.92 1013.79 691.29
  C 1015.05 689.18 1015.35 686.92 1017.13 685.09
  Q 1022.07 680.04 1025.83 678.81
  C 1028.33 677.99 1030.36 676.38 1032.89 676.02
  Q 1039.90 675.00 1044.29 676.11
  Q 1048.61 677.19 1050.13 680.38
  Z"
/>
<path fill="#efd7dd" d="
  M 1050.13 680.38
  Q 1067.34 689.10 1064.70 708.02
  Q 1063.97 713.22 1060.34 718.45
  C 1053.06 728.89 1039.55 731.60 1028.36 726.15
  Q 1020.72 722.43 1016.69 713.94
  Q 1011.29 698.72 1020.30 687.78
  Q 1031.72 673.91 1050.13 680.38
  Z
  M 1050.24 716.41
  Q 1050.52 716.77 1050.91 716.55
  C 1053.96 714.92 1055.30 711.83 1056.30 708.72
  Q 1058.34 702.34 1055.24 696.35
  Q 1051.02 688.22 1041.23 686.46
  Q 1037.94 685.86 1034.48 687.50
  C 1027.22 690.92 1020.59 698.27 1022.90 706.66
  Q 1026.30 718.99 1038.71 720.91
  C 1041.31 721.31 1043.82 720.45 1046.32 719.81
  Q 1050.04 718.87 1046.52 717.36
  C 1044.93 716.67 1043.61 715.19 1042.79 713.69
  C 1041.41 711.17 1039.05 706.46 1035.66 707.31
  Q 1035.21 707.42 1035.11 707.88
  Q 1034.16 712.01 1034.59 716.13
  A 1.88 1.87 -11.7 0 1 1033.28 718.11
  C 1032.23 718.43 1031.31 717.96 1030.97 716.90
  Q 1030.39 715.11 1030.37 713.34
  Q 1030.27 705.86 1030.41 697.77
  Q 1030.46 695.08 1030.93 692.30
  A 1.43 1.43 0.0 0 1 1032.40 691.11
  C 1036.96 691.29 1041.50 690.54 1045.68 693.00
  Q 1048.96 694.94 1048.67 699.14
  Q 1048.33 703.97 1043.92 705.82
  A 1.23 1.22 59.6 0 0 1043.43 707.71
  L 1050.24 716.41
  Z
  M 1034.81 696.65
  L 1034.73 701.37
  A 1.80 1.80 0.0 0 0 1036.51 703.20
  L 1038.20 703.23
  A 6.52 3.98 0.9 0 0 1044.79 699.35
  L 1044.79 698.99
  A 6.52 3.98 0.9 0 0 1038.34 694.91
  L 1036.64 694.88
  A 1.80 1.80 0.0 0 0 1034.81 696.65
  Z"
/>
<path fill="#f5151e" d="
  M 1050.24 716.41
  L 1043.43 707.71
  A 1.23 1.22 59.6 0 1 1043.92 705.82
  Q 1048.33 703.97 1048.67 699.14
  Q 1048.96 694.94 1045.68 693.00
  C 1041.50 690.54 1036.96 691.29 1032.40 691.11
  A 1.43 1.43 0.0 0 0 1030.93 692.30
  Q 1030.46 695.08 1030.41 697.77
  Q 1030.27 705.86 1030.37 713.34
  Q 1030.39 715.11 1030.97 716.90
  C 1031.31 717.96 1032.23 718.43 1033.28 718.11
  A 1.88 1.87 -11.7 0 0 1034.59 716.13
  Q 1034.16 712.01 1035.11 707.88
  Q 1035.21 707.42 1035.66 707.31
  C 1039.05 706.46 1041.41 711.17 1042.79 713.69
  C 1043.61 715.19 1044.93 716.67 1046.52 717.36
  Q 1050.04 718.87 1046.32 719.81
  C 1043.82 720.45 1041.31 721.31 1038.71 720.91
  Q 1026.30 718.99 1022.90 706.66
  C 1020.59 698.27 1027.22 690.92 1034.48 687.50
  Q 1037.94 685.86 1041.23 686.46
  Q 1051.02 688.22 1055.24 696.35
  Q 1058.34 702.34 1056.30 708.72
  C 1055.30 711.83 1053.96 714.92 1050.91 716.55
  Q 1050.52 716.77 1050.24 716.41
  Z"
/>
<path fill="#993239" d="
  M 1034.81 696.65
  A 1.80 1.80 0.0 0 1 1036.64 694.88
  L 1038.34 694.91
  A 6.52 3.98 0.9 0 1 1044.79 698.99
  L 1044.79 699.35
  A 6.52 3.98 0.9 0 1 1038.20 703.23
  L 1036.51 703.20
  A 1.80 1.80 0.0 0 1 1034.73 701.37
  L 1034.81 696.65
  Z"
/>
<path fill="#c4e9f5" d="
  M 326.97 805.29
  C 279.99 785.55 238.02 763.94 197.72 738.82
  Q 186.79 732.00 176.16 724.73
  Q 175.50 724.28 174.92 723.69
  A 0.87 0.86 -62.0 0 0 173.46 724.14
  L 149.50 848.27
  Q 148.69 845.82 148.81 843.23
  Q 149.03 838.59 149.02 838.24
  C 148.85 834.11 148.42 829.25 149.54 825.45
  Q 150.73 821.45 151.85 817.58
  C 152.79 814.32 152.31 810.93 153.13 807.49
  Q 154.36 802.32 155.50 797.31
  C 156.24 794.05 157.58 790.86 157.76 787.53
  C 157.99 783.51 159.53 779.64 160.41 775.67
  C 160.78 773.99 161.91 772.59 162.01 770.77
  C 162.27 765.78 162.30 760.92 163.71 756.11
  C 164.99 751.74 166.21 747.20 166.49 742.74
  C 166.71 739.40 166.95 736.09 167.91 732.85
  Q 169.43 727.70 171.00 722.62
  A 1.82 1.81 -77.7 0 1 172.97 721.35
  C 180.60 722.36 187.70 727.23 193.67 732.04
  C 196.85 734.61 200.39 735.47 203.59 737.63
  Q 216.51 746.40 232.88 756.34
  C 241.16 761.36 249.88 765.18 258.23 769.61
  C 267.09 774.31 276.80 778.50 285.93 783.30
  C 290.98 785.96 296.41 787.86 301.34 790.85
  C 306.50 793.98 312.04 795.90 317.27 798.49
  Q 322.13 800.89 326.97 805.29
  Z"
/>
<path fill="#155baf" d="
  M 326.97 805.29
  L 343.28 811.85
  C 344.25 811.87 345.33 811.91 346.25 812.26
  Q 367.41 820.30 389.27 828.63
  Q 403.33 833.99 414.00 837.25
  Q 426.29 841.00 437.47 844.53
  C 439.40 845.14 441.44 845.21 443.27 845.87
  Q 449.17 848.02 454.44 849.26
  Q 459.78 850.50 464.86 852.05
  C 468.89 853.28 472.95 854.05 477.09 854.87
  Q 468.06 855.74 460.22 853.34
  Q 450.93 850.49 443.70 849.29
  Q 438.82 847.65 430.11 845.43
  C 422.06 843.38 414.17 840.21 405.83 837.59
  C 397.46 834.97 389.96 831.57 381.71 828.89
  C 375.60 826.90 369.50 824.11 363.17 822.22
  Q 360.88 821.53 358.60 821.91
  C 353.61 822.74 349.26 824.57 349.43 830.60
  Q 349.57 835.39 350.84 839.49
  Q 355.59 854.76 359.15 869.64
  C 363.71 888.68 370.88 905.07 382.77 920.71
  Q 383.07 921.11 383.57 921.22
  Q 398.43 924.68 409.58 926.01
  C 415.13 926.68 420.38 928.98 426.31 928.96
  C 432.43 928.94 438.63 929.79 444.95 931.01
  Q 450.46 932.07 456.06 932.52
  Q 465.17 933.70 474.34 934.05
  Q 486.66 934.53 492.62 934.98
  Q 514.94 936.63 535.42 936.00
  C 543.41 935.76 551.27 933.74 559.35 933.82
  Q 570.72 933.93 582.02 932.96
  L 587.99 933.28
  C 585.89 933.64 583.96 934.32 581.88 934.46
  Q 569.22 935.28 556.24 936.44
  A 0.93 0.92 -9.8 0 0 555.42 937.59
  L 555.72 938.77
  C 551.16 937.32 545.99 938.13 541.26 938.24
  Q 508.90 939.00 475.53 936.35
  Q 465.65 935.56 452.95 934.27
  C 436.98 932.64 421.44 930.70 404.97 927.67
  Q 395.78 925.98 386.50 924.51
  Q 377.17 923.02 346.60 916.21
  Q 315.50 909.03 290.70 901.54
  Q 281.29 898.70 251.99 889.26
  Q 237.39 884.55 201.01 869.64
  Q 175.26 859.08 149.50 848.27
  L 173.46 724.14
  A 0.87 0.86 -62.0 0 1 174.92 723.69
  Q 175.50 724.28 176.16 724.73
  Q 186.79 732.00 197.72 738.82
  C 238.02 763.94 279.99 785.55 326.97 805.29
  Z"
/>
<path fill="#993239" d="
  M 977.69 775.73
  Q 976.12 773.97 974.15 774.01
  Q 973.66 774.02 973.32 774.36
  Q 966.63 780.85 958.22 786.41
  Q 951.29 790.99 943.12 793.70
  Q 922.15 800.66 904.59 791.01
  Q 910.56 791.31 916.48 793.47
  Q 919.11 794.43 921.20 794.46
  C 927.58 794.54 933.11 794.15 939.07 791.46
  Q 941.72 790.27 944.34 789.42
  C 947.16 788.50 949.44 786.39 952.16 785.07
  Q 955.92 783.24 959.42 780.42
  Q 961.17 779.01 963.31 777.92
  C 966.05 776.52 968.18 774.35 970.51 772.27
  C 971.62 771.28 972.50 771.60 973.92 771.95
  Q 976.79 772.66 977.69 775.73
  Z"
/>
<path fill="#196cbb" d="
  M 443.70 849.29
  Q 440.98 857.67 443.86 866.34
  Q 447.24 876.53 450.68 886.70
  Q 458.27 909.14 456.06 932.52
  Q 450.46 932.07 444.95 931.01
  C 438.63 929.79 432.43 928.94 426.31 928.96
  C 420.38 928.98 415.13 926.68 409.58 926.01
  Q 398.43 924.68 383.57 921.22
  Q 383.07 921.11 382.77 920.71
  C 370.88 905.07 363.71 888.68 359.15 869.64
  Q 355.59 854.76 350.84 839.49
  Q 349.57 835.39 349.43 830.60
  C 349.26 824.57 353.61 822.74 358.60 821.91
  Q 360.88 821.53 363.17 822.22
  C 369.50 824.11 375.60 826.90 381.71 828.89
  C 389.96 831.57 397.46 834.97 405.83 837.59
  C 414.17 840.21 422.06 843.38 430.11 845.43
  Q 438.82 847.65 443.70 849.29
  Z"
/>
<path fill="#1c79c2" d="
  M 443.70 849.29
  Q 450.93 850.49 460.22 853.34
  Q 468.06 855.74 477.09 854.87
  Q 485.37 857.20 493.90 858.77
  Q 497.23 859.38 500.40 860.13
  C 503.36 860.82 506.29 860.92 509.18 861.65
  C 512.91 862.60 516.65 862.79 520.29 863.59
  Q 524.15 864.44 528.40 864.92
  Q 529.90 865.09 533.88 866.00
  Q 536.80 866.66 539.55 866.35
  Q 542.83 867.07 546.11 867.31
  Q 550.07 867.59 552.69 868.08
  Q 558.53 869.16 564.46 869.58
  C 566.86 869.74 569.62 870.55 571.52 870.62
  Q 580.39 870.98 589.18 871.33
  Q 598.95 872.08 608.68 872.90
  C 617.99 873.68 626.83 873.32 635.79 873.65
  C 642.42 873.89 649.01 873.61 655.61 873.59
  Q 662.15 873.57 670.42 872.99
  Q 678.58 872.42 687.60 872.18
  Q 688.49 872.15 688.94 871.75
  Q 689.30 871.42 689.78 871.36
  L 696.23 870.58
  L 746.67 865.49
  C 749.27 865.86 750.90 865.01 753.30 864.87
  Q 754.27 864.81 755.23 864.68
  Q 761.85 863.75 767.91 863.05
  Q 774.80 862.24 780.52 861.18
  Q 787.99 859.80 795.42 858.47
  C 797.74 858.06 799.83 857.29 802.17 857.02
  Q 804.70 856.73 807.26 856.17
  C 811.48 855.24 815.78 854.74 819.99 853.65
  Q 830.63 850.90 840.39 850.30
  Q 840.89 850.27 840.97 850.76
  Q 841.09 851.48 840.41 851.72
  Q 837.46 852.78 835.01 854.38
  Q 832.43 856.07 829.77 857.27
  Q 824.32 859.74 818.75 862.61
  C 812.67 865.73 806.37 868.54 800.32 871.52
  Q 797.34 872.99 794.40 874.20
  C 787.95 876.85 781.91 880.60 775.25 882.68
  C 772.19 883.64 768.20 885.57 766.26 886.32
  Q 761.02 888.32 755.81 890.42
  C 753.02 891.55 750.18 892.32 747.45 893.62
  Q 744.48 895.04 741.27 896.00
  C 737.53 897.12 734.07 898.79 730.23 899.79
  C 725.80 900.96 721.85 902.75 717.48 903.99
  C 713.37 905.15 709.53 907.19 705.36 907.96
  Q 701.35 908.69 697.94 910.12
  Q 694.59 911.52 690.97 912.16
  C 685.63 913.12 680.65 915.14 675.44 916.12
  C 669.55 917.24 663.97 919.04 658.33 920.08
  Q 651.69 921.30 645.62 922.92
  Q 642.13 923.86 638.80 924.22
  Q 635.28 924.60 631.73 925.08
  Q 627.36 925.67 624.29 926.58
  Q 619.51 927.99 616.94 928.35
  Q 609.40 929.40 601.80 929.87
  Q 598.22 930.09 593.95 931.12
  Q 588.07 932.55 582.02 932.96
  Q 570.72 933.93 559.35 933.82
  C 551.27 933.74 543.41 935.76 535.42 936.00
  Q 514.94 936.63 492.62 934.98
  Q 486.66 934.53 474.34 934.05
  Q 465.17 933.70 456.06 932.52
  Q 458.27 909.14 450.68 886.70
  Q 447.24 876.53 443.86 866.34
  Q 440.98 857.67 443.70 849.29
  Z"
/>
<path fill="#993239" d="
  M 587.99 933.28
  L 582.02 932.96
  Q 588.07 932.55 593.95 931.12
  Q 598.22 930.09 601.80 929.87
  Q 609.40 929.40 616.94 928.35
  Q 619.51 927.99 624.29 926.58
  Q 627.36 925.67 631.73 925.08
  Q 635.28 924.60 638.80 924.22
  Q 642.13 923.86 645.62 922.92
  Q 651.69 921.30 658.33 920.08
  C 663.97 919.04 669.55 917.24 675.44 916.12
  C 680.65 915.14 685.63 913.12 690.97 912.16
  Q 694.59 911.52 697.94 910.12
  Q 701.35 908.69 705.36 907.96
  C 709.53 907.19 713.37 905.15 717.48 903.99
  C 721.85 902.75 725.80 900.96 730.23 899.79
  C 734.07 898.79 737.53 897.12 741.27 896.00
  Q 744.48 895.04 747.45 893.62
  C 750.18 892.32 753.02 891.55 755.81 890.42
  Q 761.02 888.32 766.26 886.32
  C 768.20 885.57 772.19 883.64 775.25 882.68
  C 781.91 880.60 787.95 876.85 794.40 874.20
  Q 797.34 872.99 800.32 871.52
  C 806.37 868.54 812.67 865.73 818.75 862.61
  Q 824.32 859.74 829.77 857.27
  Q 832.43 856.07 835.01 854.38
  Q 837.46 852.78 840.41 851.72
  Q 841.09 851.48 840.97 850.76
  Q 840.89 850.27 840.39 850.30
  Q 830.63 850.90 819.99 853.65
  C 815.78 854.74 811.48 855.24 807.26 856.17
  Q 804.70 856.73 802.17 857.02
  C 799.83 857.29 797.74 858.06 795.42 858.47
  Q 787.99 859.80 780.52 861.18
  Q 774.80 862.24 767.91 863.05
  Q 761.85 863.75 755.23 864.68
  Q 754.27 864.81 753.30 864.87
  C 750.90 865.01 749.27 865.86 746.67 865.49
  Q 749.62 864.33 752.68 864.00
  Q 757.77 863.44 758.76 863.25
  Q 763.99 862.28 769.15 861.99
  Q 773.06 861.77 776.42 860.78
  Q 779.88 859.77 783.72 859.32
  Q 788.06 858.81 792.23 857.98
  Q 796.31 857.18 800.83 856.34
  Q 802.46 856.03 804.08 855.90
  C 805.97 855.74 807.46 855.00 809.30 854.60
  Q 814.85 853.41 820.27 852.35
  C 823.63 851.68 826.88 850.67 830.17 849.70
  C 834.22 848.50 838.41 849.01 842.59 848.58
  A 1.36 1.36 0.0 0 1 843.87 850.68
  Q 842.88 852.18 841.16 853.10
  Q 832.55 857.71 822.02 862.86
  C 820.58 863.57 819.49 864.49 817.98 865.22
  Q 799.33 874.19 779.62 883.13
  C 776.11 884.73 772.41 885.79 768.92 887.35
  C 765.99 888.67 763.02 889.54 760.10 890.70
  Q 735.85 900.34 713.55 907.26
  Q 710.49 908.21 707.68 909.23
  Q 704.44 910.40 701.15 911.19
  Q 696.43 912.34 691.72 913.72
  C 684.28 915.90 676.76 917.38 669.30 919.50
  Q 666.28 920.35 664.06 920.54
  Q 662.20 920.69 660.53 921.18
  Q 658.48 921.78 656.46 921.60
  A 1.24 1.23 -67.1 0 0 655.43 922.02
  Q 654.87 922.68 654.02 922.91
  Q 648.85 924.27 642.84 925.01
  Q 641.40 925.19 640.14 925.76
  C 638.85 926.33 637.67 925.98 636.33 926.37
  C 634.27 926.97 632.31 927.66 630.13 927.86
  C 623.33 928.47 617.29 929.03 610.20 930.46
  Q 599.17 932.69 587.99 933.28
  Z"
/>
<path fill="#993239" d="
  M 595.06 871.11
  L 589.18 871.33
  Q 580.39 870.98 571.52 870.62
  C 569.62 870.55 566.86 869.74 564.46 869.58
  Q 558.53 869.16 552.69 868.08
  Q 550.07 867.59 546.11 867.31
  Q 542.83 867.07 539.55 866.35
  Q 550.63 866.43 561.40 868.15
  Q 564.71 868.69 567.59 868.92
  C 570.41 869.15 572.88 870.00 575.82 870.13
  Q 585.43 870.54 595.06 871.11
  Z"
/>
<path fill="#155baf" d="
  M 696.23 870.58
  L 689.78 871.36
  Q 689.30 871.42 688.94 871.75
  Q 688.49 872.15 687.60 872.18
  Q 678.58 872.42 670.42 872.99
  Q 662.15 873.57 655.61 873.59
  C 649.01 873.61 642.42 873.89 635.79 873.65
  C 626.83 873.32 617.99 873.68 608.68 872.90
  Q 598.95 872.08 589.18 871.33
  L 595.06 871.11
  L 609.96 872.12
  Q 624.81 873.24 639.73 872.50
  L 696.23 870.58
  Z"
/>
<path fill="#993239" d="
  M 639.73 872.50
  Q 624.81 873.24 609.96 872.12
  L 639.73 872.50
  Z"
/>
<path fill="#f4e1e5" d="
  M 1037.60 1252.00
  L 362.56 1252.00
  Q 365.47 1227.69 351.68 1208.95
  Q 342.89 1197.01 339.75 1192.49
  Q 327.77 1175.31 326.00 1154.17
  Q 325.40 1146.99 323.58 1131.01
  Q 323.00 1125.93 323.21 1120.24
  Q 323.96 1099.61 325.09 1090.15
  C 326.70 1076.62 329.13 1062.89 326.42 1049.61
  Q 324.90 1042.20 324.12 1035.37
  C 323.07 1026.11 325.00 1016.87 327.08 1007.63
  C 329.92 995.03 328.90 983.01 324.73 970.25
  Q 321.68 960.90 319.89 952.45
  C 317.73 942.22 318.33 934.01 328.13 927.69
  Q 337.16 921.85 346.60 916.21
  Q 377.17 923.02 386.50 924.51
  Q 395.78 925.98 404.97 927.67
  C 421.44 930.70 436.98 932.64 452.95 934.27
  Q 465.65 935.56 475.53 936.35
  Q 508.90 939.00 541.26 938.24
  C 545.99 938.13 551.16 937.32 555.72 938.77
  L 569.69 943.54
  Q 584.43 948.78 592.32 950.90
  Q 611.12 955.95 628.92 957.35
  C 639.87 958.22 651.81 959.28 662.72 959.12
  Q 674.72 958.95 698.80 958.04
  Q 724.56 957.06 742.46 954.92
  Q 750.32 953.98 766.27 951.20
  Q 775.91 949.52 785.79 946.91
  Q 819.11 938.08 850.34 923.50
  C 859.44 919.25 870.64 913.12 880.81 908.03
  C 889.45 910.91 897.65 916.22 902.03 924.39
  C 903.87 927.83 904.69 931.76 905.74 935.59
  C 906.98 940.09 909.63 943.67 912.82 947.25
  Q 921.91 957.45 926.80 972.78
  C 932.80 991.59 935.91 1011.34 937.97 1031.36
  C 939.48 1045.92 942.73 1059.06 946.62 1073.31
  C 949.98 1085.60 953.90 1095.42 960.85 1105.89
  C 964.72 1111.72 968.35 1117.64 971.77 1123.77
  Q 979.90 1138.35 989.22 1153.65
  C 992.89 1159.67 996.89 1167.86 999.93 1175.24
  Q 1005.30 1188.21 1012.26 1204.25
  Q 1016.67 1214.38 1021.72 1222.24
  C 1025.25 1227.71 1030.71 1233.21 1035.04 1238.68
  Q 1039.78 1244.65 1037.60 1252.00
  Z"
/>
</svg>
