<?xml version="1.0" encoding="UTF-8" standalone="no"?>
<!DOCTYPE svg PUBLIC "-//W3C//DTD SVG 1.1//EN" "http://www.w3.org/Graphics/SVG/1.1/DTD/svg11.dtd">
<svg xmlns="http://www.w3.org/2000/svg" version="1.1" viewBox="0.00 0.00 1200.00 800.00">
<g stroke-width="2.00" fill="none" stroke-linecap="butt">
<path stroke="#9093ba" vector-effect="non-scaling-stroke" d="
  M 511.17 246.52
  A 0.21 0.21 0.0 0 0 511.15 246.19
  C 478.64 223.16 459.20 188.17 455.10 148.65
  C 454.97 147.47 454.44 145.92 454.43 144.99
  Q 454.41 138.40 453.99 132.45
  Q 453.74 128.76 451.19 127.01
  Q 448.49 125.15 445.67 126.54
  C 442.35 128.18 441.80 131.42 442.15 134.68
  C 442.66 139.39 442.56 144.01 443.20 148.82
  Q 443.60 151.85 444.03 154.95
  Q 448.67 188.34 466.48 216.23
  Q 479.87 237.20 501.70 253.77
  Q 502.18 254.13 502.65 253.74
  L 511.17 246.52"
/>
<path stroke="#9093ba" vector-effect="non-scaling-stroke" d="
  M 518.32 241.15
  L 525.54 236.17
  Q 525.88 235.94 525.66 235.60
  Q 510.16 212.14 511.47 183.04
  Q 512.10 169.23 517.88 154.49
  C 519.01 151.61 518.10 149.28 515.17 148.12
  Q 510.96 146.45 509.07 151.03
  C 496.69 181.10 500.13 213.70 517.81 241.05
  A 0.37 0.36 -33.5 0 0 518.32 241.15"
/>
<path stroke="#9093ba" vector-effect="non-scaling-stroke" d="
  M 674.24 230.17
  A 0.31 0.31 0.0 0 0 674.36 230.60
  L 682.17 234.85
  A 0.33 0.33 0.0 0 0 682.61 234.72
  Q 691.36 219.31 693.76 201.23
  Q 694.36 196.73 689.84 196.21
  Q 689.75 196.20 689.66 196.19
  Q 685.14 195.67 684.41 200.16
  Q 681.55 217.63 674.24 230.17"
/>
<path stroke="#9093ba" vector-effect="non-scaling-stroke" d="
  M 690.42 239.79
  A 0.30 0.30 0.0 0 0 690.43 240.26
  L 698.91 246.68
  Q 699.64 247.23 700.33 246.64
  Q 717.09 232.25 729.31 213.58
  Q 730.13 212.33 730.64 210.91
  C 732.01 207.15 727.13 202.69 723.50 204.08
  Q 721.27 204.94 720.07 206.79
  C 712.43 218.56 701.95 230.72 690.42 239.79"
/>
<path stroke="#9093ba" vector-effect="non-scaling-stroke" d="
  M 622.31 270.36
  C 643.54 264.43 661.26 250.12 672.74 231.11
  Q 672.86 230.92 672.66 230.82
  C 626.28 206.94 571.73 209.09 527.45 236.21
  Q 527.20 236.36 527.37 236.60
  Q 539.72 253.83 557.38 263.45
  C 566.20 268.25 576.67 272.21 586.45 272.50
  Q 590.40 272.62 594.56 272.84
  C 597.66 273.01 600.68 272.48 603.79 272.56
  Q 607.05 272.65 610.23 272.13
  C 614.28 271.46 618.39 271.45 622.31 270.36"
/>
<path stroke="#9093ba" vector-effect="non-scaling-stroke" d="
  M 688.11 239.94
  L 683.23 236.72
  Q 682.68 236.36 682.39 236.95
  C 679.67 242.53 675.33 248.02 670.95 252.47
  Q 670.87 252.55 670.94 252.63
  L 670.95 252.64
  Q 671.06 252.77 671.20 252.67
  Q 679.75 246.77 688.12 240.70
  Q 688.67 240.30 688.11 239.94"
/>
<path stroke="#9093ba" vector-effect="non-scaling-stroke" d="
  M 529.60 256.39
  Q 529.63 256.34 529.59 256.30
  Q 522.84 250.45 518.04 242.94
  A 0.69 0.68 48.4 0 0 516.94 242.87
  Q 515.41 244.69 513.41 245.84
  Q 512.61 246.31 513.40 246.80
  L 529.16 256.64
  Q 529.33 256.74 529.45 256.59
  L 529.60 256.39"
/>
<path stroke="#9093ba" vector-effect="non-scaling-stroke" d="
  M 653.69 295.15
  Q 655.03 298.20 654.46 301.55
  Q 653.82 305.29 653.31 308.60
  Q 652.85 311.66 649.98 313.65
  Q 649.56 313.94 649.63 314.45
  C 650.49 320.77 644.70 323.71 639.80 325.47
  Q 629.21 329.27 617.82 331.66
  Q 612.15 332.85 608.16 334.89
  C 599.17 339.48 594.67 350.77 593.56 360.51
  C 593.30 362.80 592.80 365.24 592.95 367.52
  Q 593.31 373.42 594.63 379.08
  C 599.46 399.85 620.19 406.65 638.80 408.91
  C 642.84 409.39 646.75 410.00 650.73 410.24
  Q 659.45 410.76 667.30 412.04
  Q 680.25 414.16 692.06 420.40
  Q 713.87 431.95 719.94 455.36
  Q 720.08 455.90 720.43 455.47
  Q 746.30 422.84 752.02 381.91
  C 752.38 379.36 752.34 376.81 752.75 374.26
  Q 753.17 371.70 753.25 369.05
  Q 753.69 354.65 751.95 342.77
  Q 743.71 286.53 700.07 248.85
  Q 699.60 248.44 699.11 248.83
  C 698.01 249.71 697.03 250.75 695.92 251.62
  Q 658.89 280.72 611.72 285.42
  Q 608.55 285.74 605.91 285.62
  Q 604.39 285.56 605.78 286.17
  Q 611.93 288.86 618.04 291.48
  Q 621.63 293.02 624.59 293.21
  Q 633.39 293.76 643.02 296.36
  C 644.29 296.70 645.18 296.02 646.25 295.49
  Q 649.39 293.91 652.82 294.47
  Q 653.44 294.57 653.69 295.15"
/>
<path stroke="#9093ba" vector-effect="non-scaling-stroke" d="
  M 505.86 288.25
  C 509.38 285.35 517.25 283.80 521.70 283.17
  Q 527.85 282.30 534.67 282.96
  Q 548.57 284.32 563.16 288.51
  Q 563.98 288.74 564.83 288.77
  Q 565.50 288.79 565.98 288.32
  Q 568.33 285.97 571.17 284.48
  Q 571.82 284.14 571.10 284.03
  Q 533.65 278.12 502.74 255.68
  A 0.56 0.56 0.0 0 0 502.02 255.73
  Q 465.12 292.45 457.93 342.16
  Q 456.49 352.13 456.52 361.99
  Q 456.65 413.66 488.74 454.57
  Q 505.60 476.07 528.88 489.66
  Q 535.84 493.73 543.99 497.98
  Q 545.21 498.62 544.25 497.64
  Q 541.90 495.24 540.16 492.58
  Q 527.71 473.55 523.98 450.52
  C 523.20 445.71 522.44 441.00 522.22 436.07
  Q 522.00 431.27 521.67 426.81
  Q 521.38 422.91 521.85 414.24
  Q 522.59 400.53 524.49 388.46
  C 528.24 364.60 535.42 340.34 546.44 319.29
  Q 549.93 312.63 554.22 308.08
  C 557.07 305.06 564.05 300.66 568.32 303.07
  Q 568.50 303.18 568.61 303.00
  Q 568.64 302.96 568.65 302.91
  Q 568.69 302.70 568.52 302.58
  C 565.76 300.42 562.53 301.04 559.50 302.43
  C 549.53 306.99 539.68 309.97 528.87 305.74
  C 520.84 302.61 510.47 297.66 505.52 291.01
  A 2.02 2.02 0.0 0 1 505.86 288.25"
/>
<path stroke="#9093ba" vector-effect="non-scaling-stroke" d="
  M 627.94 315.47
  Q 626.74 315.66 627.91 315.99
  C 631.18 316.92 634.20 316.48 637.22 314.91
  C 640.76 313.07 644.63 311.65 648.63 312.66
  A 0.11 0.11 0.0 0 0 648.76 312.50
  Q 648.28 311.49 647.13 311.00
  Q 646.39 310.68 645.57 310.72
  Q 641.79 310.91 638.56 312.33
  Q 633.37 314.60 627.94 315.47"
/>
<path stroke="#9093ba" vector-effect="non-scaling-stroke" d="
  M 397.10 531.90
  A 0.34 0.34 0.0 0 0 396.72 531.56
  L 385.85 532.96
  A 0.34 0.34 0.0 0 0 385.55 533.30
  L 385.56 589.83
  A 0.34 0.34 0.0 0 0 385.90 590.17
  L 396.73 590.01
  A 0.34 0.34 0.0 0 0 397.07 589.67
  L 397.10 531.90"
/>
<path stroke="#9093ba" vector-effect="non-scaling-stroke" d="
  M 496.80 571.08
  Q 497.28 570.86 497.81 571.09
  Q 498.51 571.38 498.89 572.11
  Q 503.28 580.71 507.85 589.14
  A 1.85 1.83 -14.1 0 0 509.47 590.10
  L 519.60 590.11
  Q 520.34 590.11 519.98 589.47
  L 509.62 570.62
  Q 509.11 569.69 509.61 568.77
  L 519.50 550.29
  Q 519.82 549.68 519.14 549.68
  L 508.38 549.69
  Q 507.79 549.69 507.53 550.21
  L 498.27 568.35
  A 0.96 0.95 3.1 0 1 497.74 568.82
  Q 497.36 568.96 497.00 568.88
  Q 496.53 568.78 496.53 568.30
  L 496.55 532.03
  Q 496.55 531.29 495.82 531.45
  Q 491.13 532.53 486.18 532.74
  Q 485.51 532.77 485.51 533.44
  L 485.51 589.45
  Q 485.51 590.12 486.18 590.12
  L 495.97 590.12
  Q 496.56 590.12 496.55 589.53
  L 496.52 571.51
  Q 496.52 571.21 496.80 571.08"
/>
<path stroke="#9093ba" vector-effect="non-scaling-stroke" d="
  M 539.3509 532.0199
  A 0.51 0.51 0.0 0 0 538.8400 531.5108
  L 528.3000 531.5292
  A 0.51 0.51 0.0 0 0 527.7909 532.0401
  L 527.8091 542.4401
  A 0.51 0.51 0.0 0 0 528.3200 542.9492
  L 538.8600 542.9308
  A 0.51 0.51 0.0 0 0 539.3691 542.4199
  L 539.3509 532.0199"
/>
<path stroke="#9093ba" vector-effect="non-scaling-stroke" d="
  M 704.34 541.32
  Q 705.18 541.28 705.97 540.91
  C 707.41 540.23 709.82 540.90 711.26 541.31
  Q 712.54 541.67 712.73 540.36
  L 713.70 533.60
  Q 713.85 532.56 712.82 532.32
  Q 706.55 530.85 700.54 531.92
  Q 694.94 532.91 692.81 537.88
  C 691.12 541.83 691.72 545.84 691.68 550.06
  Q 691.68 550.60 691.14 550.65
  Q 688.81 550.86 686.64 550.51
  Q 685.57 550.33 685.57 551.41
  L 685.58 559.30
  Q 685.58 560.13 686.42 560.13
  L 690.87 560.09
  Q 691.65 560.08 691.65 560.87
  L 691.64 589.50
  Q 691.64 590.11 692.25 590.11
  L 702.05 590.09
  A 1.14 1.14 0.0 0 0 703.19 588.95
  L 703.17 560.52
  A 0.40 0.40 0.0 0 1 703.56 560.12
  L 711.55 560.03
  Q 711.76 560.03 711.80 559.82
  Q 712.54 555.32 712.49 550.79
  Q 712.49 550.60 712.30 550.60
  L 704.01 550.67
  Q 703.10 550.68 703.12 549.76
  L 703.30 542.40
  Q 703.32 541.38 704.34 541.32"
/>
<path stroke="#9093ba" vector-effect="non-scaling-stroke" d="
  M 735.05 560.14
  L 742.30 560.09
  Q 743.95 560.08 744.03 558.43
  L 744.40 551.40
  Q 744.44 550.61 743.65 550.61
  L 735.68 550.65
  Q 734.94 550.66 734.96 549.92
  L 735.19 542.13
  Q 735.21 541.44 735.89 541.35
  C 737.68 541.12 738.93 540.27 740.84 540.76
  Q 742.21 541.11 743.57 541.39
  Q 744.42 541.56 744.54 540.70
  L 745.62 533.37
  Q 745.73 532.57 744.95 532.40
  C 737.95 530.82 727.39 530.21 724.47 538.28
  Q 723.44 541.15 723.52 544.16
  Q 723.61 547.28 723.59 550.08
  Q 723.59 550.67 723.00 550.69
  Q 720.42 550.82 718.58 550.49
  Q 717.42 550.27 717.42 551.46
  L 717.44 559.24
  Q 717.44 560.11 718.31 560.11
  L 722.96 560.11
  Q 723.57 560.11 723.57 560.72
  L 723.56 589.49
  Q 723.55 590.11 724.18 590.11
  L 733.70 590.10
  A 1.29 1.29 0.0 0 0 734.99 588.82
  Q 735.12 575.82 734.98 564.56
  C 734.96 563.28 734.56 562.08 734.45 560.80
  Q 734.39 560.15 735.05 560.14"
/>
<path stroke="#9093ba" vector-effect="non-scaling-stroke" d="
  M 463.77 580.59
  C 461.19 579.94 460.39 576.94 460.42 574.58
  Q 460.48 569.44 460.47 564.68
  C 460.47 562.99 461.07 560.63 462.57 559.68
  Q 465.76 557.66 475.42 559.45
  Q 475.59 559.48 475.62 559.32
  Q 476.54 555.32 476.82 550.26
  Q 476.83 550.04 476.62 549.99
  C 467.53 547.89 452.45 547.57 449.91 559.47
  Q 448.18 567.58 449.39 577.65
  C 451.07 591.71 465.23 592.12 476.54 589.74
  Q 476.75 589.70 476.74 589.48
  Q 476.61 584.61 475.58 580.34
  Q 475.55 580.23 475.43 580.25
  C 471.53 581.00 467.35 581.50 463.77 580.59"
/>
<path stroke="#9093ba" vector-effect="non-scaling-stroke" d="
  M 561.10 562.46
  Q 562.74 562.07 564.27 561.33
  Q 567.46 559.79 571.99 560.33
  Q 572.45 560.39 572.55 560.84
  Q 572.89 562.30 572.89 563.75
  Q 572.93 576.22 572.90 588.95
  A 1.15 1.15 0.0 0 0 574.04 590.10
  L 584.01 590.12
  A 0.37 0.37 0.0 0 0 584.38 589.75
  Q 584.36 575.50 584.38 561.24
  C 584.39 553.50 581.17 547.57 572.32 549.04
  Q 565.25 550.21 559.38 552.76
  A 0.67 0.67 0.0 0 1 558.45 552.26
  Q 558.25 551.12 557.67 550.18
  Q 557.38 549.69 556.80 549.69
  L 549.99 549.68
  Q 549.42 549.68 549.42 550.24
  L 549.43 589.77
  A 0.34 0.34 0.0 0 0 549.77 590.11
  L 559.94 590.11
  Q 560.50 590.11 560.50 589.56
  L 560.50 563.22
  Q 560.50 562.60 561.10 562.46"
/>
<path stroke="#9093ba" vector-effect="non-scaling-stroke" d="
  M 623.92 579.64
  C 622.24 577.36 622.53 575.75 622.47 573.14
  Q 622.34 567.92 622.57 563.24
  C 622.65 561.68 623.85 559.87 625.39 559.31
  C 629.60 557.80 632.41 558.75 636.41 559.41
  Q 637.83 559.65 637.98 558.21
  L 638.74 550.76
  Q 638.87 549.45 637.57 549.58
  Q 635.84 549.76 634.01 549.26
  C 630.12 548.18 625.08 548.87 621.26 549.96
  C 615.04 551.73 612.08 555.78 611.45 561.91
  Q 610.39 572.33 611.83 579.89
  C 614.17 592.11 628.57 591.64 638.68 589.68
  Q 639.23 589.58 639.08 589.03
  Q 638.09 585.42 638.10 581.16
  Q 638.10 580.45 637.40 580.50
  C 633.28 580.80 629.14 581.32 625.13 580.42
  Q 624.38 580.26 623.92 579.64"
/>
<path stroke="#9093ba" vector-effect="non-scaling-stroke" d="
  M 680.2898 564.1133
  A 15.13 15.13 0.0 0 0 665.2127 548.9306
  L 659.2127 548.9097
  A 15.13 15.13 0.0 0 0 644.0300 563.9867
  L 643.9902 575.3867
  A 15.13 15.13 0.0 0 0 659.0673 590.5694
  L 665.0673 590.5903
  A 15.13 15.13 0.0 0 0 680.2500 575.5133
  L 680.2898 564.1133"
/>
<path stroke="#9093ba" vector-effect="non-scaling-stroke" d="
  M 762.68 574.03
  L 781.11 574.01
  Q 782.33 574.01 782.38 572.79
  Q 782.64 566.21 782.09 561.15
  C 780.81 549.29 768.09 546.96 758.55 550.17
  Q 751.48 552.55 749.85 559.60
  Q 748.24 566.57 749.11 575.86
  C 749.83 583.69 753.54 589.00 761.47 590.22
  Q 771.12 591.71 781.68 588.45
  Q 781.86 588.39 781.83 588.20
  L 780.37 580.11
  A 0.18 0.18 0.0 0 0 780.14 579.97
  Q 774.20 581.81 765.63 581.66
  Q 761.79 581.60 760.70 577.92
  Q 760.60 577.56 760.47 577.21
  Q 759.28 574.03 762.68 574.03"
/>
<path stroke="#9093ba" vector-effect="non-scaling-stroke" d="
  M 801.71 574.02
  L 821.22 574.02
  A 0.37 0.37 0.0 0 0 821.59 573.64
  Q 821.48 569.54 821.60 565.19
  C 821.78 559.01 819.68 552.81 813.75 550.42
  Q 805.92 547.27 797.43 550.26
  C 790.18 552.82 788.33 559.03 788.40 566.22
  Q 788.44 571.84 788.59 576.80
  C 788.85 585.92 796.01 590.47 804.71 590.66
  Q 813.56 590.85 820.97 588.35
  Q 821.20 588.27 821.15 588.04
  L 819.61 580.21
  A 0.28 0.28 0.0 0 0 819.27 580.00
  Q 812.65 581.84 805.18 581.65
  Q 801.50 581.55 800.04 578.16
  Q 799.84 577.70 799.62 577.19
  Q 798.26 574.02 801.71 574.02"
/>
<path stroke="#9093ba" vector-effect="non-scaling-stroke" d="
  M 429.27 577.44
  C 428.61 577.49 427.82 577.60 427.23 577.93
  Q 423.27 580.12 419.17 579.59
  A 2.07 2.07 0.0 0 1 417.36 577.54
  L 417.36 550.27
  Q 417.36 549.67 416.77 549.67
  L 406.46 549.70
  Q 405.81 549.70 405.80 550.36
  Q 405.78 564.51 405.84 577.60
  C 405.86 582.23 407.04 589.49 412.45 590.37
  C 418.12 591.30 423.97 589.74 429.52 587.47
  Q 430.29 587.16 431.06 587.27
  Q 432.24 587.43 432.39 588.75
  A 1.35 1.34 90.0 0 0 433.57 589.94
  Q 436.96 590.33 440.49 589.96
  A 0.91 0.90 86.8 0 0 441.29 589.06
  L 441.30 550.24
  Q 441.30 549.69 440.74 549.69
  L 430.26 549.68
  A 0.56 0.56 0.0 0 0 429.70 550.24
  L 429.71 576.96
  A 0.48 0.47 -3.2 0 1 429.27 577.44"
/>
<path stroke="#9093ba" vector-effect="non-scaling-stroke" d="
  M 539.35 550.22
  A 0.53 0.53 0.0 0 0 538.82 549.69
  L 528.34 549.69
  A 0.53 0.53 0.0 0 0 527.81 550.22
  L 527.81 589.56
  A 0.53 0.53 0.0 0 0 528.34 590.09
  L 538.82 590.09
  A 0.53 0.53 0.0 0 0 539.35 589.56
  L 539.35 550.22"
/>
<path stroke="#9093ba" vector-effect="non-scaling-stroke" d="
  M 393.75 623.11
  Q 394.33 621.59 395.96 621.57
  L 414.26 621.40
  Q 414.92 621.39 414.77 620.75
  L 414.67 620.35
  Q 414.51 619.68 413.82 619.68
  L 396.72 619.61
  Q 395.91 619.60 396.14 618.82
  L 396.79 616.57
  Q 397.16 615.28 398.50 615.26
  L 412.56 615.04
  Q 413.38 615.03 413.37 614.21
  L 413.37 613.71
  Q 413.36 612.94 412.59 612.92
  L 399.89 612.55
  Q 399.24 612.53 399.14 611.89
  L 398.94 610.61
  A 0.86 0.84 0.6 0 0 398.23 609.90
  C 395.82 609.51 395.99 611.11 394.72 612.24
  Q 394.32 612.59 393.79 612.64
  Q 390.96 612.89 388.25 613.25
  Q 386.77 613.45 387.20 614.50
  A 0.79 0.78 -9.8 0 0 387.90 614.99
  L 392.58 615.19
  Q 394.27 615.26 393.81 616.88
  L 393.56 617.78
  Q 393.06 619.55 391.22 619.64
  L 386.42 619.86
  Q 385.81 619.89 385.61 620.46
  L 385.48 620.81
  A 0.45 0.45 0.0 0 0 385.91 621.42
  L 390.14 621.37
  A 0.81 0.81 0.0 0 1 390.93 622.41
  L 389.56 627.03
  A 0.85 0.85 0.0 0 0 390.37 628.13
  L 405.39 628.19
  Q 408.16 628.20 406.27 630.22
  L 404.38 632.24
  Q 402.59 634.15 400.04 633.58
  L 391.32 631.61
  Q 390.26 631.37 390.33 632.46
  L 390.36 632.95
  A 1.17 1.16 4.2 0 0 391.29 634.02
  Q 400.00 635.85 408.70 639.37
  Q 409.61 639.74 409.54 638.76
  L 409.49 637.98
  Q 409.41 636.99 408.52 636.56
  L 406.54 635.61
  A 1.07 1.06 38.9 0 1 406.34 633.81
  Q 409.70 631.19 412.34 627.49
  A 1.11 1.11 0.0 0 0 411.44 625.74
  L 394.12 625.66
  Q 392.77 625.65 393.26 624.39
  L 393.75 623.11"
/>
<path stroke="#9093ba" vector-effect="non-scaling-stroke" d="
  M 734.69 617.77
  A 0.57 0.57 0.0 0 1 734.20 616.90
  L 736.12 613.86
  A 1.12 1.12 0.0 0 0 735.29 612.15
  L 731.99 611.82
  Q 731.25 611.75 730.96 611.07
  Q 730.35 609.68 729.06 610.08
  A 1.62 1.62 0.0 0 0 728.00 611.10
  Q 727.02 613.92 724.70 615.80
  A 0.71 0.71 0.0 0 0 724.58 616.77
  L 724.76 617.02
  A 0.61 0.61 0.0 0 0 725.67 617.10
  C 727.48 615.41 729.79 613.39 732.30 613.82
  Q 732.88 613.92 732.77 614.49
  Q 732.48 616.11 731.24 617.24
  Q 730.83 617.62 730.27 617.65
  L 726.28 617.90
  A 0.69 0.69 0.0 0 0 725.64 618.59
  L 725.64 631.74
  A 0.60 0.60 0.0 0 0 726.24 632.34
  L 734.12 632.32
  A 3.19 3.19 0.0 0 0 737.30 629.13
  L 737.31 618.40
  Q 737.31 617.73 736.65 617.74
  L 734.69 617.77"
/>
<path stroke="#9093ba" vector-effect="non-scaling-stroke" d="
  M 811.51 613.98
  L 811.53 610.79
  Q 811.53 609.79 810.54 609.89
  L 809.24 610.03
  Q 807.85 610.17 807.88 611.58
  L 807.94 613.80
  Q 807.96 614.56 807.20 614.57
  L 793.01 614.63
  Q 792.29 614.63 792.30 615.35
  L 792.30 615.62
  Q 792.31 616.57 793.25 616.56
  L 807.23 616.55
  A 1.31 1.31 0.0 0 1 808.54 617.85
  Q 808.63 627.82 812.00 635.34
  Q 813.77 639.28 818.06 639.46
  C 820.32 639.56 821.83 637.36 821.48 635.32
  Q 821.20 633.72 820.17 634.97
  Q 819.60 635.67 819.21 636.49
  A 1.86 1.86 0.0 0 1 816.17 636.95
  Q 814.20 634.82 813.61 631.86
  Q 812.15 624.50 811.61 617.55
  A 0.93 0.93 0.0 0 1 812.53 616.55
  L 820.55 616.52
  A 0.84 0.83 -1.0 0 0 821.38 615.67
  L 821.37 615.29
  A 0.64 0.63 2.6 0 0 820.80 614.67
  L 819.05 614.48
  A 0.65 0.65 0.0 0 1 818.46 613.80
  L 818.56 611.48
  Q 818.60 610.63 817.75 610.64
  L 816.85 610.65
  A 1.02 1.02 0.0 0 0 815.84 611.67
  L 815.84 613.72
  A 0.83 0.83 0.0 0 1 815.03 614.55
  L 812.17 614.62
  Q 811.51 614.64 811.51 613.98"
/>
<path stroke="#9093ba" vector-effect="non-scaling-stroke" d="
  M 535.03 616.29
  L 536.93 616.28
  Q 537.57 616.28 537.55 616.93
  L 536.91 635.62
  Q 536.90 636.04 536.64 636.36
  Q 535.99 637.18 534.97 637.56
  Q 534.49 637.75 534.74 638.19
  Q 535.06 638.75 535.74 638.82
  Q 537.24 638.96 538.61 638.27
  Q 539.06 638.04 539.17 637.54
  Q 539.49 636.16 539.48 634.75
  Q 539.41 624.98 539.51 615.31
  Q 539.53 614.02 538.29 614.37
  Q 536.46 614.88 534.93 614.25
  A 0.82 0.82 0.0 0 1 534.43 613.44
  L 534.58 611.17
  Q 534.63 610.38 533.84 610.40
  L 533.43 610.41
  Q 532.56 610.44 532.56 611.32
  L 532.57 613.73
  Q 532.57 614.27 532.07 614.46
  Q 530.31 615.15 529.20 613.94
  Q 528.82 613.52 528.25 613.53
  L 522.46 613.59
  A 0.46 0.46 0.0 0 0 522.00 614.05
  L 521.92 635.97
  Q 521.92 636.48 522.43 636.53
  Q 525.80 636.80 528.96 636.09
  Q 529.53 635.96 529.75 636.51
  Q 529.91 636.89 529.87 637.29
  Q 529.70 639.48 530.86 637.62
  C 534.91 631.10 534.58 624.15 534.54 616.78
  Q 534.54 616.29 535.03 616.29"
/>
<path stroke="#9093ba" vector-effect="non-scaling-stroke" d="
  M 465.85 635.80
  A 0.54 0.54 0.0 0 1 465.31 635.26
  L 465.26 611.05
  A 0.54 0.54 0.0 0 0 464.71 610.51
  L 462.56 610.53
  A 0.54 0.54 0.0 0 0 462.03 611.07
  L 462.07 635.22
  A 0.54 0.54 0.0 0 1 461.54 635.76
  L 453.84 635.87
  A 0.54 0.54 0.0 0 0 453.31 636.46
  L 453.42 637.72
  A 0.54 0.54 0.0 0 0 453.96 638.21
  L 481.74 638.23
  A 0.54 0.54 0.0 0 0 482.28 637.70
  L 482.32 636.43
  A 0.54 0.54 0.0 0 0 481.78 635.87
  L 474.12 635.78
  A 0.54 0.54 0.0 0 1 473.59 635.24
  L 473.67 611.09
  A 0.54 0.54 0.0 0 0 473.14 610.55
  L 470.98 610.49
  A 0.54 0.54 0.0 0 0 470.43 611.03
  L 470.35 635.26
  A 0.54 0.54 0.0 0 1 469.81 635.80
  L 465.85 635.80"
/>
<path stroke="#9093ba" vector-effect="non-scaling-stroke" d="
  M 603.73 633.01
  L 603.72 638.43
  Q 603.71 639.39 604.68 639.47
  L 605.21 639.51
  Q 606.92 639.65 606.95 637.93
  Q 607.19 625.51 606.93 614.26
  Q 606.89 612.79 606.76 611.18
  Q 606.71 610.51 606.04 610.50
  L 604.27 610.46
  Q 603.75 610.45 603.75 610.97
  L 603.70 614.04
  A 0.54 0.53 4.3 0 1 603.09 614.56
  Q 600.99 614.29 598.81 614.83
  Q 598.11 615.00 598.09 614.28
  L 598.05 613.02
  Q 598.04 612.49 597.51 612.48
  L 590.22 612.41
  Q 589.59 612.40 589.59 613.03
  L 589.59 635.44
  Q 589.59 636.36 590.51 636.36
  L 595.03 636.33
  A 2.58 2.57 -83.8 0 0 597.53 634.31
  L 597.84 632.87
  Q 598.03 632.04 598.86 632.22
  Q 600.99 632.65 602.98 632.36
  Q 603.73 632.25 603.73 633.01"
/>
<path stroke="#9093ba" vector-effect="non-scaling-stroke" d="
  M 613.23 632.81
  A 0.41 0.41 0.0 0 1 613.65 632.40
  L 617.38 632.50
  A 0.41 0.41 0.0 0 0 617.80 632.05
  L 617.70 630.94
  A 0.41 0.41 0.0 0 0 617.28 630.57
  L 613.61 630.66
  A 0.41 0.41 0.0 0 1 613.19 630.25
  L 613.25 624.62
  A 0.41 0.41 0.0 0 1 613.66 624.22
  L 616.36 624.27
  A 0.41 0.41 0.0 0 0 616.78 623.84
  L 616.70 622.28
  A 0.41 0.41 0.0 0 0 616.29 621.89
  L 613.62 621.90
  A 0.41 0.41 0.0 0 1 613.21 621.49
  L 613.25 616.77
  A 0.41 0.41 0.0 0 1 613.66 616.37
  L 617.00 616.41
  A 0.41 0.41 0.0 0 0 617.42 616.00
  L 617.42 614.84
  A 0.41 0.41 0.0 0 0 617.00 614.43
  L 613.55 614.55
  A 0.41 0.41 0.0 0 1 613.13 614.12
  L 613.26 611.00
  A 0.41 0.41 0.0 0 0 612.86 610.57
  L 610.30 610.54
  A 0.41 0.41 0.0 0 0 609.88 610.95
  L 609.88 639.07
  A 0.41 0.41 0.0 0 0 610.29 639.48
  L 612.86 639.48
  A 0.41 0.41 0.0 0 0 613.27 639.07
  L 613.23 632.81"
/>
<path stroke="#9093ba" vector-effect="non-scaling-stroke" d="
  M 748.13 621.79
  L 747.51 617.80
  A 1.10 1.09 85.5 0 1 748.59 616.53
  L 753.09 616.55
  A 0.60 0.60 0.0 0 0 753.69 615.90
  L 753.66 615.50
  Q 753.58 614.54 752.62 614.67
  Q 752.15 614.73 751.81 614.59
  Q 751.27 614.37 751.35 613.80
  L 751.76 611.13
  Q 751.88 610.39 751.13 610.42
  L 750.33 610.44
  A 1.16 1.16 0.0 0 0 749.33 611.10
  Q 748.59 612.66 748.60 614.04
  Q 748.61 614.64 748.01 614.65
  L 745.03 614.70
  Q 744.60 614.71 744.40 614.33
  Q 743.54 612.73 743.57 611.08
  A 0.59 0.58 -85.4 0 0 743.08 610.50
  Q 742.06 610.34 741.11 610.49
  Q 740.41 610.60 740.67 611.26
  L 741.69 613.78
  A 0.56 0.56 0.0 0 1 741.38 614.51
  Q 740.80 614.74 740.19 614.58
  A 0.69 0.68 -70.3 0 0 739.38 614.97
  Q 739.19 615.44 739.15 615.92
  Q 739.10 616.52 739.71 616.52
  L 743.16 616.51
  Q 744.64 616.51 744.64 617.99
  L 744.63 620.84
  Q 744.63 622.56 742.91 622.52
  L 740.02 622.46
  Q 739.48 622.45 739.54 622.98
  L 739.64 623.78
  Q 739.71 624.34 740.28 624.34
  L 743.97 624.31
  Q 744.64 624.31 744.64 624.97
  L 744.62 629.11
  Q 744.62 630.04 743.69 629.95
  Q 741.40 629.72 739.31 630.44
  Q 738.73 630.64 738.50 631.20
  Q 738.39 631.48 738.46 631.75
  Q 738.60 632.28 739.15 632.28
  L 744.11 632.31
  A 0.54 0.54 0.0 0 1 744.65 632.86
  L 744.61 638.95
  Q 744.60 639.54 745.20 639.52
  L 747.71 639.41
  Q 748.06 639.40 748.06 639.05
  L 748.06 632.99
  Q 748.07 632.29 748.76 632.29
  L 753.43 632.32
  Q 754.21 632.32 754.30 631.55
  Q 754.33 631.24 754.17 631.01
  Q 753.48 630.08 752.52 630.04
  Q 749.31 629.90 748.80 629.93
  Q 748.04 629.99 748.03 629.23
  L 748.03 625.03
  Q 748.03 624.34 748.72 624.34
  L 752.27 624.33
  Q 752.63 624.32 752.69 623.97
  L 752.85 622.84
  A 0.38 0.37 3.8 0 0 752.47 622.41
  L 748.98 622.50
  Q 748.24 622.51 748.13 621.79"
/>
<path stroke="#9093ba" vector-effect="non-scaling-stroke" d="
  M 672.42 635.69
  Q 670.70 633.92 670.55 631.14
  A 1.15 1.14 0.3 0 0 669.47 630.06
  L 669.04 630.03
  Q 668.33 629.99 668.37 630.70
  Q 668.61 634.61 671.57 636.81
  Q 672.61 637.59 672.56 638.88
  A 0.31 0.31 0.0 0 0 673.07 639.13
  C 677.51 635.45 677.33 628.60 676.54 623.32
  Q 676.29 621.64 677.98 621.42
  L 679.09 621.28
  Q 680.59 621.08 680.58 622.59
  L 680.51 638.62
  A 0.84 0.84 0.0 0 0 681.37 639.46
  L 682.48 639.44
  Q 683.39 639.42 683.39 638.52
  L 683.46 622.03
  Q 683.47 621.54 683.94 621.45
  L 686.09 621.06
  A 0.36 0.36 0.0 0 0 686.35 620.56
  L 686.18 620.19
  A 1.07 1.05 -12.0 0 0 685.21 619.57
  L 677.28 619.48
  Q 676.52 619.48 676.50 618.71
  L 676.43 614.98
  Q 676.42 614.21 677.19 614.18
  C 680.03 614.07 683.01 614.05 685.70 613.17
  A 0.85 0.84 82.5 0 0 686.28 612.41
  Q 686.29 612.26 686.24 612.11
  Q 686.12 611.70 685.69 611.71
  L 674.10 611.90
  A 0.34 0.34 0.0 0 0 673.77 612.24
  L 673.82 620.23
  Q 673.82 621.29 672.81 620.96
  L 670.02 620.04
  Q 669.27 619.79 669.37 619.01
  Q 669.79 615.92 671.47 613.33
  A 0.46 0.46 0.0 0 0 671.06 612.62
  C 669.86 612.66 667.54 612.91 666.65 612.07
  Q 665.92 611.39 665.07 610.79
  A 1.47 1.46 -61.2 0 0 662.88 611.43
  C 662.18 613.10 659.67 612.70 658.24 612.66
  A 0.64 0.64 0.0 0 0 657.70 613.67
  Q 659.35 616.02 659.66 619.13
  Q 659.72 619.68 659.19 619.85
  Q 658.32 620.13 657.41 620.57
  Q 656.51 621.00 656.71 621.76
  Q 656.84 622.27 657.38 622.28
  L 661.93 622.30
  Q 663.35 622.30 663.57 623.70
  L 663.70 624.54
  Q 663.88 625.69 662.72 625.74
  L 658.36 625.91
  Q 657.63 625.94 657.50 626.66
  Q 657.47 626.81 657.48 626.97
  Q 657.56 628.04 658.64 628.07
  L 662.94 628.18
  A 0.62 0.62 0.0 0 1 663.54 628.77
  Q 663.71 631.66 663.31 634.99
  Q 663.03 637.22 661.14 637.59
  Q 660.87 637.65 660.68 637.83
  Q 660.26 638.21 660.51 638.72
  Q 660.69 639.08 661.09 639.15
  C 668.25 640.39 666.05 632.74 666.31 628.92
  A 0.90 0.89 2.0 0 1 667.21 628.09
  L 670.87 628.11
  Q 671.62 628.12 671.66 627.36
  L 671.71 626.53
  A 0.68 0.68 0.0 0 0 671.03 625.81
  L 667.01 625.79
  Q 666.36 625.79 666.35 625.14
  L 666.32 623.35
  A 0.87 0.87 0.0 0 1 667.15 622.46
  L 673.03 622.20
  A 0.69 0.68 -1.6 0 1 673.75 622.87
  Q 673.89 629.39 673.50 635.30
  A 0.63 0.63 0.0 0 1 672.42 635.69"
/>
<path stroke="#9093ba" vector-effect="non-scaling-stroke" d="
  M 549.07 613.46
  L 541.99 613.58
  Q 541.84 613.59 541.84 613.74
  L 541.85 636.57
  Q 541.85 637.54 542.82 637.52
  L 547.34 637.39
  A 2.14 2.14 0.0 0 0 549.42 635.26
  L 549.44 613.82
  Q 549.44 613.45 549.07 613.46"
/>
<path stroke="#9093ba" vector-effect="non-scaling-stroke" d="
  M 456.87 629.48
  L 459.11 629.09
  A 0.29 0.29 0.0 0 0 459.35 628.75
  L 457.22 616.68
  A 1.49 1.35 80.0 0 0 455.63 615.44
  L 455.47 615.47
  A 1.49 1.35 80.0 0 0 454.40 617.17
  L 456.53 629.25
  A 0.29 0.29 0.0 0 0 456.87 629.48"
/>
<path stroke="#9093ba" vector-effect="non-scaling-stroke" d="
  M 476.95 629.02
  L 479.17 629.41
  A 0.28 0.28 0.0 0 0 479.50 629.18
  L 481.64 617.02
  A 1.29 0.96 -80.0 0 0 480.92 615.58
  L 480.04 615.43
  A 1.29 0.96 -80.0 0 0 478.87 616.53
  L 476.72 628.69
  A 0.28 0.28 0.0 0 0 476.95 629.02"
/>
<path stroke="#9093ba" vector-effect="non-scaling-stroke" d="
  M 801.35 632.98
  Q 801.53 628.63 801.40 625.14
  Q 801.33 623.02 805.90 623.63
  Q 806.70 623.73 806.68 622.93
  L 806.68 622.52
  Q 806.66 621.61 805.75 621.61
  L 794.28 621.64
  A 0.96 0.93 25.7 0 0 793.71 621.83
  Q 793.03 622.34 793.07 622.98
  A 0.67 0.66 -2.3 0 0 793.74 623.59
  L 797.14 623.57
  Q 798.54 623.56 798.53 624.96
  L 798.51 633.93
  Q 798.50 634.60 797.83 634.61
  L 793.23 634.62
  Q 792.33 634.62 792.38 635.52
  L 792.41 636.26
  A 0.97 0.97 0.0 0 0 793.40 637.18
  Q 800.11 637.08 807.03 635.28
  Q 807.84 635.07 807.88 634.23
  L 807.89 633.89
  Q 807.91 633.45 807.48 633.48
  L 802.24 633.85
  A 0.84 0.84 0.0 0 1 801.35 632.98"
/>
<path stroke="#9093ba" vector-effect="non-scaling-stroke" d="
  M 660.75 630.10
  L 659.69 630.21
  Q 659.06 630.28 658.95 630.91
  Q 658.52 633.53 656.89 636.10
  Q 655.49 638.32 657.66 636.86
  Q 660.42 635.01 661.27 630.66
  A 0.48 0.47 2.7 0 0 660.75 630.10"
/>
<path stroke="#9093ba" vector-effect="non-scaling-stroke" d="
  M 738.0883 636.2746
  A 1.06 1.06 0.0 0 0 736.9434 635.3070
  L 725.3442 636.2810
  A 1.06 1.06 0.0 0 0 724.3766 637.4260
  L 724.3917 637.6054
  A 1.06 1.06 0.0 0 0 725.5366 638.5730
  L 737.1358 637.5990
  A 1.06 1.06 0.0 0 0 738.1034 636.4540
  L 738.0883 636.2746"
/>
<path stroke="#9093ba" vector-effect="non-scaling-stroke" d="
  M 668.75 563.98
  A 5.55 5.55 0.0 0 0 663.20 558.43
  L 661.10 558.43
  A 5.55 5.55 0.0 0 0 655.55 563.98
  L 655.55 575.78
  A 5.55 5.55 0.0 0 0 661.10 581.33
  L 663.20 581.33
  A 5.55 5.55 0.0 0 0 668.75 575.78
  L 668.75 563.98"
/>
<path stroke="#9093ba" vector-effect="non-scaling-stroke" d="
  M 760.89 565.47
  L 771.41 565.41
  A 0.34 0.34 0.0 0 0 771.75 565.07
  L 771.73 562.35
  A 4.30 4.16 89.7 0 0 767.55 558.07
  L 764.67 558.09
  A 4.30 4.16 89.7 0 0 760.53 562.41
  L 760.55 565.13
  A 0.34 0.34 0.0 0 0 760.89 565.47"
/>
<path stroke="#9093ba" vector-effect="non-scaling-stroke" d="
  M 800.01 565.44
  L 810.65 565.38
  A 0.27 0.27 0.0 0 0 810.92 565.11
  L 810.90 562.56
  A 4.50 4.09 89.7 0 0 806.79 558.08
  L 803.79 558.10
  A 4.50 4.09 89.7 0 0 799.72 562.62
  L 799.74 565.17
  A 0.27 0.27 0.0 0 0 800.01 565.44"
/>
<path stroke="#9093ba" vector-effect="non-scaling-stroke" d="
  M 730.6101 620.2461
  A 0.76 0.76 0.0 0 0 729.8662 619.4703
  L 728.9264 619.4506
  A 0.76 0.76 0.0 0 0 728.1506 620.1946
  L 728.0899 623.0939
  A 0.76 0.76 0.0 0 0 728.8338 623.8697
  L 729.7736 623.8894
  A 0.76 0.76 0.0 0 0 730.5494 623.1454
  L 730.6101 620.2461"
/>
<path stroke="#9093ba" vector-effect="non-scaling-stroke" d="
  M 734.8731 620.1293
  A 0.65 0.65 0.0 0 0 734.2119 619.4907
  L 733.1120 619.5099
  A 0.65 0.65 0.0 0 0 732.4735 620.1712
  L 732.5269 623.2307
  A 0.65 0.65 0.0 0 0 733.1881 623.8693
  L 734.2880 623.8501
  A 0.65 0.65 0.0 0 0 734.9265 623.1888
  L 734.8731 620.1293"
/>
<path stroke="#9093ba" vector-effect="non-scaling-stroke" d="
  M 730.6194 626.3679
  A 0.77 0.77 0.0 0 0 729.8671 625.5806
  L 728.9873 625.5607
  A 0.77 0.77 0.0 0 0 728.2000 626.3130
  L 728.1206 629.8121
  A 0.77 0.77 0.0 0 0 728.8729 630.5994
  L 729.7527 630.6193
  A 0.77 0.77 0.0 0 0 730.5400 629.8670
  L 730.6194 626.3679"
/>
<path stroke="#9093ba" vector-effect="non-scaling-stroke" d="
  M 734.8820 626.2334
  A 0.61 0.61 0.0 0 0 734.2893 625.6066
  L 733.1697 625.5753
  A 0.61 0.61 0.0 0 0 732.5429 626.1681
  L 732.4380 629.9266
  A 0.61 0.61 0.0 0 0 733.0307 630.5534
  L 734.1503 630.5847
  A 0.61 0.61 0.0 0 0 734.7771 629.9919
  L 734.8820 626.2334"
/>
<path stroke="#9093ba" vector-effect="non-scaling-stroke" d="
  M 527.3290 616.0850
  A 0.75 0.75 0.0 0 0 526.5763 615.3376
  L 525.1564 615.3425
  A 0.75 0.75 0.0 0 0 524.4090 616.0952
  L 524.4710 633.8750
  A 0.75 0.75 0.0 0 0 525.2237 634.6224
  L 526.6436 634.6175
  A 0.75 0.75 0.0 0 0 527.3910 633.8648
  L 527.3290 616.0850"
/>
<path stroke="#9093ba" vector-effect="non-scaling-stroke" d="
  M 529.49 616.15
  L 529.29 632.79
  A 0.28 0.28 0.0 0 0 529.57 633.08
  L 529.74 633.08
  A 2.33 2.12 0.7 0 0 532.09 630.99
  L 532.25 618.03
  A 2.33 2.12 0.7 0 0 529.95 615.88
  L 529.78 615.88
  A 0.28 0.28 0.0 0 0 529.49 616.15"
/>
<path stroke="#9093ba" vector-effect="non-scaling-stroke" d="
  M 595.4762 615.0328
  A 0.76 0.76 0.0 0 0 594.7176 614.2715
  L 593.0376 614.2685
  A 0.76 0.76 0.0 0 0 592.2762 615.0272
  L 592.2438 633.6272
  A 0.76 0.76 0.0 0 0 593.0024 634.3885
  L 594.6824 634.3915
  A 0.76 0.76 0.0 0 0 595.4438 633.6328
  L 595.4762 615.0328"
/>
<path stroke="#9093ba" vector-effect="non-scaling-stroke" d="
  M 600.04 622.62
  A 1.20 1.19 -78.8 0 1 601.20 621.84
  L 603.01 621.90
  Q 603.69 621.92 603.69 621.24
  L 603.70 616.77
  A 0.40 0.39 -3.8 0 0 603.25 616.38
  Q 600.99 616.67 598.59 616.06
  Q 598.08 615.93 598.08 616.45
  L 598.07 630.28
  Q 598.07 631.04 598.80 630.85
  Q 600.75 630.35 602.91 630.66
  Q 603.69 630.76 603.69 629.98
  L 603.70 624.96
  Q 603.70 624.21 602.96 624.24
  L 600.81 624.33
  Q 600.01 624.36 599.92 623.56
  Q 599.87 623.07 600.04 622.62"
/>
<path stroke="#9093ba" vector-effect="non-scaling-stroke" d="
  M 661.95 614.55
  A 0.93 0.93 0.0 0 0 661.07 615.80
  L 662.45 619.47
  A 0.93 0.93 0.0 0 0 663.34 620.07
  L 665.95 620.01
  A 0.93 0.93 0.0 0 0 666.81 619.37
  L 668.00 615.80
  A 0.93 0.93 0.0 0 0 667.12 614.57
  L 661.95 614.55"
/>
<path stroke="#9093ba" vector-effect="non-scaling-stroke" d="
  M 544.30 635.06
  A 0.76 0.76 0.0 0 0 545.30 635.78
  L 546.75 635.30
  A 0.76 0.76 0.0 0 0 547.27 634.58
  L 547.36 616.08
  A 0.76 0.76 0.0 0 0 546.62 615.31
  L 544.99 615.26
  A 0.76 0.76 0.0 0 0 544.20 616.02
  L 544.30 635.06"
/>
</g>
<path fill="#212775" d="
  M 1200.00 0.00
  L 1200.00 800.00
  L 0.00 800.00
  L 0.00 0.00
  L 1200.00 0.00
  Z
  M 511.17 246.52
  A 0.21 0.21 0.0 0 0 511.15 246.19
  C 478.64 223.16 459.20 188.17 455.10 148.65
  C 454.97 147.47 454.44 145.92 454.43 144.99
  Q 454.41 138.40 453.99 132.45
  Q 453.74 128.76 451.19 127.01
  Q 448.49 125.15 445.67 126.54
  C 442.35 128.18 441.80 131.42 442.15 134.68
  C 442.66 139.39 442.56 144.01 443.20 148.82
  Q 443.60 151.85 444.03 154.95
  Q 448.67 188.34 466.48 216.23
  Q 479.87 237.20 501.70 253.77
  Q 502.18 254.13 502.65 253.74
  L 511.17 246.52
  Z
  M 518.32 241.15
  L 525.54 236.17
  Q 525.88 235.94 525.66 235.60
  Q 510.16 212.14 511.47 183.04
  Q 512.10 169.23 517.88 154.49
  C 519.01 151.61 518.10 149.28 515.17 148.12
  Q 510.96 146.45 509.07 151.03
  C 496.69 181.10 500.13 213.70 517.81 241.05
  A 0.37 0.36 -33.5 0 0 518.32 241.15
  Z
  M 674.24 230.17
  A 0.31 0.31 0.0 0 0 674.36 230.60
  L 682.17 234.85
  A 0.33 0.33 0.0 0 0 682.61 234.72
  Q 691.36 219.31 693.76 201.23
  Q 694.36 196.73 689.84 196.21
  Q 689.75 196.20 689.66 196.19
  Q 685.14 195.67 684.41 200.16
  Q 681.55 217.63 674.24 230.17
  Z
  M 690.42 239.79
  A 0.30 0.30 0.0 0 0 690.43 240.26
  L 698.91 246.68
  Q 699.64 247.23 700.33 246.64
  Q 717.09 232.25 729.31 213.58
  Q 730.13 212.33 730.64 210.91
  C 732.01 207.15 727.13 202.69 723.50 204.08
  Q 721.27 204.94 720.07 206.79
  C 712.43 218.56 701.95 230.72 690.42 239.79
  Z
  M 622.31 270.36
  C 643.54 264.43 661.26 250.12 672.74 231.11
  Q 672.86 230.92 672.66 230.82
  C 626.28 206.94 571.73 209.09 527.45 236.21
  Q 527.20 236.36 527.37 236.60
  Q 539.72 253.83 557.38 263.45
  C 566.20 268.25 576.67 272.21 586.45 272.50
  Q 590.40 272.62 594.56 272.84
  C 597.66 273.01 600.68 272.48 603.79 272.56
  Q 607.05 272.65 610.23 272.13
  C 614.28 271.46 618.39 271.45 622.31 270.36
  Z
  M 688.11 239.94
  L 683.23 236.72
  Q 682.68 236.36 682.39 236.95
  C 679.67 242.53 675.33 248.02 670.95 252.47
  Q 670.87 252.55 670.94 252.63
  L 670.95 252.64
  Q 671.06 252.77 671.20 252.67
  Q 679.75 246.77 688.12 240.70
  Q 688.67 240.30 688.11 239.94
  Z
  M 529.60 256.39
  Q 529.63 256.34 529.59 256.30
  Q 522.84 250.45 518.04 242.94
  A 0.69 0.68 48.4 0 0 516.94 242.87
  Q 515.41 244.69 513.41 245.84
  Q 512.61 246.31 513.40 246.80
  L 529.16 256.64
  Q 529.33 256.74 529.45 256.59
  L 529.60 256.39
  Z
  M 653.69 295.15
  Q 655.03 298.20 654.46 301.55
  Q 653.82 305.29 653.31 308.60
  Q 652.85 311.66 649.98 313.65
  Q 649.56 313.94 649.63 314.45
  C 650.49 320.77 644.70 323.71 639.80 325.47
  Q 629.21 329.27 617.82 331.66
  Q 612.15 332.85 608.16 334.89
  C 599.17 339.48 594.67 350.77 593.56 360.51
  C 593.30 362.80 592.80 365.24 592.95 367.52
  Q 593.31 373.42 594.63 379.08
  C 599.46 399.85 620.19 406.65 638.80 408.91
  C 642.84 409.39 646.75 410.00 650.73 410.24
  Q 659.45 410.76 667.30 412.04
  Q 680.25 414.16 692.06 420.40
  Q 713.87 431.95 719.94 455.36
  Q 720.08 455.90 720.43 455.47
  Q 746.30 422.84 752.02 381.91
  C 752.38 379.36 752.34 376.81 752.75 374.26
  Q 753.17 371.70 753.25 369.05
  Q 753.69 354.65 751.95 342.77
  Q 743.71 286.53 700.07 248.85
  Q 699.60 248.44 699.11 248.83
  C 698.01 249.71 697.03 250.75 695.92 251.62
  Q 658.89 280.72 611.72 285.42
  Q 608.55 285.74 605.91 285.62
  Q 604.39 285.56 605.78 286.17
  Q 611.93 288.86 618.04 291.48
  Q 621.63 293.02 624.59 293.21
  Q 633.39 293.76 643.02 296.36
  C 644.29 296.70 645.18 296.02 646.25 295.49
  Q 649.39 293.91 652.82 294.47
  Q 653.44 294.57 653.69 295.15
  Z
  M 505.86 288.25
  C 509.38 285.35 517.25 283.80 521.70 283.17
  Q 527.85 282.30 534.67 282.96
  Q 548.57 284.32 563.16 288.51
  Q 563.98 288.74 564.83 288.77
  Q 565.50 288.79 565.98 288.32
  Q 568.33 285.97 571.17 284.48
  Q 571.82 284.14 571.10 284.03
  Q 533.65 278.12 502.74 255.68
  A 0.56 0.56 0.0 0 0 502.02 255.73
  Q 465.12 292.45 457.93 342.16
  Q 456.49 352.13 456.52 361.99
  Q 456.65 413.66 488.74 454.57
  Q 505.60 476.07 528.88 489.66
  Q 535.84 493.73 543.99 497.98
  Q 545.21 498.62 544.25 497.64
  Q 541.90 495.24 540.16 492.58
  Q 527.71 473.55 523.98 450.52
  C 523.20 445.71 522.44 441.00 522.22 436.07
  Q 522.00 431.27 521.67 426.81
  Q 521.38 422.91 521.85 414.24
  Q 522.59 400.53 524.49 388.46
  C 528.24 364.60 535.42 340.34 546.44 319.29
  Q 549.93 312.63 554.22 308.08
  C 557.07 305.06 564.05 300.66 568.32 303.07
  Q 568.50 303.18 568.61 303.00
  Q 568.64 302.96 568.65 302.91
  Q 568.69 302.70 568.52 302.58
  C 565.76 300.42 562.53 301.04 559.50 302.43
  C 549.53 306.99 539.68 309.97 528.87 305.74
  C 520.84 302.61 510.47 297.66 505.52 291.01
  A 2.02 2.02 0.0 0 1 505.86 288.25
  Z
  M 627.94 315.47
  Q 626.74 315.66 627.91 315.99
  C 631.18 316.92 634.20 316.48 637.22 314.91
  C 640.76 313.07 644.63 311.65 648.63 312.66
  A 0.11 0.11 0.0 0 0 648.76 312.50
  Q 648.28 311.49 647.13 311.00
  Q 646.39 310.68 645.57 310.72
  Q 641.79 310.91 638.56 312.33
  Q 633.37 314.60 627.94 315.47
  Z
  M 397.10 531.90
  A 0.34 0.34 0.0 0 0 396.72 531.56
  L 385.85 532.96
  A 0.34 0.34 0.0 0 0 385.55 533.30
  L 385.56 589.83
  A 0.34 0.34 0.0 0 0 385.90 590.17
  L 396.73 590.01
  A 0.34 0.34 0.0 0 0 397.07 589.67
  L 397.10 531.90
  Z
  M 496.80 571.08
  Q 497.28 570.86 497.81 571.09
  Q 498.51 571.38 498.89 572.11
  Q 503.28 580.71 507.85 589.14
  A 1.85 1.83 -14.1 0 0 509.47 590.10
  L 519.60 590.11
  Q 520.34 590.11 519.98 589.47
  L 509.62 570.62
  Q 509.11 569.69 509.61 568.77
  L 519.50 550.29
  Q 519.82 549.68 519.14 549.68
  L 508.38 549.69
  Q 507.79 549.69 507.53 550.21
  L 498.27 568.35
  A 0.96 0.95 3.1 0 1 497.74 568.82
  Q 497.36 568.96 497.00 568.88
  Q 496.53 568.78 496.53 568.30
  L 496.55 532.03
  Q 496.55 531.29 495.82 531.45
  Q 491.13 532.53 486.18 532.74
  Q 485.51 532.77 485.51 533.44
  L 485.51 589.45
  Q 485.51 590.12 486.18 590.12
  L 495.97 590.12
  Q 496.56 590.12 496.55 589.53
  L 496.52 571.51
  Q 496.52 571.21 496.80 571.08
  Z
  M 539.3509 532.0199
  A 0.51 0.51 0.0 0 0 538.8400 531.5108
  L 528.3000 531.5292
  A 0.51 0.51 0.0 0 0 527.7909 532.0401
  L 527.8091 542.4401
  A 0.51 0.51 0.0 0 0 528.3200 542.9492
  L 538.8600 542.9308
  A 0.51 0.51 0.0 0 0 539.3691 542.4199
  L 539.3509 532.0199
  Z
  M 704.34 541.32
  Q 705.18 541.28 705.97 540.91
  C 707.41 540.23 709.82 540.90 711.26 541.31
  Q 712.54 541.67 712.73 540.36
  L 713.70 533.60
  Q 713.85 532.56 712.82 532.32
  Q 706.55 530.85 700.54 531.92
  Q 694.94 532.91 692.81 537.88
  C 691.12 541.83 691.72 545.84 691.68 550.06
  Q 691.68 550.60 691.14 550.65
  Q 688.81 550.86 686.64 550.51
  Q 685.57 550.33 685.57 551.41
  L 685.58 559.30
  Q 685.58 560.13 686.42 560.13
  L 690.87 560.09
  Q 691.65 560.08 691.65 560.87
  L 691.64 589.50
  Q 691.64 590.11 692.25 590.11
  L 702.05 590.09
  A 1.14 1.14 0.0 0 0 703.19 588.95
  L 703.17 560.52
  A 0.40 0.40 0.0 0 1 703.56 560.12
  L 711.55 560.03
  Q 711.76 560.03 711.80 559.82
  Q 712.54 555.32 712.49 550.79
  Q 712.49 550.60 712.30 550.60
  L 704.01 550.67
  Q 703.10 550.68 703.12 549.76
  L 703.30 542.40
  Q 703.32 541.38 704.34 541.32
  Z
  M 735.05 560.14
  L 742.30 560.09
  Q 743.95 560.08 744.03 558.43
  L 744.40 551.40
  Q 744.44 550.61 743.65 550.61
  L 735.68 550.65
  Q 734.94 550.66 734.96 549.92
  L 735.19 542.13
  Q 735.21 541.44 735.89 541.35
  C 737.68 541.12 738.93 540.27 740.84 540.76
  Q 742.21 541.11 743.57 541.39
  Q 744.42 541.56 744.54 540.70
  L 745.62 533.37
  Q 745.73 532.57 744.95 532.40
  C 737.95 530.82 727.39 530.21 724.47 538.28
  Q 723.44 541.15 723.52 544.16
  Q 723.61 547.28 723.59 550.08
  Q 723.59 550.67 723.00 550.69
  Q 720.42 550.82 718.58 550.49
  Q 717.42 550.27 717.42 551.46
  L 717.44 559.24
  Q 717.44 560.11 718.31 560.11
  L 722.96 560.11
  Q 723.57 560.11 723.57 560.72
  L 723.56 589.49
  Q 723.55 590.11 724.18 590.11
  L 733.70 590.10
  A 1.29 1.29 0.0 0 0 734.99 588.82
  Q 735.12 575.82 734.98 564.56
  C 734.96 563.28 734.56 562.08 734.45 560.80
  Q 734.39 560.15 735.05 560.14
  Z
  M 463.77 580.59
  C 461.19 579.94 460.39 576.94 460.42 574.58
  Q 460.48 569.44 460.47 564.68
  C 460.47 562.99 461.07 560.63 462.57 559.68
  Q 465.76 557.66 475.42 559.45
  Q 475.59 559.48 475.62 559.32
  Q 476.54 555.32 476.82 550.26
  Q 476.83 550.04 476.62 549.99
  C 467.53 547.89 452.45 547.57 449.91 559.47
  Q 448.18 567.58 449.39 577.65
  C 451.07 591.71 465.23 592.12 476.54 589.74
  Q 476.75 589.70 476.74 589.48
  Q 476.61 584.61 475.58 580.34
  Q 475.55 580.23 475.43 580.25
  C 471.53 581.00 467.35 581.50 463.77 580.59
  Z
  M 561.10 562.46
  Q 562.74 562.07 564.27 561.33
  Q 567.46 559.79 571.99 560.33
  Q 572.45 560.39 572.55 560.84
  Q 572.89 562.30 572.89 563.75
  Q 572.93 576.22 572.90 588.95
  A 1.15 1.15 0.0 0 0 574.04 590.10
  L 584.01 590.12
  A 0.37 0.37 0.0 0 0 584.38 589.75
  Q 584.36 575.50 584.38 561.24
  C 584.39 553.50 581.17 547.57 572.32 549.04
  Q 565.25 550.21 559.38 552.76
  A 0.67 0.67 0.0 0 1 558.45 552.26
  Q 558.25 551.12 557.67 550.18
  Q 557.38 549.69 556.80 549.69
  L 549.99 549.68
  Q 549.42 549.68 549.42 550.24
  L 549.43 589.77
  A 0.34 0.34 0.0 0 0 549.77 590.11
  L 559.94 590.11
  Q 560.50 590.11 560.50 589.56
  L 560.50 563.22
  Q 560.50 562.60 561.10 562.46
  Z
  M 623.92 579.64
  C 622.24 577.36 622.53 575.75 622.47 573.14
  Q 622.34 567.92 622.57 563.24
  C 622.65 561.68 623.85 559.87 625.39 559.31
  C 629.60 557.80 632.41 558.75 636.41 559.41
  Q 637.83 559.65 637.98 558.21
  L 638.74 550.76
  Q 638.87 549.45 637.57 549.58
  Q 635.84 549.76 634.01 549.26
  C 630.12 548.18 625.08 548.87 621.26 549.96
  C 615.04 551.73 612.08 555.78 611.45 561.91
  Q 610.39 572.33 611.83 579.89
  C 614.17 592.11 628.57 591.64 638.68 589.68
  Q 639.23 589.58 639.08 589.03
  Q 638.09 585.42 638.10 581.16
  Q 638.10 580.45 637.40 580.50
  C 633.28 580.80 629.14 581.32 625.13 580.42
  Q 624.38 580.26 623.92 579.64
  Z
  M 680.2898 564.1133
  A 15.13 15.13 0.0 0 0 665.2127 548.9306
  L 659.2127 548.9097
  A 15.13 15.13 0.0 0 0 644.0300 563.9867
  L 643.9902 575.3867
  A 15.13 15.13 0.0 0 0 659.0673 590.5694
  L 665.0673 590.5903
  A 15.13 15.13 0.0 0 0 680.2500 575.5133
  L 680.2898 564.1133
  Z
  M 762.68 574.03
  L 781.11 574.01
  Q 782.33 574.01 782.38 572.79
  Q 782.64 566.21 782.09 561.15
  C 780.81 549.29 768.09 546.96 758.55 550.17
  Q 751.48 552.55 749.85 559.60
  Q 748.24 566.57 749.11 575.86
  C 749.83 583.69 753.54 589.00 761.47 590.22
  Q 771.12 591.71 781.68 588.45
  Q 781.86 588.39 781.83 588.20
  L 780.37 580.11
  A 0.18 0.18 0.0 0 0 780.14 579.97
  Q 774.20 581.81 765.63 581.66
  Q 761.79 581.60 760.70 577.92
  Q 760.60 577.56 760.47 577.21
  Q 759.28 574.03 762.68 574.03
  Z
  M 801.71 574.02
  L 821.22 574.02
  A 0.37 0.37 0.0 0 0 821.59 573.64
  Q 821.48 569.54 821.60 565.19
  C 821.78 559.01 819.68 552.81 813.75 550.42
  Q 805.92 547.27 797.43 550.26
  C 790.18 552.82 788.33 559.03 788.40 566.22
  Q 788.44 571.84 788.59 576.80
  C 788.85 585.92 796.01 590.47 804.71 590.66
  Q 813.56 590.85 820.97 588.35
  Q 821.20 588.27 821.15 588.04
  L 819.61 580.21
  A 0.28 0.28 0.0 0 0 819.27 580.00
  Q 812.65 581.84 805.18 581.65
  Q 801.50 581.55 800.04 578.16
  Q 799.84 577.70 799.62 577.19
  Q 798.26 574.02 801.71 574.02
  Z
  M 429.27 577.44
  C 428.61 577.49 427.82 577.60 427.23 577.93
  Q 423.27 580.12 419.17 579.59
  A 2.07 2.07 0.0 0 1 417.36 577.54
  L 417.36 550.27
  Q 417.36 549.67 416.77 549.67
  L 406.46 549.70
  Q 405.81 549.70 405.80 550.36
  Q 405.78 564.51 405.84 577.60
  C 405.86 582.23 407.04 589.49 412.45 590.37
  C 418.12 591.30 423.97 589.74 429.52 587.47
  Q 430.29 587.16 431.06 587.27
  Q 432.24 587.43 432.39 588.75
  A 1.35 1.34 90.0 0 0 433.57 589.94
  Q 436.96 590.33 440.49 589.96
  A 0.91 0.90 86.8 0 0 441.29 589.06
  L 441.30 550.24
  Q 441.30 549.69 440.74 549.69
  L 430.26 549.68
  A 0.56 0.56 0.0 0 0 429.70 550.24
  L 429.71 576.96
  A 0.48 0.47 -3.2 0 1 429.27 577.44
  Z
  M 539.35 550.22
  A 0.53 0.53 0.0 0 0 538.82 549.69
  L 528.34 549.69
  A 0.53 0.53 0.0 0 0 527.81 550.22
  L 527.81 589.56
  A 0.53 0.53 0.0 0 0 528.34 590.09
  L 538.82 590.09
  A 0.53 0.53 0.0 0 0 539.35 589.56
  L 539.35 550.22
  Z
  M 393.75 623.11
  Q 394.33 621.59 395.96 621.57
  L 414.26 621.40
  Q 414.92 621.39 414.77 620.75
  L 414.67 620.35
  Q 414.51 619.68 413.82 619.68
  L 396.72 619.61
  Q 395.91 619.60 396.14 618.82
  L 396.79 616.57
  Q 397.16 615.28 398.50 615.26
  L 412.56 615.04
  Q 413.38 615.03 413.37 614.21
  L 413.37 613.71
  Q 413.36 612.94 412.59 612.92
  L 399.89 612.55
  Q 399.24 612.53 399.14 611.89
  L 398.94 610.61
  A 0.86 0.84 0.6 0 0 398.23 609.90
  C 395.82 609.51 395.99 611.11 394.72 612.24
  Q 394.32 612.59 393.79 612.64
  Q 390.96 612.89 388.25 613.25
  Q 386.77 613.45 387.20 614.50
  A 0.79 0.78 -9.8 0 0 387.90 614.99
  L 392.58 615.19
  Q 394.27 615.26 393.81 616.88
  L 393.56 617.78
  Q 393.06 619.55 391.22 619.64
  L 386.42 619.86
  Q 385.81 619.89 385.61 620.46
  L 385.48 620.81
  A 0.45 0.45 0.0 0 0 385.91 621.42
  L 390.14 621.37
  A 0.81 0.81 0.0 0 1 390.93 622.41
  L 389.56 627.03
  A 0.85 0.85 0.0 0 0 390.37 628.13
  L 405.39 628.19
  Q 408.16 628.20 406.27 630.22
  L 404.38 632.24
  Q 402.59 634.15 400.04 633.58
  L 391.32 631.61
  Q 390.26 631.37 390.33 632.46
  L 390.36 632.95
  A 1.17 1.16 4.2 0 0 391.29 634.02
  Q 400.00 635.85 408.70 639.37
  Q 409.61 639.74 409.54 638.76
  L 409.49 637.98
  Q 409.41 636.99 408.52 636.56
  L 406.54 635.61
  A 1.07 1.06 38.9 0 1 406.34 633.81
  Q 409.70 631.19 412.34 627.49
  A 1.11 1.11 0.0 0 0 411.44 625.74
  L 394.12 625.66
  Q 392.77 625.65 393.26 624.39
  L 393.75 623.11
  Z
  M 734.69 617.77
  A 0.57 0.57 0.0 0 1 734.20 616.90
  L 736.12 613.86
  A 1.12 1.12 0.0 0 0 735.29 612.15
  L 731.99 611.82
  Q 731.25 611.75 730.96 611.07
  Q 730.35 609.68 729.06 610.08
  A 1.62 1.62 0.0 0 0 728.00 611.10
  Q 727.02 613.92 724.70 615.80
  A 0.71 0.71 0.0 0 0 724.58 616.77
  L 724.76 617.02
  A 0.61 0.61 0.0 0 0 725.67 617.10
  C 727.48 615.41 729.79 613.39 732.30 613.82
  Q 732.88 613.92 732.77 614.49
  Q 732.48 616.11 731.24 617.24
  Q 730.83 617.62 730.27 617.65
  L 726.28 617.90
  A 0.69 0.69 0.0 0 0 725.64 618.59
  L 725.64 631.74
  A 0.60 0.60 0.0 0 0 726.24 632.34
  L 734.12 632.32
  A 3.19 3.19 0.0 0 0 737.30 629.13
  L 737.31 618.40
  Q 737.31 617.73 736.65 617.74
  L 734.69 617.77
  Z
  M 811.51 613.98
  L 811.53 610.79
  Q 811.53 609.79 810.54 609.89
  L 809.24 610.03
  Q 807.85 610.17 807.88 611.58
  L 807.94 613.80
  Q 807.96 614.56 807.20 614.57
  L 793.01 614.63
  Q 792.29 614.63 792.30 615.35
  L 792.30 615.62
  Q 792.31 616.57 793.25 616.56
  L 807.23 616.55
  A 1.31 1.31 0.0 0 1 808.54 617.85
  Q 808.63 627.82 812.00 635.34
  Q 813.77 639.28 818.06 639.46
  C 820.32 639.56 821.83 637.36 821.48 635.32
  Q 821.20 633.72 820.17 634.97
  Q 819.60 635.67 819.21 636.49
  A 1.86 1.86 0.0 0 1 816.17 636.95
  Q 814.20 634.82 813.61 631.86
  Q 812.15 624.50 811.61 617.55
  A 0.93 0.93 0.0 0 1 812.53 616.55
  L 820.55 616.52
  A 0.84 0.83 -1.0 0 0 821.38 615.67
  L 821.37 615.29
  A 0.64 0.63 2.6 0 0 820.80 614.67
  L 819.05 614.48
  A 0.65 0.65 0.0 0 1 818.46 613.80
  L 818.56 611.48
  Q 818.60 610.63 817.75 610.64
  L 816.85 610.65
  A 1.02 1.02 0.0 0 0 815.84 611.67
  L 815.84 613.72
  A 0.83 0.83 0.0 0 1 815.03 614.55
  L 812.17 614.62
  Q 811.51 614.64 811.51 613.98
  Z
  M 535.03 616.29
  L 536.93 616.28
  Q 537.57 616.28 537.55 616.93
  L 536.91 635.62
  Q 536.90 636.04 536.64 636.36
  Q 535.99 637.18 534.97 637.56
  Q 534.49 637.75 534.74 638.19
  Q 535.06 638.75 535.74 638.82
  Q 537.24 638.96 538.61 638.27
  Q 539.06 638.04 539.17 637.54
  Q 539.49 636.16 539.48 634.75
  Q 539.41 624.98 539.51 615.31
  Q 539.53 614.02 538.29 614.37
  Q 536.46 614.88 534.93 614.25
  A 0.82 0.82 0.0 0 1 534.43 613.44
  L 534.58 611.17
  Q 534.63 610.38 533.84 610.40
  L 533.43 610.41
  Q 532.56 610.44 532.56 611.32
  L 532.57 613.73
  Q 532.57 614.27 532.07 614.46
  Q 530.31 615.15 529.20 613.94
  Q 528.82 613.52 528.25 613.53
  L 522.46 613.59
  A 0.46 0.46 0.0 0 0 522.00 614.05
  L 521.92 635.97
  Q 521.92 636.48 522.43 636.53
  Q 525.80 636.80 528.96 636.09
  Q 529.53 635.96 529.75 636.51
  Q 529.91 636.89 529.87 637.29
  Q 529.70 639.48 530.86 637.62
  C 534.91 631.10 534.58 624.15 534.54 616.78
  Q 534.54 616.29 535.03 616.29
  Z
  M 465.85 635.80
  A 0.54 0.54 0.0 0 1 465.31 635.26
  L 465.26 611.05
  A 0.54 0.54 0.0 0 0 464.71 610.51
  L 462.56 610.53
  A 0.54 0.54 0.0 0 0 462.03 611.07
  L 462.07 635.22
  A 0.54 0.54 0.0 0 1 461.54 635.76
  L 453.84 635.87
  A 0.54 0.54 0.0 0 0 453.31 636.46
  L 453.42 637.72
  A 0.54 0.54 0.0 0 0 453.96 638.21
  L 481.74 638.23
  A 0.54 0.54 0.0 0 0 482.28 637.70
  L 482.32 636.43
  A 0.54 0.54 0.0 0 0 481.78 635.87
  L 474.12 635.78
  A 0.54 0.54 0.0 0 1 473.59 635.24
  L 473.67 611.09
  A 0.54 0.54 0.0 0 0 473.14 610.55
  L 470.98 610.49
  A 0.54 0.54 0.0 0 0 470.43 611.03
  L 470.35 635.26
  A 0.54 0.54 0.0 0 1 469.81 635.80
  L 465.85 635.80
  Z
  M 603.73 633.01
  L 603.72 638.43
  Q 603.71 639.39 604.68 639.47
  L 605.21 639.51
  Q 606.92 639.65 606.95 637.93
  Q 607.19 625.51 606.93 614.26
  Q 606.89 612.79 606.76 611.18
  Q 606.71 610.51 606.04 610.50
  L 604.27 610.46
  Q 603.75 610.45 603.75 610.97
  L 603.70 614.04
  A 0.54 0.53 4.3 0 1 603.09 614.56
  Q 600.99 614.29 598.81 614.83
  Q 598.11 615.00 598.09 614.28
  L 598.05 613.02
  Q 598.04 612.49 597.51 612.48
  L 590.22 612.41
  Q 589.59 612.40 589.59 613.03
  L 589.59 635.44
  Q 589.59 636.36 590.51 636.36
  L 595.03 636.33
  A 2.58 2.57 -83.8 0 0 597.53 634.31
  L 597.84 632.87
  Q 598.03 632.04 598.86 632.22
  Q 600.99 632.65 602.98 632.36
  Q 603.73 632.25 603.73 633.01
  Z
  M 613.23 632.81
  A 0.41 0.41 0.0 0 1 613.65 632.40
  L 617.38 632.50
  A 0.41 0.41 0.0 0 0 617.80 632.05
  L 617.70 630.94
  A 0.41 0.41 0.0 0 0 617.28 630.57
  L 613.61 630.66
  A 0.41 0.41 0.0 0 1 613.19 630.25
  L 613.25 624.62
  A 0.41 0.41 0.0 0 1 613.66 624.22
  L 616.36 624.27
  A 0.41 0.41 0.0 0 0 616.78 623.84
  L 616.70 622.28
  A 0.41 0.41 0.0 0 0 616.29 621.89
  L 613.62 621.90
  A 0.41 0.41 0.0 0 1 613.21 621.49
  L 613.25 616.77
  A 0.41 0.41 0.0 0 1 613.66 616.37
  L 617.00 616.41
  A 0.41 0.41 0.0 0 0 617.42 616.00
  L 617.42 614.84
  A 0.41 0.41 0.0 0 0 617.00 614.43
  L 613.55 614.55
  A 0.41 0.41 0.0 0 1 613.13 614.12
  L 613.26 611.00
  A 0.41 0.41 0.0 0 0 612.86 610.57
  L 610.30 610.54
  A 0.41 0.41 0.0 0 0 609.88 610.95
  L 609.88 639.07
  A 0.41 0.41 0.0 0 0 610.29 639.48
  L 612.86 639.48
  A 0.41 0.41 0.0 0 0 613.27 639.07
  L 613.23 632.81
  Z
  M 748.13 621.79
  L 747.51 617.80
  A 1.10 1.09 85.5 0 1 748.59 616.53
  L 753.09 616.55
  A 0.60 0.60 0.0 0 0 753.69 615.90
  L 753.66 615.50
  Q 753.58 614.54 752.62 614.67
  Q 752.15 614.73 751.81 614.59
  Q 751.27 614.37 751.35 613.80
  L 751.76 611.13
  Q 751.88 610.39 751.13 610.42
  L 750.33 610.44
  A 1.16 1.16 0.0 0 0 749.33 611.10
  Q 748.59 612.66 748.60 614.04
  Q 748.61 614.64 748.01 614.65
  L 745.03 614.70
  Q 744.60 614.71 744.40 614.33
  Q 743.54 612.73 743.57 611.08
  A 0.59 0.58 -85.4 0 0 743.08 610.50
  Q 742.06 610.34 741.11 610.49
  Q 740.41 610.60 740.67 611.26
  L 741.69 613.78
  A 0.56 0.56 0.0 0 1 741.38 614.51
  Q 740.80 614.74 740.19 614.58
  A 0.69 0.68 -70.3 0 0 739.38 614.97
  Q 739.19 615.44 739.15 615.92
  Q 739.10 616.52 739.71 616.52
  L 743.16 616.51
  Q 744.64 616.51 744.64 617.99
  L 744.63 620.84
  Q 744.63 622.56 742.91 622.52
  L 740.02 622.46
  Q 739.48 622.45 739.54 622.98
  L 739.64 623.78
  Q 739.71 624.34 740.28 624.34
  L 743.97 624.31
  Q 744.64 624.31 744.64 624.97
  L 744.62 629.11
  Q 744.62 630.04 743.69 629.95
  Q 741.40 629.72 739.31 630.44
  Q 738.73 630.64 738.50 631.20
  Q 738.39 631.48 738.46 631.75
  Q 738.60 632.28 739.15 632.28
  L 744.11 632.31
  A 0.54 0.54 0.0 0 1 744.65 632.86
  L 744.61 638.95
  Q 744.60 639.54 745.20 639.52
  L 747.71 639.41
  Q 748.06 639.40 748.06 639.05
  L 748.06 632.99
  Q 748.07 632.29 748.76 632.29
  L 753.43 632.32
  Q 754.21 632.32 754.30 631.55
  Q 754.33 631.24 754.17 631.01
  Q 753.48 630.08 752.52 630.04
  Q 749.31 629.90 748.80 629.93
  Q 748.04 629.99 748.03 629.23
  L 748.03 625.03
  Q 748.03 624.34 748.72 624.34
  L 752.27 624.33
  Q 752.63 624.32 752.69 623.97
  L 752.85 622.84
  A 0.38 0.37 3.8 0 0 752.47 622.41
  L 748.98 622.50
  Q 748.24 622.51 748.13 621.79
  Z
  M 672.42 635.69
  Q 670.70 633.92 670.55 631.14
  A 1.15 1.14 0.3 0 0 669.47 630.06
  L 669.04 630.03
  Q 668.33 629.99 668.37 630.70
  Q 668.61 634.61 671.57 636.81
  Q 672.61 637.59 672.56 638.88
  A 0.31 0.31 0.0 0 0 673.07 639.13
  C 677.51 635.45 677.33 628.60 676.54 623.32
  Q 676.29 621.64 677.98 621.42
  L 679.09 621.28
  Q 680.59 621.08 680.58 622.59
  L 680.51 638.62
  A 0.84 0.84 0.0 0 0 681.37 639.46
  L 682.48 639.44
  Q 683.39 639.42 683.39 638.52
  L 683.46 622.03
  Q 683.47 621.54 683.94 621.45
  L 686.09 621.06
  A 0.36 0.36 0.0 0 0 686.35 620.56
  L 686.18 620.19
  A 1.07 1.05 -12.0 0 0 685.21 619.57
  L 677.28 619.48
  Q 676.52 619.48 676.50 618.71
  L 676.43 614.98
  Q 676.42 614.21 677.19 614.18
  C 680.03 614.07 683.01 614.05 685.70 613.17
  A 0.85 0.84 82.5 0 0 686.28 612.41
  Q 686.29 612.26 686.24 612.11
  Q 686.12 611.70 685.69 611.71
  L 674.10 611.90
  A 0.34 0.34 0.0 0 0 673.77 612.24
  L 673.82 620.23
  Q 673.82 621.29 672.81 620.96
  L 670.02 620.04
  Q 669.27 619.79 669.37 619.01
  Q 669.79 615.92 671.47 613.33
  A 0.46 0.46 0.0 0 0 671.06 612.62
  C 669.86 612.66 667.54 612.91 666.65 612.07
  Q 665.92 611.39 665.07 610.79
  A 1.47 1.46 -61.2 0 0 662.88 611.43
  C 662.18 613.10 659.67 612.70 658.24 612.66
  A 0.64 0.64 0.0 0 0 657.70 613.67
  Q 659.35 616.02 659.66 619.13
  Q 659.72 619.68 659.19 619.85
  Q 658.32 620.13 657.41 620.57
  Q 656.51 621.00 656.71 621.76
  Q 656.84 622.27 657.38 622.28
  L 661.93 622.30
  Q 663.35 622.30 663.57 623.70
  L 663.70 624.54
  Q 663.88 625.69 662.72 625.74
  L 658.36 625.91
  Q 657.63 625.94 657.50 626.66
  Q 657.47 626.81 657.48 626.97
  Q 657.56 628.04 658.64 628.07
  L 662.94 628.18
  A 0.62 0.62 0.0 0 1 663.54 628.77
  Q 663.71 631.66 663.31 634.99
  Q 663.03 637.22 661.14 637.59
  Q 660.87 637.65 660.68 637.83
  Q 660.26 638.21 660.51 638.72
  Q 660.69 639.08 661.09 639.15
  C 668.25 640.39 666.05 632.74 666.31 628.92
  A 0.90 0.89 2.0 0 1 667.21 628.09
  L 670.87 628.11
  Q 671.62 628.12 671.66 627.36
  L 671.71 626.53
  A 0.68 0.68 0.0 0 0 671.03 625.81
  L 667.01 625.79
  Q 666.36 625.79 666.35 625.14
  L 666.32 623.35
  A 0.87 0.87 0.0 0 1 667.15 622.46
  L 673.03 622.20
  A 0.69 0.68 -1.6 0 1 673.75 622.87
  Q 673.89 629.39 673.50 635.30
  A 0.63 0.63 0.0 0 1 672.42 635.69
  Z
  M 549.07 613.46
  L 541.99 613.58
  Q 541.84 613.59 541.84 613.74
  L 541.85 636.57
  Q 541.85 637.54 542.82 637.52
  L 547.34 637.39
  A 2.14 2.14 0.0 0 0 549.42 635.26
  L 549.44 613.82
  Q 549.44 613.45 549.07 613.46
  Z
  M 456.87 629.48
  L 459.11 629.09
  A 0.29 0.29 0.0 0 0 459.35 628.75
  L 457.22 616.68
  A 1.49 1.35 80.0 0 0 455.63 615.44
  L 455.47 615.47
  A 1.49 1.35 80.0 0 0 454.40 617.17
  L 456.53 629.25
  A 0.29 0.29 0.0 0 0 456.87 629.48
  Z
  M 476.95 629.02
  L 479.17 629.41
  A 0.28 0.28 0.0 0 0 479.50 629.18
  L 481.64 617.02
  A 1.29 0.96 -80.0 0 0 480.92 615.58
  L 480.04 615.43
  A 1.29 0.96 -80.0 0 0 478.87 616.53
  L 476.72 628.69
  A 0.28 0.28 0.0 0 0 476.95 629.02
  Z
  M 801.35 632.98
  Q 801.53 628.63 801.40 625.14
  Q 801.33 623.02 805.90 623.63
  Q 806.70 623.73 806.68 622.93
  L 806.68 622.52
  Q 806.66 621.61 805.75 621.61
  L 794.28 621.64
  A 0.96 0.93 25.7 0 0 793.71 621.83
  Q 793.03 622.34 793.07 622.98
  A 0.67 0.66 -2.3 0 0 793.74 623.59
  L 797.14 623.57
  Q 798.54 623.56 798.53 624.96
  L 798.51 633.93
  Q 798.50 634.60 797.83 634.61
  L 793.23 634.62
  Q 792.33 634.62 792.38 635.52
  L 792.41 636.26
  A 0.97 0.97 0.0 0 0 793.40 637.18
  Q 800.11 637.08 807.03 635.28
  Q 807.84 635.07 807.88 634.23
  L 807.89 633.89
  Q 807.91 633.45 807.48 633.48
  L 802.24 633.85
  A 0.84 0.84 0.0 0 1 801.35 632.98
  Z
  M 660.75 630.10
  L 659.69 630.21
  Q 659.06 630.28 658.95 630.91
  Q 658.52 633.53 656.89 636.10
  Q 655.49 638.32 657.66 636.86
  Q 660.42 635.01 661.27 630.66
  A 0.48 0.47 2.7 0 0 660.75 630.10
  Z
  M 738.0883 636.2746
  A 1.06 1.06 0.0 0 0 736.9434 635.3070
  L 725.3442 636.2810
  A 1.06 1.06 0.0 0 0 724.3766 637.4260
  L 724.3917 637.6054
  A 1.06 1.06 0.0 0 0 725.5366 638.5730
  L 737.1358 637.5990
  A 1.06 1.06 0.0 0 0 738.1034 636.4540
  L 738.0883 636.2746
  Z"
/>
<path fill="#ffffff" d="
  M 511.17 246.52
  L 502.65 253.74
  Q 502.18 254.13 501.70 253.77
  Q 479.87 237.20 466.48 216.23
  Q 448.67 188.34 444.03 154.95
  Q 443.60 151.85 443.20 148.82
  C 442.56 144.01 442.66 139.39 442.15 134.68
  C 441.80 131.42 442.35 128.18 445.67 126.54
  Q 448.49 125.15 451.19 127.01
  Q 453.74 128.76 453.99 132.45
  Q 454.41 138.40 454.43 144.99
  C 454.44 145.92 454.97 147.47 455.10 148.65
  C 459.20 188.17 478.64 223.16 511.15 246.19
  A 0.21 0.21 0.0 0 1 511.17 246.52
  Z"
/>
<path fill="#ffffff" d="
  M 517.81 241.05
  C 500.13 213.70 496.69 181.10 509.07 151.03
  Q 510.96 146.45 515.17 148.12
  C 518.10 149.28 519.01 151.61 517.88 154.49
  Q 512.10 169.23 511.47 183.04
  Q 510.16 212.14 525.66 235.60
  Q 525.88 235.94 525.54 236.17
  L 518.32 241.15
  A 0.37 0.36 -33.5 0 1 517.81 241.05
  Z"
/>
<path fill="#ffffff" d="
  M 674.24 230.17
  Q 681.55 217.63 684.41 200.16
  Q 685.14 195.67 689.66 196.19
  Q 689.75 196.20 689.84 196.21
  Q 694.36 196.73 693.76 201.23
  Q 691.36 219.31 682.61 234.72
  A 0.33 0.33 0.0 0 1 682.17 234.85
  L 674.36 230.60
  A 0.31 0.31 0.0 0 1 674.24 230.17
  Z"
/>
<path fill="#ffffff" d="
  M 690.42 239.79
  C 701.95 230.72 712.43 218.56 720.07 206.79
  Q 721.27 204.94 723.50 204.08
  C 727.13 202.69 732.01 207.15 730.64 210.91
  Q 730.13 212.33 729.31 213.58
  Q 717.09 232.25 700.33 246.64
  Q 699.64 247.23 698.91 246.68
  L 690.43 240.26
  A 0.30 0.30 0.0 0 1 690.42 239.79
  Z"
/>
<path fill="#ffffff" d="
  M 672.74 231.11
  C 661.26 250.12 643.54 264.43 622.31 270.36
  C 618.39 271.45 614.28 271.46 610.23 272.13
  Q 607.05 272.65 603.79 272.56
  C 600.68 272.48 597.66 273.01 594.56 272.84
  Q 590.40 272.62 586.45 272.50
  C 576.67 272.21 566.20 268.25 557.38 263.45
  Q 539.72 253.83 527.37 236.60
  Q 527.20 236.36 527.45 236.21
  C 571.73 209.09 626.28 206.94 672.66 230.82
  Q 672.86 230.92 672.74 231.11
  Z"
/>
<path fill="#ffffff" d="
  M 688.12 240.70
  Q 679.75 246.77 671.20 252.67
  Q 671.06 252.77 670.95 252.64
  L 670.94 252.63
  Q 670.87 252.55 670.95 252.47
  C 675.33 248.02 679.67 242.53 682.39 236.95
  Q 682.68 236.36 683.23 236.72
  L 688.11 239.94
  Q 688.67 240.30 688.12 240.70
  Z"
/>
<path fill="#ffffff" d="
  M 529.16 256.64
  L 513.40 246.80
  Q 512.61 246.31 513.41 245.84
  Q 515.41 244.69 516.94 242.87
  A 0.69 0.68 48.4 0 1 518.04 242.94
  Q 522.84 250.45 529.59 256.30
  Q 529.63 256.34 529.60 256.39
  L 529.45 256.59
  Q 529.33 256.74 529.16 256.64
  Z"
/>
<path fill="#ffffff" d="
  M 652.82 294.47
  Q 649.39 293.91 646.25 295.49
  C 645.18 296.02 644.29 296.70 643.02 296.36
  Q 633.39 293.76 624.59 293.21
  Q 621.63 293.02 618.04 291.48
  Q 611.93 288.86 605.78 286.17
  Q 604.39 285.56 605.91 285.62
  Q 608.55 285.74 611.72 285.42
  Q 658.89 280.72 695.92 251.62
  C 697.03 250.75 698.01 249.71 699.11 248.83
  Q 699.60 248.44 700.07 248.85
  Q 743.71 286.53 751.95 342.77
  Q 753.69 354.65 753.25 369.05
  Q 753.17 371.70 752.75 374.26
  C 752.34 376.81 752.38 379.36 752.02 381.91
  Q 746.30 422.84 720.43 455.47
  Q 720.08 455.90 719.94 455.36
  Q 713.87 431.95 692.06 420.40
  Q 680.25 414.16 667.30 412.04
  Q 659.45 410.76 650.73 410.24
  C 646.75 410.00 642.84 409.39 638.80 408.91
  C 620.19 406.65 599.46 399.85 594.63 379.08
  Q 593.31 373.42 592.95 367.52
  C 592.80 365.24 593.30 362.80 593.56 360.51
  C 594.67 350.77 599.17 339.48 608.16 334.89
  Q 612.15 332.85 617.82 331.66
  Q 629.21 329.27 639.80 325.47
  C 644.70 323.71 650.49 320.77 649.63 314.45
  Q 649.56 313.94 649.98 313.65
  Q 652.85 311.66 653.31 308.60
  Q 653.82 305.29 654.46 301.55
  Q 655.03 298.20 653.69 295.15
  Q 653.44 294.57 652.82 294.47
  Z"
/>
<path fill="#ffffff" d="
  M 505.86 288.25
  A 2.02 2.02 0.0 0 0 505.52 291.01
  C 510.47 297.66 520.84 302.61 528.87 305.74
  C 539.68 309.97 549.53 306.99 559.50 302.43
  C 562.53 301.04 565.76 300.42 568.52 302.58
  Q 568.69 302.70 568.65 302.91
  Q 568.64 302.96 568.61 303.00
  Q 568.50 303.18 568.32 303.07
  C 564.05 300.66 557.07 305.06 554.22 308.08
  Q 549.93 312.63 546.44 319.29
  C 535.42 340.34 528.24 364.60 524.49 388.46
  Q 522.59 400.53 521.85 414.24
  Q 521.38 422.91 521.67 426.81
  Q 522.00 431.27 522.22 436.07
  C 522.44 441.00 523.20 445.71 523.98 450.52
  Q 527.71 473.55 540.16 492.58
  Q 541.90 495.24 544.25 497.64
  Q 545.21 498.62 543.99 497.98
  Q 535.84 493.73 528.88 489.66
  Q 505.60 476.07 488.74 454.57
  Q 456.65 413.66 456.52 361.99
  Q 456.49 352.13 457.93 342.16
  Q 465.12 292.45 502.02 255.73
  A 0.56 0.56 0.0 0 1 502.74 255.68
  Q 533.65 278.12 571.10 284.03
  Q 571.82 284.14 571.17 284.48
  Q 568.33 285.97 565.98 288.32
  Q 565.50 288.79 564.83 288.77
  Q 563.98 288.74 563.16 288.51
  Q 548.57 284.32 534.67 282.96
  Q 527.85 282.30 521.70 283.17
  C 517.25 283.80 509.38 285.35 505.86 288.25
  Z"
/>
<path fill="#ffffff" d="
  M 627.94 315.47
  Q 633.37 314.60 638.56 312.33
  Q 641.79 310.91 645.57 310.72
  Q 646.39 310.68 647.13 311.00
  Q 648.28 311.49 648.76 312.50
  A 0.11 0.11 0.0 0 1 648.63 312.66
  C 644.63 311.65 640.76 313.07 637.22 314.91
  C 634.20 316.48 631.18 316.92 627.91 315.99
  Q 626.74 315.66 627.94 315.47
  Z"
/>
<path fill="#ffffff" d="
  M 397.10 531.90
  L 397.07 589.67
  A 0.34 0.34 0.0 0 1 396.73 590.01
  L 385.90 590.17
  A 0.34 0.34 0.0 0 1 385.56 589.83
  L 385.55 533.30
  A 0.34 0.34 0.0 0 1 385.85 532.96
  L 396.72 531.56
  A 0.34 0.34 0.0 0 1 397.10 531.90
  Z"
/>
<path fill="#ffffff" d="
  M 496.52 571.51
  L 496.55 589.53
  Q 496.56 590.12 495.97 590.12
  L 486.18 590.12
  Q 485.51 590.12 485.51 589.45
  L 485.51 533.44
  Q 485.51 532.77 486.18 532.74
  Q 491.13 532.53 495.82 531.45
  Q 496.55 531.29 496.55 532.03
  L 496.53 568.30
  Q 496.53 568.78 497.00 568.88
  Q 497.36 568.96 497.74 568.82
  A 0.96 0.95 3.1 0 0 498.27 568.35
  L 507.53 550.21
  Q 507.79 549.69 508.38 549.69
  L 519.14 549.68
  Q 519.82 549.68 519.50 550.29
  L 509.61 568.77
  Q 509.11 569.69 509.62 570.62
  L 519.98 589.47
  Q 520.34 590.11 519.60 590.11
  L 509.47 590.10
  A 1.85 1.83 -14.1 0 1 507.85 589.14
  Q 503.28 580.71 498.89 572.11
  Q 498.51 571.38 497.81 571.09
  Q 497.28 570.86 496.80 571.08
  Q 496.52 571.21 496.52 571.51
  Z"
/>
<rect fill="#ffffff" x="-5.78" y="-5.71" transform="translate(533.58,537.23) rotate(-0.1)" width="11.56" height="11.42" rx="0.51"/>
<path fill="#ffffff" d="
  M 704.34 541.32
  Q 703.32 541.38 703.30 542.40
  L 703.12 549.76
  Q 703.10 550.68 704.01 550.67
  L 712.30 550.60
  Q 712.49 550.60 712.49 550.79
  Q 712.54 555.32 711.80 559.82
  Q 711.76 560.03 711.55 560.03
  L 703.56 560.12
  A 0.40 0.40 0.0 0 0 703.17 560.52
  L 703.19 588.95
  A 1.14 1.14 0.0 0 1 702.05 590.09
  L 692.25 590.11
  Q 691.64 590.11 691.64 589.50
  L 691.65 560.87
  Q 691.65 560.08 690.87 560.09
  L 686.42 560.13
  Q 685.58 560.13 685.58 559.30
  L 685.57 551.41
  Q 685.57 550.33 686.64 550.51
  Q 688.81 550.86 691.14 550.65
  Q 691.68 550.60 691.68 550.06
  C 691.72 545.84 691.12 541.83 692.81 537.88
  Q 694.94 532.91 700.54 531.92
  Q 706.55 530.85 712.82 532.32
  Q 713.85 532.56 713.70 533.60
  L 712.73 540.36
  Q 712.54 541.67 711.26 541.31
  C 709.82 540.90 707.41 540.23 705.97 540.91
  Q 705.18 541.28 704.34 541.32
  Z"
/>
<path fill="#ffffff" d="
  M 734.45 560.80
  C 734.56 562.08 734.96 563.28 734.98 564.56
  Q 735.12 575.82 734.99 588.82
  A 1.29 1.29 0.0 0 1 733.70 590.10
  L 724.18 590.11
  Q 723.55 590.11 723.56 589.49
  L 723.57 560.72
  Q 723.57 560.11 722.96 560.11
  L 718.31 560.11
  Q 717.44 560.11 717.44 559.24
  L 717.42 551.46
  Q 717.42 550.27 718.58 550.49
  Q 720.42 550.82 723.00 550.69
  Q 723.59 550.67 723.59 550.08
  Q 723.61 547.28 723.52 544.16
  Q 723.44 541.15 724.47 538.28
  C 727.39 530.21 737.95 530.82 744.95 532.40
  Q 745.73 532.57 745.62 533.37
  L 744.54 540.70
  Q 744.42 541.56 743.57 541.39
  Q 742.21 541.11 740.84 540.76
  C 738.93 540.27 737.68 541.12 735.89 541.35
  Q 735.21 541.44 735.19 542.13
  L 734.96 549.92
  Q 734.94 550.66 735.68 550.65
  L 743.65 550.61
  Q 744.44 550.61 744.40 551.40
  L 744.03 558.43
  Q 743.95 560.08 742.30 560.09
  L 735.05 560.14
  Q 734.39 560.15 734.45 560.80
  Z"
/>
<path fill="#ffffff" d="
  M 463.77 580.59
  C 467.35 581.50 471.53 581.00 475.43 580.25
  Q 475.55 580.23 475.58 580.34
  Q 476.61 584.61 476.74 589.48
  Q 476.75 589.70 476.54 589.74
  C 465.23 592.12 451.07 591.71 449.39 577.65
  Q 448.18 567.58 449.91 559.47
  C 452.45 547.57 467.53 547.89 476.62 549.99
  Q 476.83 550.04 476.82 550.26
  Q 476.54 555.32 475.62 559.32
  Q 475.59 559.48 475.42 559.45
  Q 465.76 557.66 462.57 559.68
  C 461.07 560.63 460.47 562.99 460.47 564.68
  Q 460.48 569.44 460.42 574.58
  C 460.39 576.94 461.19 579.94 463.77 580.59
  Z"
/>
<path fill="#ffffff" d="
  M 560.50 563.22
  L 560.50 589.56
  Q 560.50 590.11 559.94 590.11
  L 549.77 590.11
  A 0.34 0.34 0.0 0 1 549.43 589.77
  L 549.42 550.24
  Q 549.42 549.68 549.99 549.68
  L 556.80 549.69
  Q 557.38 549.69 557.67 550.18
  Q 558.25 551.12 558.45 552.26
  A 0.67 0.67 0.0 0 0 559.38 552.76
  Q 565.25 550.21 572.32 549.04
  C 581.17 547.57 584.39 553.50 584.38 561.24
  Q 584.36 575.50 584.38 589.75
  A 0.37 0.37 0.0 0 1 584.01 590.12
  L 574.04 590.10
  A 1.15 1.15 0.0 0 1 572.90 588.95
  Q 572.93 576.22 572.89 563.75
  Q 572.89 562.30 572.55 560.84
  Q 572.45 560.39 571.99 560.33
  Q 567.46 559.79 564.27 561.33
  Q 562.74 562.07 561.10 562.46
  Q 560.50 562.60 560.50 563.22
  Z"
/>
<path fill="#ffffff" d="
  M 623.92 579.64
  Q 624.38 580.26 625.13 580.42
  C 629.14 581.32 633.28 580.80 637.40 580.50
  Q 638.10 580.45 638.10 581.16
  Q 638.09 585.42 639.08 589.03
  Q 639.23 589.58 638.68 589.68
  C 628.57 591.64 614.17 592.11 611.83 579.89
  Q 610.39 572.33 611.45 561.91
  C 612.08 555.78 615.04 551.73 621.26 549.96
  C 625.08 548.87 630.12 548.18 634.01 549.26
  Q 635.84 549.76 637.57 549.58
  Q 638.87 549.45 638.74 550.76
  L 637.98 558.21
  Q 637.83 559.65 636.41 559.41
  C 632.41 558.75 629.60 557.80 625.39 559.31
  C 623.85 559.87 622.65 561.68 622.57 563.24
  Q 622.34 567.92 622.47 573.14
  C 622.53 575.75 622.24 577.36 623.92 579.64
  Z"
/>
<path fill="#ffffff" d="
  M 680.2500 575.5133
  A 15.13 15.13 0.0 0 1 665.0673 590.5903
  L 659.0673 590.5694
  A 15.13 15.13 0.0 0 1 643.9902 575.3867
  L 644.0300 563.9867
  A 15.13 15.13 0.0 0 1 659.2127 548.9097
  L 665.2127 548.9306
  A 15.13 15.13 0.0 0 1 680.2898 564.1133
  L 680.2500 575.5133
  Z
  M 668.75 563.98
  A 5.55 5.55 0.0 0 0 663.20 558.43
  L 661.10 558.43
  A 5.55 5.55 0.0 0 0 655.55 563.98
  L 655.55 575.78
  A 5.55 5.55 0.0 0 0 661.10 581.33
  L 663.20 581.33
  A 5.55 5.55 0.0 0 0 668.75 575.78
  L 668.75 563.98
  Z"
/>
<path fill="#ffffff" d="
  M 762.68 574.03
  Q 759.28 574.03 760.47 577.21
  Q 760.60 577.56 760.70 577.92
  Q 761.79 581.60 765.63 581.66
  Q 774.20 581.81 780.14 579.97
  A 0.18 0.18 0.0 0 1 780.37 580.11
  L 781.83 588.20
  Q 781.86 588.39 781.68 588.45
  Q 771.12 591.71 761.47 590.22
  C 753.54 589.00 749.83 583.69 749.11 575.86
  Q 748.24 566.57 749.85 559.60
  Q 751.48 552.55 758.55 550.17
  C 768.09 546.96 780.81 549.29 782.09 561.15
  Q 782.64 566.21 782.38 572.79
  Q 782.33 574.01 781.11 574.01
  L 762.68 574.03
  Z
  M 760.89 565.47
  L 771.41 565.41
  A 0.34 0.34 0.0 0 0 771.75 565.07
  L 771.73 562.35
  A 4.30 4.16 89.7 0 0 767.55 558.07
  L 764.67 558.09
  A 4.30 4.16 89.7 0 0 760.53 562.41
  L 760.55 565.13
  A 0.34 0.34 0.0 0 0 760.89 565.47
  Z"
/>
<path fill="#ffffff" d="
  M 801.71 574.02
  Q 798.26 574.02 799.62 577.19
  Q 799.84 577.70 800.04 578.16
  Q 801.50 581.55 805.18 581.65
  Q 812.65 581.84 819.27 580.00
  A 0.28 0.28 0.0 0 1 819.61 580.21
  L 821.15 588.04
  Q 821.20 588.27 820.97 588.35
  Q 813.56 590.85 804.71 590.66
  C 796.01 590.47 788.85 585.92 788.59 576.80
  Q 788.44 571.84 788.40 566.22
  C 788.33 559.03 790.18 552.82 797.43 550.26
  Q 805.92 547.27 813.75 550.42
  C 819.68 552.81 821.78 559.01 821.60 565.19
  Q 821.48 569.54 821.59 573.64
  A 0.37 0.37 0.0 0 1 821.22 574.02
  L 801.71 574.02
  Z
  M 800.01 565.44
  L 810.65 565.38
  A 0.27 0.27 0.0 0 0 810.92 565.11
  L 810.90 562.56
  A 4.50 4.09 89.7 0 0 806.79 558.08
  L 803.79 558.10
  A 4.50 4.09 89.7 0 0 799.72 562.62
  L 799.74 565.17
  A 0.27 0.27 0.0 0 0 800.01 565.44
  Z"
/>
<path fill="#ffffff" d="
  M 429.27 577.44
  A 0.48 0.47 -3.2 0 0 429.71 576.96
  L 429.70 550.24
  A 0.56 0.56 0.0 0 1 430.26 549.68
  L 440.74 549.69
  Q 441.30 549.69 441.30 550.24
  L 441.29 589.06
  A 0.91 0.90 86.8 0 1 440.49 589.96
  Q 436.96 590.33 433.57 589.94
  A 1.35 1.34 90.0 0 1 432.39 588.75
  Q 432.24 587.43 431.06 587.27
  Q 430.29 587.16 429.52 587.47
  C 423.97 589.74 418.12 591.30 412.45 590.37
  C 407.04 589.49 405.86 582.23 405.84 577.60
  Q 405.78 564.51 405.80 550.36
  Q 405.81 549.70 406.46 549.70
  L 416.77 549.67
  Q 417.36 549.67 417.36 550.27
  L 417.36 577.54
  A 2.07 2.07 0.0 0 0 419.17 579.59
  Q 423.27 580.12 427.23 577.93
  C 427.82 577.60 428.61 577.49 429.27 577.44
  Z"
/>
<rect fill="#ffffff" x="527.81" y="549.69" width="11.54" height="40.40" rx="0.53"/>
<path fill="#212775" d="
  M 760.89 565.47
  A 0.34 0.34 0.0 0 1 760.55 565.13
  L 760.53 562.41
  A 4.30 4.16 89.7 0 1 764.67 558.09
  L 767.55 558.07
  A 4.30 4.16 89.7 0 1 771.73 562.35
  L 771.75 565.07
  A 0.34 0.34 0.0 0 1 771.41 565.41
  L 760.89 565.47
  Z"
/>
<path fill="#212775" d="
  M 800.01 565.44
  A 0.27 0.27 0.0 0 1 799.74 565.17
  L 799.72 562.62
  A 4.50 4.09 89.7 0 1 803.79 558.10
  L 806.79 558.08
  A 4.50 4.09 89.7 0 1 810.90 562.56
  L 810.92 565.11
  A 0.27 0.27 0.0 0 1 810.65 565.38
  L 800.01 565.44
  Z"
/>
<rect fill="#212775" x="655.55" y="558.43" width="13.20" height="22.90" rx="5.55"/>
<path fill="#ffffff" d="
  M 393.75 623.11
  L 393.26 624.39
  Q 392.77 625.65 394.12 625.66
  L 411.44 625.74
  A 1.11 1.11 0.0 0 1 412.34 627.49
  Q 409.70 631.19 406.34 633.81
  A 1.07 1.06 38.9 0 0 406.54 635.61
  L 408.52 636.56
  Q 409.41 636.99 409.49 637.98
  L 409.54 638.76
  Q 409.61 639.74 408.70 639.37
  Q 400.00 635.85 391.29 634.02
  A 1.17 1.16 4.2 0 1 390.36 632.95
  L 390.33 632.46
  Q 390.26 631.37 391.32 631.61
  L 400.04 633.58
  Q 402.59 634.15 404.38 632.24
  L 406.27 630.22
  Q 408.16 628.20 405.39 628.19
  L 390.37 628.13
  A 0.85 0.85 0.0 0 1 389.56 627.03
  L 390.93 622.41
  A 0.81 0.81 0.0 0 0 390.14 621.37
  L 385.91 621.42
  A 0.45 0.45 0.0 0 1 385.48 620.81
  L 385.61 620.46
  Q 385.81 619.89 386.42 619.86
  L 391.22 619.64
  Q 393.06 619.55 393.56 617.78
  L 393.81 616.88
  Q 394.27 615.26 392.58 615.19
  L 387.90 614.99
  A 0.79 0.78 -9.8 0 1 387.20 614.50
  Q 386.77 613.45 388.25 613.25
  Q 390.96 612.89 393.79 612.64
  Q 394.32 612.59 394.72 612.24
  C 395.99 611.11 395.82 609.51 398.23 609.90
  A 0.86 0.84 0.6 0 1 398.94 610.61
  L 399.14 611.89
  Q 399.24 612.53 399.89 612.55
  L 412.59 612.92
  Q 413.36 612.94 413.37 613.71
  L 413.37 614.21
  Q 413.38 615.03 412.56 615.04
  L 398.50 615.26
  Q 397.16 615.28 396.79 616.57
  L 396.14 618.82
  Q 395.91 619.60 396.72 619.61
  L 413.82 619.68
  Q 414.51 619.68 414.67 620.35
  L 414.77 620.75
  Q 414.92 621.39 414.26 621.40
  L 395.96 621.57
  Q 394.33 621.59 393.75 623.11
  Z"
/>
<path fill="#ffffff" d="
  M 734.69 617.77
  L 736.65 617.74
  Q 737.31 617.73 737.31 618.40
  L 737.30 629.13
  A 3.19 3.19 0.0 0 1 734.12 632.32
  L 726.24 632.34
  A 0.60 0.60 0.0 0 1 725.64 631.74
  L 725.64 618.59
  A 0.69 0.69 0.0 0 1 726.28 617.90
  L 730.27 617.65
  Q 730.83 617.62 731.24 617.24
  Q 732.48 616.11 732.77 614.49
  Q 732.88 613.92 732.30 613.82
  C 729.79 613.39 727.48 615.41 725.67 617.10
  A 0.61 0.61 0.0 0 1 724.76 617.02
  L 724.58 616.77
  A 0.71 0.71 0.0 0 1 724.70 615.80
  Q 727.02 613.92 728.00 611.10
  A 1.62 1.62 0.0 0 1 729.06 610.08
  Q 730.35 609.68 730.96 611.07
  Q 731.25 611.75 731.99 611.82
  L 735.29 612.15
  A 1.12 1.12 0.0 0 1 736.12 613.86
  L 734.20 616.90
  A 0.57 0.57 0.0 0 0 734.69 617.77
  Z
  M 730.6101 620.2461
  A 0.76 0.76 0.0 0 0 729.8662 619.4703
  L 728.9264 619.4506
  A 0.76 0.76 0.0 0 0 728.1506 620.1946
  L 728.0899 623.0939
  A 0.76 0.76 0.0 0 0 728.8338 623.8697
  L 729.7736 623.8894
  A 0.76 0.76 0.0 0 0 730.5494 623.1454
  L 730.6101 620.2461
  Z
  M 734.8731 620.1293
  A 0.65 0.65 0.0 0 0 734.2119 619.4907
  L 733.1120 619.5099
  A 0.65 0.65 0.0 0 0 732.4735 620.1712
  L 732.5269 623.2307
  A 0.65 0.65 0.0 0 0 733.1881 623.8693
  L 734.2880 623.8501
  A 0.65 0.65 0.0 0 0 734.9265 623.1888
  L 734.8731 620.1293
  Z
  M 730.6194 626.3679
  A 0.77 0.77 0.0 0 0 729.8671 625.5806
  L 728.9873 625.5607
  A 0.77 0.77 0.0 0 0 728.2000 626.3130
  L 728.1206 629.8121
  A 0.77 0.77 0.0 0 0 728.8729 630.5994
  L 729.7527 630.6193
  A 0.77 0.77 0.0 0 0 730.5400 629.8670
  L 730.6194 626.3679
  Z
  M 734.8820 626.2334
  A 0.61 0.61 0.0 0 0 734.2893 625.6066
  L 733.1697 625.5753
  A 0.61 0.61 0.0 0 0 732.5429 626.1681
  L 732.4380 629.9266
  A 0.61 0.61 0.0 0 0 733.0307 630.5534
  L 734.1503 630.5847
  A 0.61 0.61 0.0 0 0 734.7771 629.9919
  L 734.8820 626.2334
  Z"
/>
<path fill="#ffffff" d="
  M 811.51 613.98
  Q 811.51 614.64 812.17 614.62
  L 815.03 614.55
  A 0.83 0.83 0.0 0 0 815.84 613.72
  L 815.84 611.67
  A 1.02 1.02 0.0 0 1 816.85 610.65
  L 817.75 610.64
  Q 818.60 610.63 818.56 611.48
  L 818.46 613.80
  A 0.65 0.65 0.0 0 0 819.05 614.48
  L 820.80 614.67
  A 0.64 0.63 2.6 0 1 821.37 615.29
  L 821.38 615.67
  A 0.84 0.83 -1.0 0 1 820.55 616.52
  L 812.53 616.55
  A 0.93 0.93 0.0 0 0 811.61 617.55
  Q 812.15 624.50 813.61 631.86
  Q 814.20 634.82 816.17 636.95
  A 1.86 1.86 0.0 0 0 819.21 636.49
  Q 819.60 635.67 820.17 634.97
  Q 821.20 633.72 821.48 635.32
  C 821.83 637.36 820.32 639.56 818.06 639.46
  Q 813.77 639.28 812.00 635.34
  Q 808.63 627.82 808.54 617.85
  A 1.31 1.31 0.0 0 0 807.23 616.55
  L 793.25 616.56
  Q 792.31 616.57 792.30 615.62
  L 792.30 615.35
  Q 792.29 614.63 793.01 614.63
  L 807.20 614.57
  Q 807.96 614.56 807.94 613.80
  L 807.88 611.58
  Q 807.85 610.17 809.24 610.03
  L 810.54 609.89
  Q 811.53 609.79 811.53 610.79
  L 811.51 613.98
  Z"
/>
<path fill="#ffffff" d="
  M 534.54 616.78
  C 534.58 624.15 534.91 631.10 530.86 637.62
  Q 529.70 639.48 529.87 637.29
  Q 529.91 636.89 529.75 636.51
  Q 529.53 635.96 528.96 636.09
  Q 525.80 636.80 522.43 636.53
  Q 521.92 636.48 521.92 635.97
  L 522.00 614.05
  A 0.46 0.46 0.0 0 1 522.46 613.59
  L 528.25 613.53
  Q 528.82 613.52 529.20 613.94
  Q 530.31 615.15 532.07 614.46
  Q 532.57 614.27 532.57 613.73
  L 532.56 611.32
  Q 532.56 610.44 533.43 610.41
  L 533.84 610.40
  Q 534.63 610.38 534.58 611.17
  L 534.43 613.44
  A 0.82 0.82 0.0 0 0 534.93 614.25
  Q 536.46 614.88 538.29 614.37
  Q 539.53 614.02 539.51 615.31
  Q 539.41 624.98 539.48 634.75
  Q 539.49 636.16 539.17 637.54
  Q 539.06 638.04 538.61 638.27
  Q 537.24 638.96 535.74 638.82
  Q 535.06 638.75 534.74 638.19
  Q 534.49 637.75 534.97 637.56
  Q 535.99 637.18 536.64 636.36
  Q 536.90 636.04 536.91 635.62
  L 537.55 616.93
  Q 537.57 616.28 536.93 616.28
  L 535.03 616.29
  Q 534.54 616.29 534.54 616.78
  Z
  M 527.3290 616.0850
  A 0.75 0.75 0.0 0 0 526.5763 615.3376
  L 525.1564 615.3425
  A 0.75 0.75 0.0 0 0 524.4090 616.0952
  L 524.4710 633.8750
  A 0.75 0.75 0.0 0 0 525.2237 634.6224
  L 526.6436 634.6175
  A 0.75 0.75 0.0 0 0 527.3910 633.8648
  L 527.3290 616.0850
  Z
  M 529.49 616.15
  L 529.29 632.79
  A 0.28 0.28 0.0 0 0 529.57 633.08
  L 529.74 633.08
  A 2.33 2.12 0.7 0 0 532.09 630.99
  L 532.25 618.03
  A 2.33 2.12 0.7 0 0 529.95 615.88
  L 529.78 615.88
  A 0.28 0.28 0.0 0 0 529.49 616.15
  Z"
/>
<path fill="#ffffff" d="
  M 465.85 635.80
  L 469.81 635.80
  A 0.54 0.54 0.0 0 0 470.35 635.26
  L 470.43 611.03
  A 0.54 0.54 0.0 0 1 470.98 610.49
  L 473.14 610.55
  A 0.54 0.54 0.0 0 1 473.67 611.09
  L 473.59 635.24
  A 0.54 0.54 0.0 0 0 474.12 635.78
  L 481.78 635.87
  A 0.54 0.54 0.0 0 1 482.32 636.43
  L 482.28 637.70
  A 0.54 0.54 0.0 0 1 481.74 638.23
  L 453.96 638.21
  A 0.54 0.54 0.0 0 1 453.42 637.72
  L 453.31 636.46
  A 0.54 0.54 0.0 0 1 453.84 635.87
  L 461.54 635.76
  A 0.54 0.54 0.0 0 0 462.07 635.22
  L 462.03 611.07
  A 0.54 0.54 0.0 0 1 462.56 610.53
  L 464.71 610.51
  A 0.54 0.54 0.0 0 1 465.26 611.05
  L 465.31 635.26
  A 0.54 0.54 0.0 0 0 465.85 635.80
  Z"
/>
<path fill="#ffffff" d="
  M 602.98 632.36
  Q 600.99 632.65 598.86 632.22
  Q 598.03 632.04 597.84 632.87
  L 597.53 634.31
  A 2.58 2.57 -83.8 0 1 595.03 636.33
  L 590.51 636.36
  Q 589.59 636.36 589.59 635.44
  L 589.59 613.03
  Q 589.59 612.40 590.22 612.41
  L 597.51 612.48
  Q 598.04 612.49 598.05 613.02
  L 598.09 614.28
  Q 598.11 615.00 598.81 614.83
  Q 600.99 614.29 603.09 614.56
  A 0.54 0.53 4.3 0 0 603.70 614.04
  L 603.75 610.97
  Q 603.75 610.45 604.27 610.46
  L 606.04 610.50
  Q 606.71 610.51 606.76 611.18
  Q 606.89 612.79 606.93 614.26
  Q 607.19 625.51 606.95 637.93
  Q 606.92 639.65 605.21 639.51
  L 604.68 639.47
  Q 603.71 639.39 603.72 638.43
  L 603.73 633.01
  Q 603.73 632.25 602.98 632.36
  Z
  M 595.4762 615.0328
  A 0.76 0.76 0.0 0 0 594.7176 614.2715
  L 593.0376 614.2685
  A 0.76 0.76 0.0 0 0 592.2762 615.0272
  L 592.2438 633.6272
  A 0.76 0.76 0.0 0 0 593.0024 634.3885
  L 594.6824 634.3915
  A 0.76 0.76 0.0 0 0 595.4438 633.6328
  L 595.4762 615.0328
  Z
  M 600.04 622.62
  A 1.20 1.19 -78.8 0 1 601.20 621.84
  L 603.01 621.90
  Q 603.69 621.92 603.69 621.24
  L 603.70 616.77
  A 0.40 0.39 -3.8 0 0 603.25 616.38
  Q 600.99 616.67 598.59 616.06
  Q 598.08 615.93 598.08 616.45
  L 598.07 630.28
  Q 598.07 631.04 598.80 630.85
  Q 600.75 630.35 602.91 630.66
  Q 603.69 630.76 603.69 629.98
  L 603.70 624.96
  Q 603.70 624.21 602.96 624.24
  L 600.81 624.33
  Q 600.01 624.36 599.92 623.56
  Q 599.87 623.07 600.04 622.62
  Z"
/>
<path fill="#ffffff" d="
  M 613.23 632.81
  L 613.27 639.07
  A 0.41 0.41 0.0 0 1 612.86 639.48
  L 610.29 639.48
  A 0.41 0.41 0.0 0 1 609.88 639.07
  L 609.88 610.95
  A 0.41 0.41 0.0 0 1 610.30 610.54
  L 612.86 610.57
  A 0.41 0.41 0.0 0 1 613.26 611.00
  L 613.13 614.12
  A 0.41 0.41 0.0 0 0 613.55 614.55
  L 617.00 614.43
  A 0.41 0.41 0.0 0 1 617.42 614.84
  L 617.42 616.00
  A 0.41 0.41 0.0 0 1 617.00 616.41
  L 613.66 616.37
  A 0.41 0.41 0.0 0 0 613.25 616.77
  L 613.21 621.49
  A 0.41 0.41 0.0 0 0 613.62 621.90
  L 616.29 621.89
  A 0.41 0.41 0.0 0 1 616.70 622.28
  L 616.78 623.84
  A 0.41 0.41 0.0 0 1 616.36 624.27
  L 613.66 624.22
  A 0.41 0.41 0.0 0 0 613.25 624.62
  L 613.19 630.25
  A 0.41 0.41 0.0 0 0 613.61 630.66
  L 617.28 630.57
  A 0.41 0.41 0.0 0 1 617.70 630.94
  L 617.80 632.05
  A 0.41 0.41 0.0 0 1 617.38 632.50
  L 613.65 632.40
  A 0.41 0.41 0.0 0 0 613.23 632.81
  Z"
/>
<path fill="#ffffff" d="
  M 748.98 622.50
  L 752.47 622.41
  A 0.38 0.37 3.8 0 1 752.85 622.84
  L 752.69 623.97
  Q 752.63 624.32 752.27 624.33
  L 748.72 624.34
  Q 748.03 624.34 748.03 625.03
  L 748.03 629.23
  Q 748.04 629.99 748.80 629.93
  Q 749.31 629.90 752.52 630.04
  Q 753.48 630.08 754.17 631.01
  Q 754.33 631.24 754.30 631.55
  Q 754.21 632.32 753.43 632.32
  L 748.76 632.29
  Q 748.07 632.29 748.06 632.99
  L 748.06 639.05
  Q 748.06 639.40 747.71 639.41
  L 745.20 639.52
  Q 744.60 639.54 744.61 638.95
  L 744.65 632.86
  A 0.54 0.54 0.0 0 0 744.11 632.31
  L 739.15 632.28
  Q 738.60 632.28 738.46 631.75
  Q 738.39 631.48 738.50 631.20
  Q 738.73 630.64 739.31 630.44
  Q 741.40 629.72 743.69 629.95
  Q 744.62 630.04 744.62 629.11
  L 744.64 624.97
  Q 744.64 624.31 743.97 624.31
  L 740.28 624.34
  Q 739.71 624.34 739.64 623.78
  L 739.54 622.98
  Q 739.48 622.45 740.02 622.46
  L 742.91 622.52
  Q 744.63 622.56 744.63 620.84
  L 744.64 617.99
  Q 744.64 616.51 743.16 616.51
  L 739.71 616.52
  Q 739.10 616.52 739.15 615.92
  Q 739.19 615.44 739.38 614.97
  A 0.69 0.68 -70.3 0 1 740.19 614.58
  Q 740.80 614.74 741.38 614.51
  A 0.56 0.56 0.0 0 0 741.69 613.78
  L 740.67 611.26
  Q 740.41 610.60 741.11 610.49
  Q 742.06 610.34 743.08 610.50
  A 0.59 0.58 -85.4 0 1 743.57 611.08
  Q 743.54 612.73 744.40 614.33
  Q 744.60 614.71 745.03 614.70
  L 748.01 614.65
  Q 748.61 614.64 748.60 614.04
  Q 748.59 612.66 749.33 611.10
  A 1.16 1.16 0.0 0 1 750.33 610.44
  L 751.13 610.42
  Q 751.88 610.39 751.76 611.13
  L 751.35 613.80
  Q 751.27 614.37 751.81 614.59
  Q 752.15 614.73 752.62 614.67
  Q 753.58 614.54 753.66 615.50
  L 753.69 615.90
  A 0.60 0.60 0.0 0 1 753.09 616.55
  L 748.59 616.53
  A 1.10 1.09 85.5 0 0 747.51 617.80
  L 748.13 621.79
  Q 748.24 622.51 748.98 622.50
  Z"
/>
<path fill="#ffffff" d="
  M 672.42 635.69
  A 0.63 0.63 0.0 0 0 673.50 635.30
  Q 673.89 629.39 673.75 622.87
  A 0.69 0.68 -1.6 0 0 673.03 622.20
  L 667.15 622.46
  A 0.87 0.87 0.0 0 0 666.32 623.35
  L 666.35 625.14
  Q 666.36 625.79 667.01 625.79
  L 671.03 625.81
  A 0.68 0.68 0.0 0 1 671.71 626.53
  L 671.66 627.36
  Q 671.62 628.12 670.87 628.11
  L 667.21 628.09
  A 0.90 0.89 2.0 0 0 666.31 628.92
  C 666.05 632.74 668.25 640.39 661.09 639.15
  Q 660.69 639.08 660.51 638.72
  Q 660.26 638.21 660.68 637.83
  Q 660.87 637.65 661.14 637.59
  Q 663.03 637.22 663.31 634.99
  Q 663.71 631.66 663.54 628.77
  A 0.62 0.62 0.0 0 0 662.94 628.18
  L 658.64 628.07
  Q 657.56 628.04 657.48 626.97
  Q 657.47 626.81 657.50 626.66
  Q 657.63 625.94 658.36 625.91
  L 662.72 625.74
  Q 663.88 625.69 663.70 624.54
  L 663.57 623.70
  Q 663.35 622.30 661.93 622.30
  L 657.38 622.28
  Q 656.84 622.27 656.71 621.76
  Q 656.51 621.00 657.41 620.57
  Q 658.32 620.13 659.19 619.85
  Q 659.72 619.68 659.66 619.13
  Q 659.35 616.02 657.70 613.67
  A 0.64 0.64 0.0 0 1 658.24 612.66
  C 659.67 612.70 662.18 613.10 662.88 611.43
  A 1.47 1.46 -61.2 0 1 665.07 610.79
  Q 665.92 611.39 666.65 612.07
  C 667.54 612.91 669.86 612.66 671.06 612.62
  A 0.46 0.46 0.0 0 1 671.47 613.33
  Q 669.79 615.92 669.37 619.01
  Q 669.27 619.79 670.02 620.04
  L 672.81 620.96
  Q 673.82 621.29 673.82 620.23
  L 673.77 612.24
  A 0.34 0.34 0.0 0 1 674.10 611.90
  L 685.69 611.71
  Q 686.12 611.70 686.24 612.11
  Q 686.29 612.26 686.28 612.41
  A 0.85 0.84 82.5 0 1 685.70 613.17
  C 683.01 614.05 680.03 614.07 677.19 614.18
  Q 676.42 614.21 676.43 614.98
  L 676.50 618.71
  Q 676.52 619.48 677.28 619.48
  L 685.21 619.57
  A 1.07 1.05 -12.0 0 1 686.18 620.19
  L 686.35 620.56
  A 0.36 0.36 0.0 0 1 686.09 621.06
  L 683.94 621.45
  Q 683.47 621.54 683.46 622.03
  L 683.39 638.52
  Q 683.39 639.42 682.48 639.44
  L 681.37 639.46
  A 0.84 0.84 0.0 0 1 680.51 638.62
  L 680.58 622.59
  Q 680.59 621.08 679.09 621.28
  L 677.98 621.42
  Q 676.29 621.64 676.54 623.32
  C 677.33 628.60 677.51 635.45 673.07 639.13
  A 0.31 0.31 0.0 0 1 672.56 638.88
  Q 672.61 637.59 671.57 636.81
  Q 668.61 634.61 668.37 630.70
  Q 668.33 629.99 669.04 630.03
  L 669.47 630.06
  A 1.15 1.14 0.3 0 1 670.55 631.14
  Q 670.70 633.92 672.42 635.69
  Z
  M 661.95 614.55
  A 0.93 0.93 0.0 0 0 661.07 615.80
  L 662.45 619.47
  A 0.93 0.93 0.0 0 0 663.34 620.07
  L 665.95 620.01
  A 0.93 0.93 0.0 0 0 666.81 619.37
  L 668.00 615.80
  A 0.93 0.93 0.0 0 0 667.12 614.57
  L 661.95 614.55
  Z"
/>
<path fill="#ffffff" d="
  M 549.44 613.82
  L 549.42 635.26
  A 2.14 2.14 0.0 0 1 547.34 637.39
  L 542.82 637.52
  Q 541.85 637.54 541.85 636.57
  L 541.84 613.74
  Q 541.84 613.59 541.99 613.58
  L 549.07 613.46
  Q 549.44 613.45 549.44 613.82
  Z
  M 544.30 635.06
  A 0.76 0.76 0.0 0 0 545.30 635.78
  L 546.75 635.30
  A 0.76 0.76 0.0 0 0 547.27 634.58
  L 547.36 616.08
  A 0.76 0.76 0.0 0 0 546.62 615.31
  L 544.99 615.26
  A 0.76 0.76 0.0 0 0 544.20 616.02
  L 544.30 635.06
  Z"
/>
<rect fill="#212775" x="-1.60" y="-10.06" transform="translate(593.86,624.33) rotate(0.1)" width="3.20" height="20.12" rx="0.76"/>
<path fill="#212775" d="
  M 661.95 614.55
  L 667.12 614.57
  A 0.93 0.93 0.0 0 1 668.00 615.80
  L 666.81 619.37
  A 0.93 0.93 0.0 0 1 665.95 620.01
  L 663.34 620.07
  A 0.93 0.93 0.0 0 1 662.45 619.47
  L 661.07 615.80
  A 0.93 0.93 0.0 0 1 661.95 614.55
  Z"
/>
<rect fill="#212775" x="-1.46" y="-9.64" transform="translate(525.90,624.98) rotate(-0.2)" width="2.92" height="19.28" rx="0.75"/>
<path fill="#212775" d="
  M 544.30 635.06
  L 544.20 616.02
  A 0.76 0.76 0.0 0 1 544.99 615.26
  L 546.62 615.31
  A 0.76 0.76 0.0 0 1 547.36 616.08
  L 547.27 634.58
  A 0.76 0.76 0.0 0 1 546.75 635.30
  L 545.30 635.78
  A 0.76 0.76 0.0 0 1 544.30 635.06
  Z"
/>
<path fill="#ffffff" d="
  M 456.87 629.48
  A 0.29 0.29 0.0 0 1 456.53 629.25
  L 454.40 617.17
  A 1.49 1.35 80.0 0 1 455.47 615.47
  L 455.63 615.44
  A 1.49 1.35 80.0 0 1 457.22 616.68
  L 459.35 628.75
  A 0.29 0.29 0.0 0 1 459.11 629.09
  L 456.87 629.48
  Z"
/>
<path fill="#ffffff" d="
  M 476.95 629.02
  A 0.28 0.28 0.0 0 1 476.72 628.69
  L 478.87 616.53
  A 1.29 0.96 -80.0 0 1 480.04 615.43
  L 480.92 615.58
  A 1.29 0.96 -80.0 0 1 481.64 617.02
  L 479.50 629.18
  A 0.28 0.28 0.0 0 1 479.17 629.41
  L 476.95 629.02
  Z"
/>
<path fill="#212775" d="
  M 529.49 616.15
  A 0.28 0.28 0.0 0 1 529.78 615.88
  L 529.95 615.88
  A 2.33 2.12 0.7 0 1 532.25 618.03
  L 532.09 630.99
  A 2.33 2.12 0.7 0 1 529.74 633.08
  L 529.57 633.08
  A 0.28 0.28 0.0 0 1 529.29 632.79
  L 529.49 616.15
  Z"
/>
<path fill="#212775" d="
  M 600.81 624.33
  L 602.96 624.24
  Q 603.70 624.21 603.70 624.96
  L 603.69 629.98
  Q 603.69 630.76 602.91 630.66
  Q 600.75 630.35 598.80 630.85
  Q 598.07 631.04 598.07 630.28
  L 598.08 616.45
  Q 598.08 615.93 598.59 616.06
  Q 600.99 616.67 603.25 616.38
  A 0.40 0.39 -3.8 0 1 603.70 616.77
  L 603.69 621.24
  Q 603.69 621.92 603.01 621.90
  L 601.20 621.84
  A 1.20 1.19 -78.8 0 0 600.04 622.62
  Q 599.87 623.07 599.92 623.56
  Q 600.01 624.36 600.81 624.33
  Z"
/>
<rect fill="#212775" x="-1.23" y="-2.21" transform="translate(729.35,621.67) rotate(1.2)" width="2.46" height="4.42" rx="0.76"/>
<rect fill="#212775" x="-1.20" y="-2.18" transform="translate(733.70,621.68) rotate(-1.0)" width="2.40" height="4.36" rx="0.65"/>
<path fill="#ffffff" d="
  M 802.24 633.85
  L 807.48 633.48
  Q 807.91 633.45 807.89 633.89
  L 807.88 634.23
  Q 807.84 635.07 807.03 635.28
  Q 800.11 637.08 793.40 637.18
  A 0.97 0.97 0.0 0 1 792.41 636.26
  L 792.38 635.52
  Q 792.33 634.62 793.23 634.62
  L 797.83 634.61
  Q 798.50 634.60 798.51 633.93
  L 798.53 624.96
  Q 798.54 623.56 797.14 623.57
  L 793.74 623.59
  A 0.67 0.66 -2.3 0 1 793.07 622.98
  Q 793.03 622.34 793.71 621.83
  A 0.96 0.93 25.7 0 1 794.28 621.64
  L 805.75 621.61
  Q 806.66 621.61 806.68 622.52
  L 806.68 622.93
  Q 806.70 623.73 805.90 623.63
  Q 801.33 623.02 801.40 625.14
  Q 801.53 628.63 801.35 632.98
  A 0.84 0.84 0.0 0 0 802.24 633.85
  Z"
/>
<rect fill="#212775" x="-1.21" y="-2.52" transform="translate(729.37,628.09) rotate(1.3)" width="2.42" height="5.04" rx="0.77"/>
<rect fill="#212775" x="-1.17" y="-2.49" transform="translate(733.66,628.08) rotate(1.6)" width="2.34" height="4.98" rx="0.61"/>
<path fill="#ffffff" d="
  M 661.27 630.66
  Q 660.42 635.01 657.66 636.86
  Q 655.49 638.32 656.89 636.10
  Q 658.52 633.53 658.95 630.91
  Q 659.06 630.28 659.69 630.21
  L 660.75 630.10
  A 0.48 0.47 2.7 0 1 661.27 630.66
  Z"
/>
<rect fill="#ffffff" x="-6.88" y="-1.15" transform="translate(731.24,636.94) rotate(-4.8)" width="13.76" height="2.30" rx="1.06"/>
</svg>
